G04*
G04 #@! TF.GenerationSoftware,Altium Limited,Altium Designer,21.0.8 (223)*
G04*
G04 Layer_Color=2752767*
%FSTAX24Y24*%
%MOIN*%
G70*
G04*
G04 #@! TF.SameCoordinates,67FEE026-561A-4E2F-A948-FBB6D6F09F3B*
G04*
G04*
G04 #@! TF.FilePolarity,Positive*
G04*
G01*
G75*
%ADD87C,0.0020*%
%ADD88C,0.0027*%
%ADD89C,0.0013*%
D87*
X06802Y027738D02*
Y027898D01*
X06818D01*
Y027738D01*
X06802D01*
Y02577D02*
Y02593D01*
X06818D01*
Y02577D01*
X06802D01*
X0512Y01822D02*
X05112Y01838D01*
X05128D01*
X0512Y01822D01*
Y01722D02*
X05112Y01738D01*
X05128D01*
X0512Y01722D01*
Y01622D02*
X05112Y01638D01*
X05128D01*
X0512Y01622D01*
Y01522D02*
X05112Y01538D01*
X05128D01*
X0512Y01522D01*
X0482D02*
X04812Y01538D01*
X04828D01*
X0482Y01522D01*
Y01622D02*
X04812Y01638D01*
X04828D01*
X0482Y01622D01*
Y01722D02*
X04812Y01738D01*
X04828D01*
X0482Y01722D01*
Y01822D02*
X04812Y01838D01*
X04828D01*
X0482Y01822D01*
X0512Y02572D02*
X05124Y02576D01*
X05128D01*
X05124Y0258D01*
X05128Y02584D01*
X05124D01*
X0512Y02588D01*
X05116Y02584D01*
X05112D01*
X05116Y0258D01*
X05112Y02576D01*
X05116D01*
X0512Y02572D01*
X0532D02*
X05324Y02576D01*
X05328D01*
X05324Y0258D01*
X05328Y02584D01*
X05324D01*
X0532Y02588D01*
X05316Y02584D01*
X05312D01*
X05316Y0258D01*
X05312Y02576D01*
X05316D01*
X0532Y02572D01*
X0512Y02467D02*
X05124Y02471D01*
X05128D01*
X05124Y02475D01*
X05128Y02479D01*
X05124D01*
X0512Y02483D01*
X05116Y02479D01*
X05112D01*
X05116Y02475D01*
X05112Y02471D01*
X05116D01*
X0512Y02467D01*
X0532D02*
X05324Y02471D01*
X05328D01*
X05324Y02475D01*
X05328Y02479D01*
X05324D01*
X0532Y02483D01*
X05316Y02479D01*
X05312D01*
X05316Y02475D01*
X05312Y02471D01*
X05316D01*
X0532Y02467D01*
Y02367D02*
X05324Y02371D01*
X05328D01*
X05324Y02375D01*
X05328Y02379D01*
X05324D01*
X0532Y02383D01*
X05316Y02379D01*
X05312D01*
X05316Y02375D01*
X05312Y02371D01*
X05316D01*
X0532Y02367D01*
X0512D02*
X05124Y02371D01*
X05128D01*
X05124Y02375D01*
X05128Y02379D01*
X05124D01*
X0512Y02383D01*
X05116Y02379D01*
X05112D01*
X05116Y02375D01*
X05112Y02371D01*
X05116D01*
X0512Y02367D01*
X04802Y03017D02*
X04806Y03025D01*
X04802Y03033D01*
X0481Y03029D01*
X04818Y03033D01*
X04814Y03025D01*
X04818Y03017D01*
X0481Y03021D01*
X04802Y03017D01*
X06807Y03012D02*
X06811Y0302D01*
X06807Y03028D01*
X06815Y03024D01*
X06823Y03028D01*
X06819Y0302D01*
X06823Y03012D01*
X06815Y03016D01*
X06807Y03012D01*
X06847Y01117D02*
X06851Y01125D01*
X06847Y01133D01*
X06855Y01129D01*
X06863Y01133D01*
X06859Y01125D01*
X06863Y01117D01*
X06855Y01121D01*
X06847Y01117D01*
X04797D02*
X04801Y01125D01*
X04797Y01133D01*
X04805Y01129D01*
X04813Y01133D01*
X04809Y01125D01*
X04813Y01117D01*
X04805Y01121D01*
X04797Y01117D01*
X04886Y02656D02*
Y02652D01*
X04894D01*
Y02656D01*
X04898D01*
Y02664D01*
X04894D01*
Y02668D01*
X04886D01*
Y02664D01*
X04882D01*
Y02656D01*
X04886D01*
Y02556D02*
Y02552D01*
X04894D01*
Y02556D01*
X04898D01*
Y02564D01*
X04894D01*
Y02568D01*
X04886D01*
Y02564D01*
X04882D01*
Y02556D01*
X04886D01*
X05082Y020412D02*
X05086D01*
X0509Y020452D01*
X05094Y020412D01*
X05098D01*
Y020452D01*
X05094Y020492D01*
X05098Y020532D01*
Y020572D01*
X05094D01*
X0509Y020532D01*
X05086Y020572D01*
X05082D01*
Y020532D01*
X05086Y020492D01*
X05082Y020452D01*
Y020412D01*
Y019428D02*
X05086D01*
X0509Y019468D01*
X05094Y019428D01*
X05098D01*
Y019468D01*
X05094Y019508D01*
X05098Y019548D01*
Y019588D01*
X05094D01*
X0509Y019548D01*
X05086Y019588D01*
X05082D01*
Y019548D01*
X05086Y019508D01*
X05082Y019468D01*
Y019428D01*
X04842Y02375D02*
X0485Y02383D01*
X04858Y02375D01*
X0485Y02367D01*
X04842Y02375D01*
Y02275D02*
X0485Y02283D01*
X04858Y02275D01*
X0485Y02267D01*
X04842Y02275D01*
Y02175D02*
X0485Y02183D01*
X04858Y02175D01*
X0485Y02167D01*
X04842Y02175D01*
X048228Y01952D02*
X048268D01*
X048308Y01956D01*
X048348Y01952D01*
X048388D01*
Y01956D01*
X048348Y0196D01*
X048388Y01964D01*
Y01968D01*
X048348D01*
X048308Y01964D01*
X048268Y01968D01*
X048228D01*
Y01964D01*
X048268Y0196D01*
X048228Y01956D01*
Y01952D01*
X049212D02*
X049252D01*
X049292Y01956D01*
X049332Y01952D01*
X049372D01*
Y01956D01*
X049332Y0196D01*
X049372Y01964D01*
Y01968D01*
X049332D01*
X049292Y01964D01*
X049252Y01968D01*
X049212D01*
Y01964D01*
X049252Y0196D01*
X049212Y01956D01*
Y01952D01*
X04957Y013862D02*
X04961D01*
X04965Y013902D01*
X04969Y013862D01*
X04973D01*
Y013902D01*
X04969Y013942D01*
X04973Y013982D01*
Y014022D01*
X04969D01*
X04965Y013982D01*
X04961Y014022D01*
X04957D01*
Y013982D01*
X04961Y013942D01*
X04957Y013902D01*
Y013862D01*
Y012878D02*
X04961D01*
X04965Y012918D01*
X04969Y012878D01*
X04973D01*
Y012918D01*
X04969Y012958D01*
X04973Y012998D01*
Y013038D01*
X04969D01*
X04965Y012998D01*
X04961Y013038D01*
X04957D01*
Y012998D01*
X04961Y012958D01*
X04957Y012918D01*
Y012878D01*
X05075Y01197D02*
X05079Y01201D01*
X05083D01*
X05079Y01205D01*
X05083Y01209D01*
X05079D01*
X05075Y01213D01*
X05071Y01209D01*
X05067D01*
X05071Y01205D01*
X05067Y01201D01*
X05071D01*
X05075Y01197D01*
Y01397D02*
X05079Y01401D01*
X05083D01*
X05079Y01405D01*
X05083Y01409D01*
X05079D01*
X05075Y01413D01*
X05071Y01409D01*
X05067D01*
X05071Y01405D01*
X05067Y01401D01*
X05071D01*
X05075Y01397D01*
X052657Y01427D02*
Y01443D01*
X052817D01*
Y01427D01*
X052657D01*
X052697Y01431D02*
Y01439D01*
X052777D01*
Y01431D01*
X052697D01*
X052657Y01527D02*
Y01543D01*
X052817D01*
Y01527D01*
X052657D01*
X052697Y01531D02*
Y01539D01*
X052777D01*
Y01531D01*
X052697D01*
X052657Y01627D02*
Y01643D01*
X052817D01*
Y01627D01*
X052657D01*
X052697Y01631D02*
Y01639D01*
X052777D01*
Y01631D01*
X052697D01*
X052657Y01727D02*
Y01743D01*
X052817D01*
Y01727D01*
X052657D01*
X052697Y01731D02*
Y01739D01*
X052777D01*
Y01731D01*
X052697D01*
X055783Y01727D02*
Y01743D01*
X055943D01*
Y01727D01*
X055783D01*
X055823Y01731D02*
Y01739D01*
X055903D01*
Y01731D01*
X055823D01*
X055783Y01627D02*
Y01643D01*
X055943D01*
Y01627D01*
X055783D01*
X055823Y01631D02*
Y01639D01*
X055903D01*
Y01631D01*
X055823D01*
X055783Y01527D02*
Y01543D01*
X055943D01*
Y01527D01*
X055783D01*
X055823Y01531D02*
Y01539D01*
X055903D01*
Y01531D01*
X055823D01*
X055783Y01427D02*
Y01443D01*
X055943D01*
Y01427D01*
X055783D01*
X055823Y01431D02*
Y01439D01*
X055903D01*
Y01431D01*
X055823D01*
X05307Y012612D02*
X05311D01*
X05315Y012652D01*
X05319Y012612D01*
X05323D01*
Y012652D01*
X05319Y012692D01*
X05323Y012732D01*
Y012772D01*
X05319D01*
X05315Y012732D01*
X05311Y012772D01*
X05307D01*
Y012732D01*
X05311Y012692D01*
X05307Y012652D01*
Y012612D01*
Y011628D02*
X05311D01*
X05315Y011668D01*
X05319Y011628D01*
X05323D01*
Y011668D01*
X05319Y011708D01*
X05323Y011748D01*
Y011788D01*
X05319D01*
X05315Y011748D01*
X05311Y011788D01*
X05307D01*
Y011748D01*
X05311Y011708D01*
X05307Y011668D01*
Y011628D01*
X05445Y01307D02*
X05449Y01311D01*
X05453D01*
X05449Y01315D01*
X05453Y01319D01*
X05449D01*
X05445Y01323D01*
X05441Y01319D01*
X05437D01*
X05441Y01315D01*
X05437Y01311D01*
X05441D01*
X05445Y01307D01*
Y01107D02*
X05449Y01111D01*
X05453D01*
X05449Y01115D01*
X05453Y01119D01*
X05449D01*
X05445Y01123D01*
X05441Y01119D01*
X05437D01*
X05441Y01115D01*
X05437Y01111D01*
X05441D01*
X05445Y01107D01*
X05535Y01307D02*
X05539Y01311D01*
X05543D01*
X05539Y01315D01*
X05543Y01319D01*
X05539D01*
X05535Y01323D01*
X05531Y01319D01*
X05527D01*
X05531Y01315D01*
X05527Y01311D01*
X05531D01*
X05535Y01307D01*
Y01107D02*
X05539Y01111D01*
X05543D01*
X05539Y01115D01*
X05543Y01119D01*
X05539D01*
X05535Y01123D01*
X05531Y01119D01*
X05527D01*
X05531Y01115D01*
X05527Y01111D01*
X05531D01*
X05535Y01107D01*
X057428Y01647D02*
X057468D01*
X057508Y01651D01*
X057548Y01647D01*
X057588D01*
Y01651D01*
X057548Y01655D01*
X057588Y01659D01*
Y01663D01*
X057548D01*
X057508Y01659D01*
X057468Y01663D01*
X057428D01*
Y01659D01*
X057468Y01655D01*
X057428Y01651D01*
Y01647D01*
X058412D02*
X058452D01*
X058492Y01651D01*
X058532Y01647D01*
X058572D01*
Y01651D01*
X058532Y01655D01*
X058572Y01659D01*
Y01663D01*
X058532D01*
X058492Y01659D01*
X058452Y01663D01*
X058412D01*
Y01659D01*
X058452Y01655D01*
X058412Y01651D01*
Y01647D01*
X057Y01797D02*
X05704Y01801D01*
X05708D01*
X05704Y01805D01*
X05708Y01809D01*
X05704D01*
X057Y01813D01*
X05696Y01809D01*
X05692D01*
X05696Y01805D01*
X05692Y01801D01*
X05696D01*
X057Y01797D01*
X059D02*
X05904Y01801D01*
X05908D01*
X05904Y01805D01*
X05908Y01809D01*
X05904D01*
X059Y01813D01*
X05896Y01809D01*
X05892D01*
X05896Y01805D01*
X05892Y01801D01*
X05896D01*
X059Y01797D01*
X05652Y012412D02*
X05656D01*
X0566Y012452D01*
X05664Y012412D01*
X05668D01*
Y012452D01*
X05664Y012492D01*
X05668Y012532D01*
Y012572D01*
X05664D01*
X0566Y012532D01*
X05656Y012572D01*
X05652D01*
Y012532D01*
X05656Y012492D01*
X05652Y012452D01*
Y012412D01*
Y011428D02*
X05656D01*
X0566Y011468D01*
X05664Y011428D01*
X05668D01*
Y011468D01*
X05664Y011508D01*
X05668Y011548D01*
Y011588D01*
X05664D01*
X0566Y011548D01*
X05656Y011588D01*
X05652D01*
Y011548D01*
X05656Y011508D01*
X05652Y011468D01*
Y011428D01*
X0578Y01132D02*
X05784Y01136D01*
X05788D01*
X05784Y0114D01*
X05788Y01144D01*
X05784D01*
X0578Y01148D01*
X05776Y01144D01*
X05772D01*
X05776Y0114D01*
X05772Y01136D01*
X05776D01*
X0578Y01132D01*
Y01332D02*
X05784Y01336D01*
X05788D01*
X05784Y0134D01*
X05788Y01344D01*
X05784D01*
X0578Y01348D01*
X05776Y01344D01*
X05772D01*
X05776Y0134D01*
X05772Y01336D01*
X05776D01*
X0578Y01332D01*
X0587Y01132D02*
X05874Y01136D01*
X05878D01*
X05874Y0114D01*
X05878Y01144D01*
X05874D01*
X0587Y01148D01*
X05866Y01144D01*
X05862D01*
X05866Y0114D01*
X05862Y01136D01*
X05866D01*
X0587Y01132D01*
Y01332D02*
X05874Y01336D01*
X05878D01*
X05874Y0134D01*
X05878Y01344D01*
X05874D01*
X0587Y01348D01*
X05866Y01344D01*
X05862D01*
X05866Y0134D01*
X05862Y01336D01*
X05866D01*
X0587Y01332D01*
X05965D02*
X05969Y01336D01*
X05973D01*
X05969Y0134D01*
X05973Y01344D01*
X05969D01*
X05965Y01348D01*
X05961Y01344D01*
X05957D01*
X05961Y0134D01*
X05957Y01336D01*
X05961D01*
X05965Y01332D01*
Y01132D02*
X05969Y01136D01*
X05973D01*
X05969Y0114D01*
X05973Y01144D01*
X05969D01*
X05965Y01148D01*
X05961Y01144D01*
X05957D01*
X05961Y0114D01*
X05957Y01136D01*
X05961D01*
X05965Y01132D01*
X0606Y01332D02*
X06064Y01336D01*
X06068D01*
X06064Y0134D01*
X06068Y01344D01*
X06064D01*
X0606Y01348D01*
X06056Y01344D01*
X06052D01*
X06056Y0134D01*
X06052Y01336D01*
X06056D01*
X0606Y01332D01*
Y01132D02*
X06064Y01136D01*
X06068D01*
X06064Y0114D01*
X06068Y01144D01*
X06064D01*
X0606Y01148D01*
X06056Y01144D01*
X06052D01*
X06056Y0114D01*
X06052Y01136D01*
X06056D01*
X0606Y01132D01*
X06155D02*
X06159Y01136D01*
X06163D01*
X06159Y0114D01*
X06163Y01144D01*
X06159D01*
X06155Y01148D01*
X06151Y01144D01*
X06147D01*
X06151Y0114D01*
X06147Y01136D01*
X06151D01*
X06155Y01132D01*
Y01332D02*
X06159Y01336D01*
X06163D01*
X06159Y0134D01*
X06163Y01344D01*
X06159D01*
X06155Y01348D01*
X06151Y01344D01*
X06147D01*
X06151Y0134D01*
X06147Y01336D01*
X06151D01*
X06155Y01332D01*
X06126Y01801D02*
Y01797D01*
X06134D01*
Y01801D01*
X06138D01*
Y01809D01*
X06134D01*
Y01813D01*
X06126D01*
Y01809D01*
X06122D01*
Y01801D01*
X06126D01*
X06026D02*
Y01797D01*
X06034D01*
Y01801D01*
X06038D01*
Y01809D01*
X06034D01*
Y01813D01*
X06026D01*
Y01809D01*
X06022D01*
Y01801D01*
X06026D01*
X059Y01882D02*
X05904Y01886D01*
X05908D01*
X05904Y0189D01*
X05908Y01894D01*
X05904D01*
X059Y01898D01*
X05896Y01894D01*
X05892D01*
X05896Y0189D01*
X05892Y01886D01*
X05896D01*
X059Y01882D01*
X057D02*
X05704Y01886D01*
X05708D01*
X05704Y0189D01*
X05708Y01894D01*
X05704D01*
X057Y01898D01*
X05696Y01894D01*
X05692D01*
X05696Y0189D01*
X05692Y01886D01*
X05696D01*
X057Y01882D01*
X063Y014383D02*
X06292Y014543D01*
X06308D01*
X063Y014383D01*
Y014423D02*
X06296Y014503D01*
X06304D01*
X063Y014423D01*
Y018557D02*
X06292Y018717D01*
X06308D01*
X063Y018557D01*
Y018597D02*
X06296Y018677D01*
X06304D01*
X063Y018597D01*
X067257Y01627D02*
X067297Y01631D01*
X067337D01*
X067297Y01635D01*
X067337Y01639D01*
X067297D01*
X067257Y01643D01*
X067217Y01639D01*
X067177D01*
X067217Y01635D01*
X067177Y01631D01*
X067217D01*
X067257Y01627D01*
Y01631D02*
X067277Y01633D01*
X067297D01*
X067277Y01635D01*
X067297Y01637D01*
X067277D01*
X067257Y01639D01*
X067237Y01637D01*
X067217D01*
X067237Y01635D01*
X067217Y01633D01*
X067237D01*
X067257Y01631D01*
X067177Y014302D02*
X067217Y014382D01*
X067177Y014461D01*
X067257Y014421D01*
X067337Y014461D01*
X067297Y014382D01*
X067337Y014302D01*
X067257Y014341D01*
X067177Y014302D01*
X067217Y014341D02*
X067237Y014382D01*
X067217Y014421D01*
X067257Y014402D01*
X067297Y014421D01*
X067277Y014382D01*
X067297Y014341D01*
X067257Y014361D01*
X067217Y014341D01*
X067177Y018239D02*
X067217Y018319D01*
X067177Y018398D01*
X067257Y018359D01*
X067337Y018398D01*
X067297Y018319D01*
X067337Y018239D01*
X067257Y018278D01*
X067177Y018239D01*
X067217Y018278D02*
X067237Y018319D01*
X067217Y018359D01*
X067257Y018339D01*
X067297Y018359D01*
X067277Y018319D01*
X067297Y018278D01*
X067257Y018298D01*
X067217Y018278D01*
X068989Y01631D02*
Y01627D01*
X069069D01*
Y01631D01*
X069109D01*
Y01639D01*
X069069D01*
Y01643D01*
X068989D01*
Y01639D01*
X068949D01*
Y01631D01*
X068989D01*
X069009Y01633D02*
Y01631D01*
X069049D01*
Y01633D01*
X069069D01*
Y01637D01*
X069049D01*
Y01639D01*
X069009D01*
Y01637D01*
X068989D01*
Y01633D01*
X069009D01*
X053304Y02257D02*
X053344D01*
X053384Y02261D01*
X053424Y02257D01*
X053464D01*
Y02261D01*
X053424Y02265D01*
X053464Y02269D01*
Y02273D01*
X053424D01*
X053384Y02269D01*
X053344Y02273D01*
X053304D01*
Y02269D01*
X053344Y02265D01*
X053304Y02261D01*
Y02257D01*
X053344Y02261D02*
X053364D01*
X053384Y02263D01*
X053404Y02261D01*
X053424D01*
Y02263D01*
X053404Y02265D01*
X053424Y02267D01*
Y02269D01*
X053404D01*
X053384Y02267D01*
X053364Y02269D01*
X053344D01*
Y02267D01*
X053364Y02265D01*
X053344Y02263D01*
Y02261D01*
X050336Y02257D02*
X050376D01*
X050416Y02261D01*
X050456Y02257D01*
X050496D01*
Y02261D01*
X050456Y02265D01*
X050496Y02269D01*
Y02273D01*
X050456D01*
X050416Y02269D01*
X050376Y02273D01*
X050336D01*
Y02269D01*
X050376Y02265D01*
X050336Y02261D01*
Y02257D01*
X050376Y02261D02*
X050396D01*
X050416Y02263D01*
X050436Y02261D01*
X050456D01*
Y02263D01*
X050436Y02265D01*
X050456Y02267D01*
Y02269D01*
X050436D01*
X050416Y02267D01*
X050396Y02269D01*
X050376D01*
Y02267D01*
X050396Y02265D01*
X050376Y02263D01*
Y02261D01*
X06415Y026056D02*
Y026189D01*
X064217Y026255D01*
X064283Y026189D01*
Y026056D01*
Y026155D01*
X06415D01*
Y02015D02*
Y020283D01*
X064217Y02035D01*
X064283Y020283D01*
Y02015D01*
Y02025D01*
X06415D01*
X061Y026056D02*
Y026189D01*
X061067Y026255D01*
X061133Y026189D01*
Y026056D01*
Y026155D01*
X061D01*
Y02015D02*
Y020283D01*
X061067Y02035D01*
X061133Y020283D01*
Y02015D01*
Y02025D01*
X061D01*
X05785Y026056D02*
Y026189D01*
X057917Y026255D01*
X057983Y026189D01*
Y026056D01*
Y026155D01*
X05785D01*
Y02015D02*
Y020283D01*
X057917Y02035D01*
X057983Y020283D01*
Y02015D01*
Y02025D01*
X05785D01*
X05495Y021404D02*
Y021204D01*
X05505D01*
X055083Y021238D01*
Y021271D01*
X05505Y021304D01*
X05495D01*
X05505D01*
X055083Y021338D01*
Y021371D01*
X05505Y021404D01*
X05495D01*
Y02355D02*
Y02335D01*
X05505D01*
X055083Y023383D01*
Y023417D01*
X05505Y02345D01*
X05495D01*
X05505D01*
X055083Y023483D01*
Y023517D01*
X05505Y02355D01*
X05495D01*
Y025696D02*
Y025496D01*
X05505D01*
X055083Y025529D01*
Y025562D01*
X05505Y025596D01*
X05495D01*
X05505D01*
X055083Y025629D01*
Y025662D01*
X05505Y025696D01*
X05495D01*
X054033Y019417D02*
X054Y01945D01*
X053933D01*
X0539Y019417D01*
Y019283D01*
X053933Y01925D01*
X054D01*
X054033Y019283D01*
X055033Y019417D02*
X055Y01945D01*
X054933D01*
X0549Y019417D01*
Y019283D01*
X054933Y01925D01*
X055D01*
X055033Y019283D01*
X053033Y019417D02*
X053Y01945D01*
X052933D01*
X0529Y019417D01*
Y019283D01*
X052933Y01925D01*
X053D01*
X053033Y019283D01*
X0512Y02152D02*
X05124Y02156D01*
X05128D01*
X05124Y0216D01*
X05128Y02164D01*
X05124D01*
X0512Y02168D01*
X05116Y02164D01*
X05112D01*
X05116Y0216D01*
X05112Y02156D01*
X05116D01*
X0512Y02152D01*
X0532D02*
X05324Y02156D01*
X05328D01*
X05324Y0216D01*
X05328Y02164D01*
X05324D01*
X0532Y02168D01*
X05316Y02164D01*
X05312D01*
X05316Y0216D01*
X05312Y02156D01*
X05316D01*
X0532Y02152D01*
X05155Y0285D02*
Y0283D01*
X05165D01*
X051683Y028333D01*
Y028467D01*
X05165Y0285D01*
X05155D01*
Y030468D02*
Y030268D01*
X05165D01*
X051683Y030302D01*
Y030435D01*
X05165Y030468D01*
X05155D01*
X0558Y0285D02*
Y0283D01*
X0559D01*
X055933Y028333D01*
Y028467D01*
X0559Y0285D01*
X0558D01*
Y030468D02*
Y030268D01*
X0559D01*
X055933Y030302D01*
Y030435D01*
X0559Y030468D01*
X0558D01*
X06Y028516D02*
Y028316D01*
X0601D01*
X060133Y028349D01*
Y028482D01*
X0601Y028516D01*
X06D01*
Y030484D02*
Y030284D01*
X0601D01*
X060133Y030318D01*
Y030451D01*
X0601Y030484D01*
X06D01*
X0642Y028516D02*
Y028316D01*
X0643D01*
X064333Y028349D01*
Y028482D01*
X0643Y028516D01*
X0642D01*
Y030484D02*
Y030284D01*
X0643D01*
X064333Y030318D01*
Y030451D01*
X0643Y030484D01*
X0642D01*
X064733Y0148D02*
X0646D01*
Y0146D01*
X064733D01*
X0646Y0147D02*
X064667D01*
X064733Y0188D02*
X0646D01*
Y0186D01*
X064733D01*
X0646Y0187D02*
X064667D01*
X06802Y020701D02*
Y020861D01*
X06818D01*
Y020701D01*
X06802D01*
Y02267D02*
Y02283D01*
X06818D01*
Y02267D01*
X06802D01*
D88*
X06323Y0128D02*
G03*
X06323Y0128I-00008J0D01*
G01*
Y012013D02*
G03*
X06323Y012013I-00008J0D01*
G01*
X06502Y01336D02*
G03*
X06502Y01336I-00008J0D01*
G01*
X0669Y01082D02*
G03*
X0669Y01082I-00008J0D01*
G01*
X06498Y01085D02*
G03*
X06498Y01085I-00008J0D01*
G01*
X06693Y0133D02*
G03*
X06693Y0133I-00008J0D01*
G01*
X06088Y015937D02*
G03*
X06088Y015937I-00008J0D01*
G01*
Y01515D02*
G03*
X06088Y01515I-00008J0D01*
G01*
D89*
X06498Y01336D02*
G03*
X06498Y01336I-00004J0D01*
G01*
X06686Y01082D02*
G03*
X06686Y01082I-00004J0D01*
G01*
X06494Y01085D02*
G03*
X06494Y01085I-00004J0D01*
G01*
X06689Y0133D02*
G03*
X06689Y0133I-00004J0D01*
G01*
M02*
