G04*
G04 #@! TF.GenerationSoftware,Altium Limited,Altium Designer,21.0.8 (223)*
G04*
G04 Layer_Physical_Order=2*
G04 Layer_Color=16711680*
%FSTAX24Y24*%
%MOIN*%
G70*
G04*
G04 #@! TF.SameCoordinates,67FEE026-561A-4E2F-A948-FBB6D6F09F3B*
G04*
G04*
G04 #@! TF.FilePolarity,Positive*
G04*
G01*
G75*
%ADD50C,0.0080*%
%ADD51C,0.0400*%
%ADD52C,0.0827*%
%ADD53R,0.0827X0.0827*%
%ADD54C,0.0476*%
%ADD55R,0.0476X0.0476*%
%ADD56C,0.0660*%
%ADD57R,0.0660X0.0660*%
%ADD58C,0.0650*%
%ADD59C,0.1969*%
%ADD60O,0.1000X0.0650*%
%ADD61R,0.1000X0.0650*%
%ADD62C,0.0495*%
%ADD63C,0.0480*%
%ADD64R,0.0480X0.0480*%
%ADD65C,0.0445*%
%ADD66R,0.0445X0.0445*%
%ADD67C,0.0750*%
%ADD68O,0.0650X0.1000*%
%ADD69R,0.0650X0.1000*%
%ADD70R,0.0650X0.0650*%
%ADD71C,0.0650*%
G04:AMPARAMS|DCode=72|XSize=47.2mil|YSize=86.6mil|CornerRadius=11.8mil|HoleSize=0mil|Usage=FLASHONLY|Rotation=180.000|XOffset=0mil|YOffset=0mil|HoleType=Round|Shape=RoundedRectangle|*
%AMROUNDEDRECTD72*
21,1,0.0472,0.0630,0,0,180.0*
21,1,0.0236,0.0866,0,0,180.0*
1,1,0.0236,-0.0118,0.0315*
1,1,0.0236,0.0118,0.0315*
1,1,0.0236,0.0118,-0.0315*
1,1,0.0236,-0.0118,-0.0315*
%
%ADD72ROUNDEDRECTD72*%
%ADD73O,0.1575X0.0787*%
%ADD74O,0.0787X0.1575*%
%ADD75R,0.0487X0.0487*%
%ADD76C,0.0487*%
%ADD77C,0.0669*%
%ADD78C,0.1039*%
%ADD79R,0.1039X0.1039*%
%ADD80C,0.0394*%
%ADD81R,0.0394X0.0394*%
%ADD82R,0.0472X0.0472*%
%ADD83C,0.0472*%
%ADD84C,0.0850*%
D50*
X06951Y030419D02*
G03*
X068934Y031252I-000891J0D01*
G01*
X067734Y016665D02*
G03*
X067376Y017023I-000358J0D01*
G01*
X067139D02*
G03*
X066781Y016665I0J-000358D01*
G01*
X067449Y015684D02*
G03*
X067734Y016035I-000073J000351D01*
G01*
X069374Y0306D02*
X069491D01*
X069374Y0304D02*
X06951D01*
X069374Y0308D02*
X069424D01*
X069374Y0302D02*
X06951D01*
X069374Y029588D02*
Y030812D01*
X0692Y030986D02*
Y031094D01*
X069186Y031D02*
X069294D01*
X068986Y0312D02*
X069048D01*
X068934Y031252D02*
X069374Y030812D01*
Y0298D02*
X06951D01*
X069374Y0296D02*
X06951D01*
X069374Y03D02*
X06951D01*
X068986Y0292D02*
X06951D01*
X069186Y0294D02*
X06951D01*
X068786Y029D02*
X06951D01*
X067863Y0286D02*
X06951D01*
X068762Y028976D02*
X069374Y029588D01*
X068699Y0282D02*
X06951D01*
X068499Y0284D02*
X06951D01*
X069Y031186D02*
Y031224D01*
X0678Y028663D02*
Y028976D01*
X0676Y028756D02*
Y028976D01*
X0682Y028472D02*
Y028976D01*
X068Y028472D02*
Y028976D01*
X0672Y031086D02*
Y03131D01*
X067Y028756D02*
Y029514D01*
Y030886D02*
Y03131D01*
X0674Y028756D02*
Y029114D01*
X0672Y028756D02*
Y029314D01*
X0684Y028472D02*
Y028976D01*
X067991Y028472D02*
X068427D01*
X067927Y028536D02*
X067991Y028472D01*
X068427D02*
X068753Y028145D01*
X0686Y028299D02*
Y028976D01*
X067538D02*
X068762D01*
X067267Y028756D02*
X067707D01*
X067267D02*
X067707D01*
X067927Y028536D01*
X067707Y028756D02*
X067927Y028536D01*
X0692Y027378D02*
Y029414D01*
X069179Y0274D02*
X06951D01*
X069Y027578D02*
Y029214D01*
X06951Y027069D02*
Y030419D01*
X0694Y027178D02*
Y030848D01*
X068753Y028D02*
X06951D01*
X068779Y0278D02*
X06951D01*
X0688Y027778D02*
Y029014D01*
X068753Y027825D02*
X06951Y027069D01*
X068979Y0276D02*
X06951D01*
X069378Y0272D02*
X06951D01*
X068753Y0254D02*
X06886D01*
X068753Y0256D02*
X06886D01*
Y02417D02*
Y026398D01*
X0688Y02411D02*
Y026458D01*
X068093Y027165D02*
X06886Y026398D01*
X068753Y0262D02*
X06886D01*
X068753Y0264D02*
X068858D01*
X068753Y0258D02*
X06886D01*
X068753Y026D02*
X06886D01*
X068753Y027825D02*
Y028145D01*
X067773Y027165D02*
X068093D01*
X0676Y026503D02*
Y027338D01*
X068Y026503D02*
Y027165D01*
X0678Y026503D02*
Y027165D01*
X067447Y027492D02*
Y027696D01*
Y027492D02*
X067773Y027165D01*
X067267Y027876D02*
X067447Y027696D01*
X0674Y026457D02*
Y027743D01*
X0672Y026457D02*
Y027876D01*
X0684Y026503D02*
Y026858D01*
X0686Y026503D02*
Y026658D01*
X0682Y026503D02*
Y027058D01*
X068753Y025197D02*
Y026503D01*
X067447Y025197D02*
Y025577D01*
Y026457D02*
Y026503D01*
X068753D01*
X067Y021221D02*
Y025577D01*
X0674Y021221D02*
Y025577D01*
X0672Y021221D02*
Y025577D01*
X066Y028756D02*
Y03131D01*
X0662Y028756D02*
Y03131D01*
X0658Y028756D02*
Y03131D01*
X0666Y028756D02*
Y03131D01*
X0664Y028756D02*
Y03131D01*
X065Y028756D02*
Y03131D01*
X0652Y028756D02*
Y03131D01*
X0648Y028756D02*
Y03131D01*
X0656Y028756D02*
Y03131D01*
X0654Y028756D02*
Y03131D01*
X066926Y030812D02*
X067424Y03131D01*
X066926Y029588D02*
X067538Y028976D01*
X066926Y029588D02*
Y030812D01*
X064676Y027876D02*
X067267D01*
X0668Y028756D02*
Y03131D01*
X064676Y0304D02*
X066926D01*
X064676Y0302D02*
X066926D01*
X064599Y0306D02*
X066926D01*
X064676Y028756D02*
X067267D01*
X06463Y03D02*
X066926D01*
X0646Y030599D02*
Y03131D01*
X064438Y03076D02*
X064676Y030522D01*
X0644Y03076D02*
Y03131D01*
X064438Y029808D02*
X064676Y030046D01*
Y030522D01*
X0642Y03076D02*
Y03131D01*
X063962Y03076D02*
X064438D01*
X064D02*
Y03131D01*
X063926Y030724D02*
X063962Y03076D01*
X060274Y030724D02*
X063926D01*
X0642Y028792D02*
Y029808D01*
X0644Y028792D02*
Y029808D01*
X064Y028792D02*
Y029808D01*
X064676Y028756D02*
Y028792D01*
X0646D02*
Y02997D01*
X063926Y029844D02*
X063962Y029808D01*
X064438D01*
X060274Y029844D02*
X063926D01*
X063724Y02784D02*
X064676D01*
X063724Y028792D02*
X064676D01*
X0664Y026457D02*
Y027876D01*
X0666Y026457D02*
Y027876D01*
X0662Y026457D02*
Y027876D01*
X067Y026457D02*
Y027876D01*
X0668Y026457D02*
Y027876D01*
X0656Y026457D02*
Y027876D01*
X064467Y0266D02*
X068658D01*
X0654Y026457D02*
Y027876D01*
X066Y026457D02*
Y027876D01*
X0658Y026457D02*
Y027876D01*
X0662Y021221D02*
Y025577D01*
X0664Y021221D02*
Y025577D01*
X066Y021221D02*
Y025577D01*
X0668Y021221D02*
Y025577D01*
X0666Y021221D02*
Y025577D01*
X064534D02*
X067447D01*
X05829Y0254D02*
X067447D01*
X06461Y026457D02*
X067447D01*
X0658Y021221D02*
Y025577D01*
X0656Y021221D02*
Y025577D01*
X064676Y02784D02*
Y027876D01*
X0648Y026457D02*
Y027876D01*
X0646Y026467D02*
Y02784D01*
X0652Y026457D02*
Y027876D01*
X065Y026457D02*
Y027876D01*
X0642Y02663D02*
Y02784D01*
X063863Y02663D02*
X064437D01*
X064D02*
Y02784D01*
X064437Y02663D02*
X06461Y026457D01*
X0644Y02663D02*
Y02784D01*
X0648Y021221D02*
Y025577D01*
X065Y021221D02*
Y025577D01*
X0646Y021221D02*
Y025577D01*
X0654Y021221D02*
Y025577D01*
X0652Y021221D02*
Y025577D01*
X064437Y025481D02*
X064534Y025577D01*
X063863Y025481D02*
X064437D01*
X0644Y02105D02*
Y025481D01*
X0642Y02085D02*
Y025481D01*
X064Y020725D02*
Y025481D01*
X06881Y02412D02*
X06886Y02417D01*
X06881Y02412D02*
X06886Y02417D01*
X06881Y02412D02*
X06886Y02417D01*
X06881Y01997D02*
Y0228D01*
X068753Y0226D02*
X06881D01*
X068753Y0252D02*
X06886D01*
X068753Y022743D02*
X06881Y0228D01*
X068093Y023403D02*
X06881Y02412D01*
X06873Y0224D02*
X06881D01*
X068753Y022423D02*
Y022743D01*
Y0208D02*
X06881D01*
X068753Y0206D02*
X06881D01*
X068753Y021D02*
X06881D01*
X068753Y0202D02*
X06881D01*
X068753Y0204D02*
X06881D01*
X068753Y0214D02*
X06881D01*
X068753Y0212D02*
X06881D01*
X06853Y0222D02*
X06881D01*
X068753Y020128D02*
Y021435D01*
X067447Y020128D02*
X068753D01*
X0684Y02371D02*
Y025197D01*
X0686Y02391D02*
Y025197D01*
X0682Y02351D02*
Y025197D01*
X068Y023403D02*
Y025197D01*
X0678Y023403D02*
Y025197D01*
X067447Y023077D02*
X067773Y023403D01*
X068093D01*
X0676Y02323D02*
Y025197D01*
X067447Y022423D02*
X067773Y022097D01*
X067447Y022423D02*
Y023077D01*
X068427Y022097D02*
X068753Y022423D01*
X0682Y021435D02*
Y022097D01*
X068Y021435D02*
Y022097D01*
X0686Y021435D02*
Y02227D01*
X0684Y021435D02*
Y022097D01*
X067773D02*
X068427D01*
X067447Y021435D02*
X068753D01*
X0676D02*
Y02227D01*
X0678Y021435D02*
Y022097D01*
X067447Y020128D02*
Y020341D01*
X06947Y01931D02*
X06951Y01935D01*
X06936Y0192D02*
X06951D01*
X06947Y01931D02*
X06951Y01935D01*
X06924Y01908D02*
X06947Y01931D01*
X0694Y01821D02*
Y01924D01*
X06902Y01886D02*
X06924Y01908D01*
X06916Y019D02*
X06951D01*
X06858Y01886D02*
X06902D01*
X06924Y01908D01*
X0692Y01841D02*
Y01904D01*
X06921Y0184D02*
X06951D01*
X06941Y0182D02*
X06951D01*
X069249Y018361D02*
X069469Y018141D01*
Y018D02*
X06951D01*
X069249Y018361D02*
X069469Y018141D01*
X06812Y0188D02*
X06951D01*
X06901Y0186D02*
X06951D01*
X068851Y018758D02*
X069071Y018539D01*
X069249Y018361D01*
X068851Y018758D02*
X069071Y018539D01*
X0688Y01996D02*
Y02279D01*
X0686Y01976D02*
Y020128D01*
X0684Y01974D02*
Y020128D01*
X06858Y01974D02*
X06881Y01997D01*
X0682Y018758D02*
Y01886D01*
X0678Y01974D02*
Y020128D01*
X068Y01974D02*
Y020128D01*
X0676Y01974D02*
Y020128D01*
X0682Y01974D02*
Y020128D01*
X06806Y01886D02*
X068162Y018758D01*
X06858Y01886D02*
X06902D01*
X068411Y018758D02*
X068851D01*
X0686D02*
Y01886D01*
X069Y01861D02*
Y01886D01*
X0688Y018758D02*
Y01886D01*
X06806D02*
X06858D01*
X068162Y018758D02*
X068411D01*
X0684D02*
Y01886D01*
X068411Y018758D02*
X068851D01*
X068162Y017879D02*
X068411D01*
X067447Y025197D02*
X068753D01*
X05829Y025D02*
X06886D01*
X05829Y0252D02*
X067447D01*
X05829Y0246D02*
X06886D01*
X05829Y0248D02*
X06886D01*
X05811Y0244D02*
X06886D01*
X05791Y0242D02*
X06886D01*
X05771Y024D02*
X06869D01*
X05751Y0238D02*
X06849D01*
X05731Y0236D02*
X06829D01*
X067447Y021221D02*
Y021435D01*
X065011Y020341D02*
X067447D01*
X065011Y021221D02*
X067447D01*
X06557Y01974D02*
X06858D01*
X06487Y0202D02*
X067447D01*
X05711Y0234D02*
X06777D01*
X05691Y0232D02*
X06757D01*
X05671Y023D02*
X067447D01*
X064725Y02D02*
X06881D01*
X064662Y0198D02*
X06864D01*
X064725Y020055D02*
X065011Y020341D01*
X0652Y01974D02*
Y020341D01*
X064571Y021221D02*
X065011D01*
X0656Y01974D02*
Y020341D01*
X0654Y01974D02*
Y020341D01*
X064351Y021002D02*
X064571Y021221D01*
X065011D01*
X064351Y021002D02*
X064571Y021221D01*
X064074Y020725D02*
X064351Y021002D01*
X063863Y020725D02*
X064074D01*
X0668Y01974D02*
Y020341D01*
X067Y01974D02*
Y020341D01*
X0664Y01974D02*
Y020341D01*
X0674Y01974D02*
Y020341D01*
X0672Y01974D02*
Y020341D01*
X0658Y01974D02*
Y020341D01*
X06513Y01974D02*
X06557D01*
X064725Y019863D02*
Y020055D01*
X0662Y01974D02*
Y020341D01*
X066Y01974D02*
Y020341D01*
X0666Y01974D02*
Y020341D01*
X06557Y01886D02*
X066455D01*
X06513Y01974D02*
X06557D01*
X0664Y018805D02*
Y01886D01*
X065265Y018555D02*
X06557Y01886D01*
X065Y01961D02*
Y02033D01*
X06491Y01952D02*
X06513Y01974D01*
X064462Y0196D02*
X06499D01*
X06491Y01952D02*
X06513Y01974D01*
X064655Y019265D02*
X06491Y01952D01*
X06623Y018635D02*
X066455Y01886D01*
X06551Y0188D02*
X066395D01*
X06531Y0186D02*
X06623D01*
Y018002D02*
Y018635D01*
X065265Y0184D02*
X06623D01*
X065198Y0182D02*
X06623D01*
X064998Y018D02*
X066232D01*
X065265Y018268D02*
Y018555D01*
X064932Y017935D02*
X065265Y018268D01*
X064268Y017935D02*
X064932D01*
X0648Y01941D02*
Y02013D01*
X064437Y019575D02*
X064725Y019863D01*
X064285Y019575D02*
X064437D01*
X0646Y019265D02*
Y019738D01*
X0644Y019265D02*
Y019575D01*
X0642Y019197D02*
Y01949D01*
X06411Y0194D02*
X06479D01*
X064Y018997D02*
Y01929D01*
X063565Y018855D02*
X064285Y019575D01*
X063935Y018932D02*
X064268Y019265D01*
X064655D01*
X06391Y0192D02*
X064202D01*
X06371Y019D02*
X064002D01*
X063935Y018268D02*
X064268Y017935D01*
X063935Y018268D02*
Y018932D01*
X063565Y0186D02*
X063935D01*
X063565Y0184D02*
X063935D01*
X063565Y0188D02*
X063935D01*
X061865Y018D02*
X064202D01*
X063411Y0182D02*
X064002D01*
X063Y030724D02*
Y03131D01*
X0632Y030724D02*
Y03131D01*
X0628Y030724D02*
Y03131D01*
X0636Y030724D02*
Y03131D01*
X0634Y030724D02*
Y03131D01*
X062Y030724D02*
Y03131D01*
X0622Y030724D02*
Y03131D01*
X0618Y030724D02*
Y03131D01*
X0626Y030724D02*
Y03131D01*
X0624Y030724D02*
Y03131D01*
X0638Y030724D02*
Y03131D01*
Y028792D02*
Y029844D01*
X0626Y028756D02*
Y029844D01*
X063Y028756D02*
Y029844D01*
X0628Y028756D02*
Y029844D01*
X062Y028756D02*
Y029844D01*
X060476Y028756D02*
X063724D01*
X0616D02*
Y029844D01*
X0624Y028756D02*
Y029844D01*
X0622Y028756D02*
Y029844D01*
X061Y030724D02*
Y03131D01*
X0612Y030724D02*
Y03131D01*
X0608Y030724D02*
Y03131D01*
X0616Y030724D02*
Y03131D01*
X0614Y030724D02*
Y03131D01*
X0602Y03076D02*
Y03131D01*
X060238Y03076D02*
X060274Y030724D01*
X06Y03076D02*
Y03131D01*
X0606Y030724D02*
Y03131D01*
X0604Y030724D02*
Y03131D01*
X061Y028756D02*
Y029844D01*
X060476Y028756D02*
Y028792D01*
X0604D02*
Y029844D01*
X0614Y028756D02*
Y029844D01*
X0612Y028756D02*
Y029844D01*
X06022D02*
X060274D01*
X060238Y029808D02*
X060274Y029844D01*
X06022Y030724D02*
X060274D01*
X0602Y028792D02*
Y029808D01*
X06Y028792D02*
Y029808D01*
X0634Y028756D02*
Y029844D01*
X0636Y028756D02*
Y029844D01*
X0632Y028756D02*
Y029844D01*
X063724Y028756D02*
Y028792D01*
X063Y026496D02*
Y027876D01*
X0622Y026496D02*
Y027876D01*
X0624Y026496D02*
Y027876D01*
X062Y026496D02*
Y027876D01*
X0628Y026496D02*
Y027876D01*
X0626Y026496D02*
Y027876D01*
X063724Y02784D02*
Y027876D01*
X0638Y026567D02*
Y02784D01*
X0636Y026496D02*
Y027876D01*
X063728Y025616D02*
X063863Y025481D01*
X063728Y026496D02*
X063863Y02663D01*
X061317Y0266D02*
X063833D01*
X061422Y026496D02*
X063728D01*
X060476Y027876D02*
X063724D01*
X0634Y026496D02*
Y027876D01*
X0632Y026496D02*
Y027876D01*
X0618Y028756D02*
Y029844D01*
X0612Y02663D02*
Y027876D01*
X061Y02663D02*
Y027876D01*
X0616Y026496D02*
Y027876D01*
X0614Y026517D02*
Y027876D01*
X0606Y028756D02*
Y029844D01*
X0608Y028756D02*
Y029844D01*
X060476Y02784D02*
Y027876D01*
X0608Y02663D02*
Y027876D01*
X0606Y026517D02*
Y027876D01*
X060578Y026496D02*
X060713Y02663D01*
X061287D01*
X0604Y026496D02*
Y02784D01*
X0618Y026496D02*
Y027876D01*
X061287Y02663D02*
X061422Y026496D01*
X06D02*
Y02784D01*
X0602Y026496D02*
Y02784D01*
X0598Y02059D02*
Y025616D01*
X0602Y02059D02*
Y025616D01*
X06Y02059D02*
Y025616D01*
X0598Y03076D02*
Y03131D01*
X059762Y03076D02*
X060238D01*
X0594Y030716D02*
Y03131D01*
X059718Y030716D02*
X059762Y03076D01*
X0596Y030716D02*
Y03131D01*
X0586Y030716D02*
Y03131D01*
X0588Y030716D02*
Y03131D01*
X0584Y030716D02*
Y03131D01*
X0592Y030716D02*
Y03131D01*
X059Y030716D02*
Y03131D01*
X059718Y030716D02*
X059772D01*
X059734Y029836D02*
X059772D01*
X059734D02*
X059762Y029808D01*
X060238D01*
X0598Y028792D02*
Y029808D01*
X0596Y028792D02*
Y029836D01*
X059524Y028792D02*
X060476D01*
X0592Y028748D02*
Y029836D01*
X059524Y028748D02*
Y028792D01*
X0594Y028748D02*
Y029836D01*
X0576Y030716D02*
Y03131D01*
X0578Y030716D02*
Y03131D01*
X0574Y030716D02*
Y03131D01*
X0582Y030716D02*
Y03131D01*
X058Y030716D02*
Y03131D01*
X0566Y030716D02*
Y03131D01*
X0568Y030716D02*
Y03131D01*
X0564Y030716D02*
Y03131D01*
X0572Y030716D02*
Y03131D01*
X057Y030716D02*
Y03131D01*
X0576Y028748D02*
Y029836D01*
X0578Y028748D02*
Y029836D01*
X0574Y028748D02*
Y029836D01*
X0582Y028748D02*
Y029836D01*
X058Y028748D02*
Y029836D01*
X0566Y028748D02*
Y029836D01*
X0568Y028748D02*
Y029836D01*
X0564Y028748D02*
Y029836D01*
X0572Y028748D02*
Y029836D01*
X057Y028748D02*
Y029836D01*
X0592Y026496D02*
Y027868D01*
X0594Y026496D02*
Y027868D01*
X059Y026496D02*
Y027868D01*
X0598Y026496D02*
Y02784D01*
X0596Y026496D02*
Y02784D01*
X0588Y028748D02*
Y029836D01*
X059Y028748D02*
Y029836D01*
X0586Y028748D02*
Y029836D01*
X0588Y026496D02*
Y027868D01*
X0586Y026496D02*
Y027868D01*
X059524Y02784D02*
X060476D01*
X0592Y02059D02*
Y025616D01*
X059Y02059D02*
Y025616D01*
X0596Y02059D02*
Y025616D01*
X0594Y02059D02*
Y025616D01*
X058167Y0266D02*
X060683D01*
X058272Y026496D02*
X060578D01*
X0584Y02059D02*
Y025616D01*
X0588Y02059D02*
Y025616D01*
X0586Y02059D02*
Y025616D01*
X0584Y028748D02*
Y029836D01*
X0578Y02663D02*
Y027868D01*
X0576Y02663D02*
Y027868D01*
X058Y02663D02*
Y027868D01*
X0574Y026467D02*
Y027868D01*
X057Y02461D02*
Y027868D01*
X0572Y02481D02*
Y027868D01*
X0568Y02441D02*
Y027868D01*
X0566Y02421D02*
Y027868D01*
X0564Y02401D02*
Y027868D01*
X0582Y026567D02*
Y027868D01*
X058137Y02663D02*
X058272Y026496D01*
X057563Y02663D02*
X058137D01*
X0584Y026496D02*
Y027868D01*
X05829Y02502D02*
Y025616D01*
X057275Y026343D02*
X057563Y02663D01*
X057275Y025768D02*
X05741Y025634D01*
X057275Y025768D02*
Y026343D01*
X05741Y02502D02*
Y025634D01*
X0574Y02501D02*
Y025644D01*
X063Y02059D02*
Y025616D01*
X0632Y02059D02*
Y025616D01*
X0628Y02059D02*
Y025616D01*
X0636Y02059D02*
Y025616D01*
X0634Y02059D02*
Y025616D01*
X061422D02*
X063728D01*
X061406Y0256D02*
X063744D01*
X0622Y02059D02*
Y025616D01*
X0626Y02059D02*
Y025616D01*
X0624Y02059D02*
Y025616D01*
X0638Y020662D02*
Y025544D01*
X063728Y02059D02*
X063863Y020725D01*
X063Y01961D02*
Y01971D01*
X062828Y019438D02*
X0631Y01971D01*
X0628Y01941D02*
Y01971D01*
X061412Y0206D02*
X063738D01*
X061422Y02059D02*
X063728D01*
X06174Y01971D02*
X0631D01*
X06174Y0196D02*
X06299D01*
X06174Y0194D02*
X06279D01*
X061287Y025481D02*
X061422Y025616D01*
X0616Y02059D02*
Y025616D01*
X0614Y020612D02*
Y025594D01*
X062Y02059D02*
Y025616D01*
X0618Y02059D02*
Y025616D01*
X0608Y020725D02*
Y025481D01*
X061Y020725D02*
Y025481D01*
X060578Y025616D02*
X060713Y025481D01*
X0606Y020612D02*
Y025594D01*
X0604Y02059D02*
Y025616D01*
X061287Y020725D02*
X061422Y02059D01*
X06174Y019576D02*
Y01971D01*
X0612Y020725D02*
Y025481D01*
X06174Y019576D02*
Y01971D01*
X060713Y019575D02*
X06086D01*
X060713Y025481D02*
X061287D01*
X060713Y020725D02*
X061287D01*
X060578Y02059D02*
X060713Y020725D01*
X060578Y01971D02*
X060713Y019575D01*
X06Y01934D02*
Y01971D01*
X062608Y019218D02*
X062828Y019438D01*
X062608Y019218D02*
X062828Y019438D01*
X062608Y019092D02*
Y019218D01*
Y019092D02*
Y019218D01*
X0626Y019084D02*
Y01971D01*
X06174Y0192D02*
X062608D01*
X062435Y018919D02*
X062608Y019092D01*
X06174Y019D02*
X062516D01*
X0618Y018572D02*
Y01971D01*
X06174Y018633D02*
Y019576D01*
X063565Y018354D02*
Y018855D01*
X062435Y018354D02*
X062718Y018072D01*
X062435Y018354D02*
Y018919D01*
X063282Y018072D02*
X063565Y018354D01*
X062718Y018072D02*
X063282D01*
X06174Y0188D02*
X062435D01*
X061772Y0186D02*
X062435D01*
X06174Y018633D02*
X061865Y018507D01*
Y0182D02*
X062589D01*
X061865Y0184D02*
X062435D01*
X0606Y01891D02*
Y019688D01*
X060395Y019115D02*
X060615Y018895D01*
X0604Y01911D02*
Y01971D01*
X06086Y01879D02*
Y019575D01*
X0608Y01879D02*
Y019575D01*
X0602Y01931D02*
Y01971D01*
X06031Y0192D02*
X06086D01*
X0598Y01934D02*
Y01971D01*
X06017Y01934D02*
X06039Y01912D01*
X06017Y01934D02*
X06039Y01912D01*
X060615Y01879D02*
Y018895D01*
Y0188D02*
X06086D01*
X060615Y01879D02*
Y018895D01*
X06086Y018633D02*
Y01879D01*
X060615D02*
X06086D01*
X060395Y019115D02*
X060615Y018895D01*
X06051Y019D02*
X06086D01*
X059735Y018068D02*
Y018395D01*
Y017955D02*
Y018068D01*
Y017955D02*
Y018068D01*
X05829Y025616D02*
X060578D01*
X05829Y0256D02*
X060594D01*
X05829Y02458D02*
Y02502D01*
X058272Y02059D02*
X060578D01*
X05829Y02458D02*
Y02502D01*
X05807Y02436D02*
X05829Y02458D01*
X05807Y02436D02*
X05829Y02458D01*
X0582Y020662D02*
Y02449D01*
X058262Y0206D02*
X060588D01*
X058137Y020725D02*
X058272Y02059D01*
X059Y019465D02*
Y01971D01*
X058717Y019465D02*
X059282D01*
X0588D02*
Y01971D01*
X059348Y0194D02*
X06086D01*
X0592Y019465D02*
Y01971D01*
X058272D02*
X060578D01*
X058162Y0196D02*
X060688D01*
X057563Y019575D02*
X058137D01*
X057347Y0194D02*
X058653D01*
X058137Y019575D02*
X058272Y01971D01*
X058Y020725D02*
Y02429D01*
X0578Y020725D02*
Y02409D01*
X0576Y020725D02*
Y02389D01*
X0574Y02059D02*
Y02369D01*
X0572Y02059D02*
Y02349D01*
X05684Y02313D02*
X05807Y02436D01*
X05662Y02291D02*
X05684Y02313D01*
X05662Y02291D02*
X05684Y02313D01*
X057Y02059D02*
Y02329D01*
X0568Y02059D02*
Y02309D01*
X057563Y020725D02*
X058137D01*
X057428Y01971D02*
X057563Y019575D01*
X057428Y02059D02*
X057563Y020725D01*
X0572Y019465D02*
Y01971D01*
X057Y019465D02*
Y01971D01*
X0566Y02059D02*
Y02291D01*
X056718Y019465D02*
X057283D01*
X0564Y02059D02*
Y02291D01*
X0568Y019465D02*
Y01971D01*
X0566Y019347D02*
Y01971D01*
X059408Y01934D02*
X05973D01*
X06017D01*
X0596D02*
Y01971D01*
X05973Y01934D02*
X06017D01*
X059437Y01846D02*
X059565Y018333D01*
X0594Y019347D02*
Y01971D01*
X059282Y019465D02*
X059408Y01934D01*
X0586Y019347D02*
Y01971D01*
X058435Y019182D02*
X058717Y019465D01*
X05796Y0192D02*
X058453D01*
X059735Y018068D02*
Y018395D01*
Y018068D02*
Y018395D01*
Y018455D01*
Y017955D02*
Y018068D01*
Y017955D02*
Y018068D01*
Y018395D02*
Y018455D01*
X059497Y0184D02*
X059735D01*
X059437Y01846D02*
X05973D01*
X059565Y018D02*
X059735D01*
X059565Y0182D02*
X059735D01*
X0578Y019292D02*
Y019575D01*
X058Y01916D02*
Y019575D01*
X0576Y019292D02*
Y019575D01*
X0584Y01876D02*
Y01971D01*
X0582Y01896D02*
Y019638D01*
X057283Y019465D02*
X057455Y019292D01*
X057868D01*
X0574Y019347D02*
Y01971D01*
X056435Y019182D02*
X056718Y019465D01*
X0564Y01909D02*
Y01971D01*
X05816Y019D02*
X058435D01*
X05836Y0188D02*
X058435D01*
X057868Y019292D02*
X058088Y019072D01*
X058435Y018725D02*
Y019182D01*
X058088Y019072D02*
X058435Y018725D01*
X057455Y019292D02*
X057868D01*
X058088Y019072D01*
X056435Y01909D02*
Y019182D01*
X057565Y018D02*
X05784D01*
X057565Y0182D02*
X05764D01*
X069469Y0178D02*
X06951D01*
X069469Y0176D02*
X06951D01*
X069469Y017701D02*
Y018141D01*
X06951Y017213D02*
Y01935D01*
X069469Y017254D02*
Y017701D01*
Y018141D01*
X068411Y017879D02*
X068589Y017701D01*
X068083Y0178D02*
X06849D01*
X068589Y017254D02*
Y017701D01*
X0684Y017065D02*
Y017879D01*
X069469Y0174D02*
X06951D01*
X069469Y017254D02*
X06951Y017213D01*
X068395Y015639D02*
Y017061D01*
X069469Y015446D02*
X06951Y015487D01*
X068395Y015639D02*
X068589Y015446D01*
X068395Y017061D02*
X068589Y017254D01*
X067732Y016D02*
X068395D01*
X067734Y0162D02*
X068395D01*
X067364Y0156D02*
X068435D01*
X067646Y0158D02*
X068395D01*
X067968Y017685D02*
X068162Y017879D01*
X0674Y017022D02*
Y017685D01*
X0672Y017023D02*
Y017685D01*
X0676Y016944D02*
Y017685D01*
X067Y016995D02*
Y017685D01*
X0668Y016779D02*
Y017685D01*
X066547D02*
X067968D01*
X06623Y018002D02*
X066547Y017685D01*
X0666Y016156D02*
Y017685D01*
X0664Y015956D02*
Y017832D01*
X067707Y0168D02*
X068395D01*
X067734Y0166D02*
X068395D01*
X067502Y017D02*
X068395D01*
X067734Y0164D02*
X068395D01*
X067734Y016035D02*
Y016665D01*
X067139Y017023D02*
X067376D01*
X066781Y016337D02*
Y016665D01*
X069469Y0154D02*
X06951D01*
X069469Y0152D02*
X06951D01*
X069469Y014659D02*
Y015099D01*
X06951Y012126D02*
Y015487D01*
X069469Y014659D02*
Y015099D01*
X068589D02*
Y015446D01*
X066964Y0152D02*
X068589D01*
X067164Y0154D02*
X068589D01*
X069469Y015099D02*
Y015446D01*
X068312Y014821D02*
X068589Y015099D01*
X069469Y0142D02*
X06951D01*
X069469Y014D02*
X06951D01*
X069469Y0144D02*
X06951D01*
X069469Y013709D02*
Y014149D01*
Y013709D02*
Y014149D01*
Y015D02*
X06951D01*
X069469Y0148D02*
X06951D01*
X069469Y014659D02*
Y015099D01*
Y0146D02*
X06951D01*
X069469Y014149D02*
Y014659D01*
X068Y014983D02*
Y017717D01*
X0678Y015015D02*
Y017685D01*
X0676Y015015D02*
Y015756D01*
X0684Y01491D02*
Y015635D01*
X0682Y014821D02*
Y017879D01*
X06678Y015015D02*
X067449Y015684D01*
X06678Y015015D02*
X067968D01*
X067D02*
Y015236D01*
X0674Y015015D02*
Y015636D01*
X0672Y015015D02*
Y015436D01*
X068162Y013942D02*
X068312D01*
X068382D01*
X068162Y014821D02*
X068312D01*
Y013942D02*
X068382D01*
X0682Y01376D02*
Y013942D01*
X067983Y015D02*
X06849D01*
X06802Y0138D02*
X06824D01*
X067968Y015015D02*
X068162Y014821D01*
X067465Y013025D02*
X068382Y013942D01*
X067968Y013748D02*
X068162Y013942D01*
X0656Y01571D02*
Y01886D01*
X0662Y015756D02*
Y01886D01*
X0654Y01591D02*
Y01869D01*
X066Y015556D02*
Y01886D01*
X0658Y01551D02*
Y01886D01*
X061865Y0176D02*
X068589D01*
X06174Y0174D02*
X068589D01*
X061865Y0178D02*
X066432D01*
X06174Y0172D02*
X068535D01*
X06174Y017D02*
X067013D01*
X06531Y016D02*
X066444D01*
X06551Y0158D02*
X066244D01*
X06571Y0156D02*
X066044D01*
X065877Y015433D02*
X066781Y016337D01*
X06567Y01564D02*
X065877Y015433D01*
X06174Y0168D02*
X066808D01*
X06174Y0164D02*
X066781D01*
X06174Y0166D02*
X066781D01*
X06511Y0162D02*
X066644D01*
X06514Y01617D02*
X06567Y01564D01*
X0638Y01639D02*
Y01909D01*
X064Y01639D02*
Y018203D01*
X0636Y01639D02*
Y01889D01*
X0652Y01611D02*
Y018203D01*
X0642Y01639D02*
Y018003D01*
X0628Y01639D02*
Y018072D01*
X063Y01639D02*
Y018072D01*
X0626Y01639D02*
Y018189D01*
X0634Y01639D02*
Y018189D01*
X0632Y01639D02*
Y018072D01*
X065Y01631D02*
Y018003D01*
X0648Y01639D02*
Y017935D01*
X0646Y01639D02*
Y017935D01*
X06492Y01639D02*
X06514Y01617D01*
X06492Y01639D02*
X06514Y01617D01*
X06174Y01639D02*
X06448D01*
X06492D01*
X0644D02*
Y017935D01*
X06448Y01639D02*
X06492D01*
X062613Y01551D02*
X06448D01*
X06567Y01564D02*
X065877Y015433D01*
X064268Y015265D02*
X064725D01*
X0644D02*
Y01551D01*
X06448D02*
X064725Y015265D01*
X0646D02*
Y01539D01*
X062723Y0154D02*
X06459D01*
X062923Y0152D02*
X064202D01*
X0642Y015197D02*
Y01551D01*
X063974Y014972D02*
X064268Y015265D01*
X064Y014998D02*
Y01551D01*
X064111Y014092D02*
X064268Y013935D01*
X064592D01*
X0642Y0138D02*
Y014002D01*
X064458Y0138D02*
X064592Y013935D01*
X0644Y0138D02*
Y013935D01*
X063565Y015D02*
X064002D01*
X063565Y014092D02*
X064111D01*
X063565Y014972D02*
X063974D01*
X063565Y014D02*
X064202D01*
X064Y0138D02*
Y014092D01*
X0634Y015028D02*
Y01551D01*
X063095Y015028D02*
X063565D01*
X0632D02*
Y01551D01*
X0638Y014972D02*
Y01551D01*
X0636Y014972D02*
Y01551D01*
X062613D02*
X062753Y01537D01*
X0628Y015323D02*
Y01551D01*
X062613D02*
X062753Y01537D01*
X063095Y015028D01*
X063Y015123D02*
Y01551D01*
X063565Y013899D02*
Y014092D01*
X0636Y0138D02*
Y014092D01*
X063565Y014972D02*
Y015028D01*
X0638Y0138D02*
Y014092D01*
X0634Y01369D02*
Y013899D01*
X0632Y01349D02*
Y013899D01*
X062435D02*
X063565D01*
X063Y01329D02*
Y013899D01*
X0628Y01324D02*
Y013899D01*
X0626Y01324D02*
Y013899D01*
X069469Y0138D02*
X06951D01*
X06936Y0136D02*
X06951D01*
X069249Y013489D02*
X069469Y013709D01*
X069249Y013489D02*
X069469Y013709D01*
X0692Y012436D02*
Y01344D01*
X068Y01356D02*
Y01378D01*
X067465Y0136D02*
X06804D01*
X067325Y013748D02*
X067968D01*
X06916Y0134D02*
X06951D01*
X068234Y012474D02*
X069249Y013489D01*
X06896Y0132D02*
X06951D01*
X06876Y013D02*
X06951D01*
X0688Y012474D02*
Y01304D01*
X069236Y0124D02*
X06951D01*
X069Y012474D02*
Y01324D01*
X06856Y0128D02*
X06951D01*
X06836Y0126D02*
X06951D01*
X068234Y012474D02*
X069162D01*
X0686D02*
Y01284D01*
X0684Y012474D02*
Y01264D01*
X0678Y01336D02*
Y013748D01*
X067465Y0134D02*
X06784D01*
X067465Y0132D02*
X06764D01*
X0676Y01316D02*
Y013748D01*
X067465Y013025D02*
Y013607D01*
X0674Y013672D02*
Y013748D01*
X067325D02*
X067465Y013607D01*
X06578Y01346D02*
X066093Y013147D01*
X066Y01294D02*
Y01324D01*
X0658Y01294D02*
Y01344D01*
X067465Y012993D02*
Y013025D01*
X06738Y01294D02*
X067465Y013025D01*
X066235Y012993D02*
X066287Y01294D01*
X067413D02*
X067465Y012993D01*
X06738Y01294D02*
X067413D01*
X066093Y013147D02*
X066235Y013005D01*
X066093Y013147D02*
X066235Y013005D01*
X0662Y01294D02*
Y01304D01*
X066235Y013005D02*
X0663Y01294D01*
X066235Y013005D02*
X0663Y01294D01*
X069162Y012474D02*
X06951Y012126D01*
X069436Y0122D02*
X06951D01*
X0694Y012236D02*
Y01364D01*
X06738Y01206D02*
X067524D01*
X0674Y011936D02*
Y01206D01*
X06738D02*
X067524D01*
X06641Y012D02*
X067464D01*
X06635Y01206D02*
X06738D01*
X067326Y011862D02*
X067524Y01206D01*
X067326Y011237D02*
Y011862D01*
X067323Y0104D02*
X067564D01*
X067213Y01029D02*
X067674D01*
X0674D02*
Y010477D01*
X067435Y010529D02*
X067674Y01029D01*
X0676D02*
Y010364D01*
X066795Y0116D02*
X067326D01*
X067162Y0114D02*
X067326D01*
X06661Y0118D02*
X067326D01*
X067213Y01029D02*
X067435Y010512D01*
X067127Y011435D02*
X067326Y011237D01*
X0668Y011595D02*
Y01206D01*
X066627Y011767D02*
X06696Y011435D01*
X0666Y01181D02*
Y01206D01*
X0672Y011363D02*
Y01206D01*
X067Y011435D02*
Y01206D01*
X06635D02*
X066407Y012003D01*
X066627Y011783D01*
X0664Y01201D02*
Y01206D01*
X066407Y011987D02*
X066627Y011767D01*
X066407Y012003D02*
X066627Y011783D01*
X06696Y011435D02*
X067127D01*
X066205Y010512D02*
Y01087D01*
X066Y01029D02*
Y011075D01*
X066205Y010512D02*
X066427Y01029D01*
X0662D02*
Y010875D01*
X065747Y011327D02*
X065967Y011107D01*
X065747Y011327D02*
X065967Y011107D01*
X065747Y011343D02*
X065967Y011123D01*
Y011107D02*
X066205Y01087D01*
X0658Y01029D02*
Y011275D01*
X06567Y013525D02*
X065693Y013547D01*
X06578Y01346D01*
X06567Y013525D02*
X065693Y013547D01*
X06578Y01346D01*
X0656Y01294D02*
Y013455D01*
X06351Y0138D02*
X06395D01*
X06351D02*
X064458D01*
X06351D02*
X06395D01*
X065555Y01341D02*
X06567Y013525D01*
X06395Y0138D02*
X064458D01*
X065555Y0134D02*
X06584D01*
X065555Y0132D02*
X06604D01*
X065555Y013053D02*
Y01341D01*
X065443Y01294D02*
X066287D01*
X065503Y013D02*
X066235D01*
X065443Y01294D02*
X065555Y013053D01*
X063857Y01206D02*
X064D01*
X063797Y012D02*
X06394D01*
X063628Y011688D02*
X064Y01206D01*
X063628Y01183D02*
X063857Y01206D01*
X06329Y01358D02*
X06351Y0138D01*
X06329Y01358D02*
X06351Y0138D01*
X062911Y013278D02*
X062988D01*
X06329Y01358D01*
X06295Y01324D02*
X062988Y013278D01*
X061997Y0138D02*
X06351D01*
X062115Y0136D02*
X06331D01*
X062278Y0134D02*
X06311D01*
X062873Y01324D02*
X062911Y013278D01*
X062438Y01324D02*
X062873D01*
X0638Y01186D02*
Y012003D01*
X063628Y0118D02*
X06374D01*
X062873Y01324D02*
X06293D01*
X063628Y011688D02*
Y01183D01*
X063332Y011535D02*
X063475D01*
X062672Y012195D02*
Y01236D01*
X060992Y0122D02*
X062672D01*
X062438Y01236D02*
X062672D01*
X062317Y01184D02*
X062672Y012195D01*
X0626Y012123D02*
Y01236D01*
X065472Y0112D02*
X065875D01*
X065515Y011D02*
X066075D01*
X06563Y01146D02*
X065747Y011343D01*
X0656Y01029D02*
Y01146D01*
X065515Y010543D02*
Y011157D01*
X065212Y01146D02*
X06563D01*
X065272Y0114D02*
X06569D01*
X0654Y011272D02*
Y01146D01*
X065212D02*
X065515Y011157D01*
X06406Y0108D02*
X064285D01*
X065515Y0106D02*
X066205D01*
X065373Y0104D02*
X066318D01*
X065515Y0108D02*
X066205D01*
X065262Y01029D02*
X066427D01*
X0654D02*
Y010428D01*
X064285Y010543D02*
X064538Y01029D01*
X06355D02*
X064538D01*
X06366Y0104D02*
X064427D01*
X065262Y01029D02*
X065515Y010543D01*
X0644Y01029D02*
Y010428D01*
X0634Y01146D02*
Y011535D01*
X063197Y0114D02*
X06334D01*
X0632Y01126D02*
Y011403D01*
X06359Y01033D02*
X064285Y011025D01*
X063Y01106D02*
Y011203D01*
X062977Y01118D02*
X063332Y011535D01*
X062997Y0112D02*
X06314D01*
X062787Y01099D02*
X062977Y01118D01*
X06293Y01099D02*
X063475Y011535D01*
X062787Y01099D02*
X062977Y01118D01*
X064285Y010543D02*
Y011025D01*
X06386Y0106D02*
X064285D01*
X0638Y01029D02*
Y01054D01*
X0642Y01029D02*
Y01094D01*
X064Y01029D02*
Y01074D01*
X062797Y011D02*
X06294D01*
X06355Y01029D02*
X06359Y01033D01*
X062787Y01099D02*
X06293D01*
X0636Y01029D02*
Y01034D01*
X06355Y01029D02*
X06359Y01033D01*
X062Y01639D02*
Y01971D01*
X061865Y017593D02*
Y018507D01*
X0618Y01639D02*
Y017528D01*
X0624Y01639D02*
Y01971D01*
X0622Y01639D02*
Y01971D01*
X06174Y017467D02*
X061865Y017593D01*
X06174Y016678D02*
Y017467D01*
X06086Y01731D02*
Y017467D01*
X0608Y016618D02*
Y01731D01*
X0606Y016418D02*
Y01731D01*
X06086Y016678D02*
Y01731D01*
X060597Y016415D02*
X06086Y016678D01*
X060561Y016415D02*
X060597D01*
X06174Y01639D02*
Y016678D01*
Y01639D02*
Y016678D01*
X05944Y0172D02*
X06086D01*
X05944Y017D02*
X06086D01*
X059735Y01731D02*
X06086D01*
X059376Y0168D02*
X06086D01*
X060546Y0164D02*
X060582D01*
X059735Y017628D02*
Y017955D01*
Y017628D02*
Y017955D01*
X059565Y0178D02*
X059735D01*
X0604Y016254D02*
Y01731D01*
X059735D02*
Y017628D01*
X05944Y017643D02*
X059565Y017767D01*
X05944Y0176D02*
X059735D01*
X059565Y017767D02*
Y018333D01*
X05944Y0174D02*
X059735D01*
X05944Y017304D02*
Y017643D01*
X0604Y016218D02*
Y016254D01*
X060346Y0162D02*
X060382D01*
X059502D02*
X060346D01*
X06036Y016178D02*
X06058Y016398D01*
X06036Y016178D02*
X06058Y016398D01*
X05944Y016864D02*
Y017304D01*
X05922Y016644D02*
X05944Y016864D01*
Y017304D01*
X059302Y0164D02*
X060546D01*
X0594Y016302D02*
Y016824D01*
X060393Y015628D02*
X060431Y01559D01*
X0604D02*
Y015621D01*
X060322Y01471D02*
X06036D01*
Y014672D02*
Y01471D01*
X060322Y014672D02*
Y01471D01*
Y016176D02*
X060561Y016415D01*
X060322Y015628D02*
X060393D01*
X060322Y015698D02*
X060393Y015628D01*
X060322Y01559D02*
X060431D01*
X060322Y0156D02*
X060421D01*
X0616Y013965D02*
Y01471D01*
X062093D02*
X062435Y014368D01*
X0614Y013965D02*
Y01471D01*
X062Y013798D02*
Y01471D01*
X0618Y013965D02*
Y01471D01*
X06124D02*
X061278D01*
X062093D01*
X060322Y014672D02*
X06036D01*
X061278D02*
Y01471D01*
X06124Y014672D02*
Y01471D01*
X060102Y0156D02*
X060322D01*
X060112Y01559D02*
X060322D01*
Y015698D02*
Y016176D01*
Y01559D02*
Y015628D01*
X0602Y01559D02*
Y01731D01*
X0598Y015902D02*
Y01731D01*
X059702Y016D02*
X060322D01*
X0596Y016102D02*
Y01846D01*
X059902Y0158D02*
X060322D01*
X06Y015702D02*
Y01731D01*
X059672Y01471D02*
X060112D01*
X060322D01*
X0598Y013965D02*
Y01471D01*
X0602Y013848D02*
Y01471D01*
X06Y013898D02*
Y01471D01*
X059452Y01493D02*
X059672Y01471D01*
X060112D01*
X059452Y01493D02*
X059672Y01471D01*
X0596Y013965D02*
Y014782D01*
X0594Y013965D02*
Y014982D01*
X05823Y01761D02*
X05856D01*
Y017304D02*
Y01761D01*
X05823D02*
X05856D01*
X0584Y017144D02*
Y01761D01*
X0582Y016989D02*
Y01764D01*
X05801Y01783D02*
X05823Y01761D01*
X05801Y01783D02*
X05823Y01761D01*
X057565Y0178D02*
X05804D01*
X056467Y0174D02*
X05856D01*
X057397Y0176D02*
X05856D01*
X05922Y016644D02*
X05944Y016864D01*
X059176Y0166D02*
X060782D01*
X058294Y017038D02*
X05856Y017304D01*
X059139Y016563D02*
X05922Y016644D01*
X0592Y016502D02*
Y016624D01*
X056667Y0172D02*
X058456D01*
X058272Y017016D02*
X058294Y017038D01*
X058248D02*
X058294D01*
X058004Y016794D02*
X058248Y017038D01*
X057789Y017D02*
X058211D01*
X057565Y017767D02*
Y018275D01*
X05801Y01783D01*
X0574Y017038D02*
Y017602D01*
X0578Y016989D02*
Y01804D01*
X0576Y017038D02*
Y01824D01*
X057283Y017485D02*
X057565Y017767D01*
X056592Y01761D02*
X056718Y017485D01*
X0564Y017467D02*
Y01761D01*
X0568Y017067D02*
Y017485D01*
X0566Y017267D02*
Y017602D01*
X057264Y017038D02*
X057752D01*
X057996Y016794D01*
X057235Y017008D02*
X05727D01*
X058004Y016306D02*
Y016794D01*
X057996Y016306D02*
Y016794D01*
X056718Y017485D02*
X057283D01*
X056859Y017008D02*
X057235D01*
X057D02*
Y017485D01*
X057235Y017008D02*
X057264Y017038D01*
X0572Y017008D02*
Y017485D01*
X059139Y016563D02*
X060112Y01559D01*
X058272Y01611D02*
X05832Y016062D01*
X058248D02*
X05832D01*
X059452Y01493D01*
X0582Y013848D02*
Y016111D01*
X058004Y016306D02*
X058248Y016062D01*
X057889Y0162D02*
X058111D01*
X057752Y016062D02*
X057996Y016306D01*
X058Y013965D02*
Y01784D01*
X0578Y013965D02*
Y016111D01*
X0586Y013965D02*
Y015782D01*
X0588Y013965D02*
Y015582D01*
X0584Y013947D02*
Y015982D01*
X0592Y013798D02*
Y015182D01*
X059Y013947D02*
Y015382D01*
X057076Y0154D02*
X058982D01*
X05714Y0152D02*
X059182D01*
X056876Y0156D02*
X058782D01*
X05714Y0148D02*
X059582D01*
X05714Y015D02*
X059382D01*
X056859Y016128D02*
X057198D01*
X057264Y016062D01*
X0568Y015676D02*
Y016128D01*
X0572Y01279D02*
Y016126D01*
X057Y015476D02*
Y016128D01*
X056419D02*
X056859D01*
X056419D02*
X056859D01*
X056325Y016119D02*
Y016221D01*
X0566Y01579D02*
Y016128D01*
X0564Y01579D02*
Y016147D01*
X0576Y013965D02*
Y016062D01*
X057264D02*
X057752D01*
X05714Y014896D02*
Y015336D01*
X0574Y013848D02*
Y016062D01*
X05714Y012838D02*
Y014896D01*
X056686Y01579D02*
X056906Y01557D01*
X05692Y015556D02*
X05714Y015336D01*
X056686Y01579D02*
X056906Y01557D01*
X05714Y014896D02*
Y015336D01*
X05692Y015556D02*
X05714Y015336D01*
X062435Y013899D02*
Y014368D01*
X06124Y014D02*
X062435D01*
X06124Y013937D02*
X061267Y013965D01*
X0624Y013278D02*
Y014403D01*
X0622Y013478D02*
Y014603D01*
X06124Y0146D02*
X062203D01*
X06124Y0144D02*
X062403D01*
X06124Y014672D02*
X061278D01*
X06124Y0142D02*
X062435D01*
X06124Y013937D02*
Y014672D01*
X062115Y013563D02*
Y013683D01*
Y013563D02*
X062438Y01324D01*
X061832Y013965D02*
X062115Y013683D01*
X061523Y012835D02*
X061778Y01258D01*
X061267Y012835D02*
X061523D01*
X061267Y013965D02*
X061832D01*
X061075Y013027D02*
X061267Y012835D01*
X06124Y013888D02*
Y013937D01*
X060676Y0126D02*
X061758D01*
X06011Y0128D02*
X061558D01*
X06036Y013965D02*
Y014672D01*
X060318Y013965D02*
X06036D01*
X060125Y013772D02*
X060318Y013965D01*
X060883Y012835D02*
X061075Y013027D01*
X060125D02*
X060318Y012835D01*
X059932Y013965D02*
X060125Y013772D01*
X060097Y0138D02*
X060153D01*
X059367Y013965D02*
X059932D01*
X060097Y013D02*
X060153D01*
X06009Y012993D02*
X060125Y013027D01*
X061048Y013D02*
X061102D01*
X060318Y012835D02*
X060883D01*
X0604Y01269D02*
Y012835D01*
X060586Y01269D02*
X060772Y012504D01*
X0606Y012676D02*
Y012835D01*
X0602Y01271D02*
Y012953D01*
X06009Y01282D02*
X06022Y01269D01*
X06009Y01282D02*
Y012993D01*
X06022Y01269D02*
X060586D01*
X06022D02*
X060586D01*
X061778Y01258D02*
X061998Y01236D01*
X061778Y01258D02*
X061998Y01236D01*
X0616Y011965D02*
Y012758D01*
X062Y01184D02*
Y01236D01*
X0618Y011965D02*
Y012558D01*
X0614Y011965D02*
Y012835D01*
X060876Y0124D02*
X061958D01*
X060806Y01247D02*
X060992Y012284D01*
X0612Y011897D02*
Y012902D01*
X061Y011847D02*
Y012953D01*
X061998Y01236D02*
X062438D01*
X061998D02*
X062438D01*
X0624Y011923D02*
Y01236D01*
X061958Y01184D02*
X062317D01*
X0622D02*
Y01236D01*
X060992Y012D02*
X062477D01*
X061267Y011965D02*
X061832D01*
X061007Y01184D02*
X061143D01*
X061832Y011965D02*
X061958Y01184D01*
X061143D02*
X061267Y011965D01*
X060772Y012504D02*
X060806Y01247D01*
X060992Y012284D01*
X0608Y012476D02*
Y012835D01*
X060992Y011855D02*
Y012284D01*
Y011855D02*
Y012284D01*
X060772Y012504D02*
X060806Y01247D01*
X060772Y012504D02*
X060806Y01247D01*
X060586Y01269D02*
X060772Y012504D01*
X0594Y011965D02*
Y01219D01*
X05921Y01238D02*
Y01282D01*
X060087Y01099D02*
X060125Y011027D01*
X060097Y011D02*
X060153D01*
X060087Y01181D02*
X060112Y011785D01*
X060125Y011027D02*
X060163Y01099D01*
X060087D02*
X060163D01*
X05956Y01203D02*
X059625Y011965D01*
X059367D02*
X059625D01*
X05943Y01216D02*
X05956Y01203D01*
X059625Y011965D01*
X059243Y01184D02*
X059367Y011965D01*
X058983Y013965D02*
X059175Y013772D01*
X059148Y0138D02*
X059202D01*
X058418Y013965D02*
X058983D01*
X059175Y013772D02*
X059367Y013965D01*
X058983Y012835D02*
X059175Y013027D01*
X05714Y0144D02*
X06036D01*
X05714Y0142D02*
X06036D01*
X05714Y0146D02*
X06036D01*
X05714Y014D02*
X06036D01*
X058292Y01384D02*
X058418Y013965D01*
X059175Y013027D02*
X05921Y012993D01*
X059148Y013D02*
X059202D01*
X058418Y012835D02*
X058983D01*
X05921Y01282D02*
Y012993D01*
X0584Y01279D02*
Y012852D01*
X058292Y01296D02*
X058418Y012835D01*
X05714Y0128D02*
X05921D01*
X058208Y01296D02*
X058292D01*
X05818Y01279D02*
X05862D01*
X05818D02*
X05862D01*
X058082Y013965D02*
X058208Y01384D01*
X058292D01*
X057517Y013965D02*
X058082D01*
X057235Y013118D02*
X057517Y012835D01*
X057235Y013118D02*
Y013683D01*
X057517Y013965D01*
X05714Y0138D02*
X057352D01*
X05714Y0136D02*
X057235D01*
X05714Y0132D02*
X057235D01*
X05714Y0134D02*
X057235D01*
X058082Y012835D02*
X058208Y01296D01*
X057517Y012835D02*
X058082D01*
X0576Y01279D02*
Y012835D01*
X058Y01279D02*
Y012835D01*
X0578Y01279D02*
Y012835D01*
X05714Y013D02*
X057352D01*
X05714Y01279D02*
Y012838D01*
Y01279D02*
Y012838D01*
Y01279D02*
X05818D01*
X0574D02*
Y012953D01*
X059Y01241D02*
Y012852D01*
X05884Y012538D02*
X058872D01*
X05884Y01257D02*
X058872Y012538D01*
X05921Y01238D02*
Y01282D01*
X0592Y01184D02*
Y013003D01*
X05862Y01279D02*
X05884Y01257D01*
X05881Y0126D02*
X05921D01*
X0588Y01261D02*
Y012835D01*
X05884Y012538D02*
Y01257D01*
X05862Y01279D02*
X05884Y01257D01*
X05921Y01238D02*
X05943Y01216D01*
X05921Y01238D02*
X05943Y01216D01*
X059092Y0122D02*
X05939D01*
X059092Y012D02*
X05959D01*
X059107Y01184D02*
X059243D01*
X058872Y012538D02*
X059092Y012318D01*
X05901Y0124D02*
X05921D01*
X058872Y012538D02*
X059092Y012318D01*
Y011878D02*
Y012318D01*
Y011878D02*
Y012318D01*
X0586Y01279D02*
Y012835D01*
X05818Y01191D02*
X058212Y011878D01*
X0582Y01279D02*
Y012953D01*
X058212Y011878D02*
Y01191D01*
X0582Y011847D02*
Y01189D01*
X056356Y011996D02*
X056462D01*
X058137Y01191D02*
X05818D01*
X056356Y012004D02*
X056453D01*
X058137Y01191D02*
X058212Y011835D01*
X05818Y01191D02*
X058212D01*
Y011835D02*
Y011878D01*
X056891Y011068D02*
X057285D01*
X057Y01099D02*
Y011068D01*
X057285D02*
X057362Y01099D01*
X0572D02*
Y011068D01*
X056844Y01102D02*
X056891Y011068D01*
X056356Y01102D02*
X056844D01*
X0564Y01099D02*
Y01102D01*
X0568Y01099D02*
Y01102D01*
X0566Y01099D02*
Y01102D01*
X0562Y030716D02*
Y03131D01*
X056066Y030716D02*
X059718D01*
X056038Y030745D02*
X056066Y030716D01*
X056038Y029792D02*
X056082Y029836D01*
X056028D02*
X056082D01*
X0558Y030745D02*
Y03131D01*
X055562Y030745D02*
X056038D01*
X0556D02*
Y03131D01*
X056028Y030716D02*
X056066D01*
X056Y030745D02*
Y03131D01*
X056082Y029836D02*
X059734D01*
X056046Y0298D02*
X066926D01*
X056Y028776D02*
Y029792D01*
X056276Y028748D02*
X059524D01*
X0562Y028776D02*
Y029836D01*
X055562Y029792D02*
X056038D01*
X055324Y028776D02*
X056276D01*
X055526Y029829D02*
X05558D01*
X0558Y028776D02*
Y029792D01*
X0556Y028776D02*
Y029792D01*
X055Y030708D02*
Y03131D01*
X0552Y030708D02*
Y03131D01*
X0548Y030708D02*
Y03131D01*
X055526Y030708D02*
X055562Y030745D01*
X0554Y030708D02*
Y03131D01*
X054Y030708D02*
Y03131D01*
X0542Y030708D02*
Y03131D01*
X0538Y030708D02*
Y03131D01*
X0546Y030708D02*
Y03131D01*
X0544Y030708D02*
Y03131D01*
X055526Y030708D02*
X05558D01*
X055526Y029829D02*
X055562Y029792D01*
X0554Y028776D02*
Y029829D01*
X055324Y02874D02*
Y028776D01*
X0552Y02874D02*
Y029829D01*
X0544Y02874D02*
Y029829D01*
X0546Y02874D02*
Y029829D01*
X0538Y02874D02*
Y029829D01*
X055Y02874D02*
Y029829D01*
X0548Y02874D02*
Y029829D01*
X056276Y027824D02*
Y027868D01*
X059524D01*
X0562Y02381D02*
Y027824D01*
X056Y02379D02*
Y027824D01*
X0558Y02379D02*
Y027824D01*
X055324D02*
X056276D01*
X05571Y0262D02*
X057275D01*
X05419Y026255D02*
X05571D01*
Y026D02*
X057275D01*
X05571Y024736D02*
Y026255D01*
Y0254D02*
X05741D01*
X05571Y0252D02*
X05741D01*
X05571Y025D02*
X05739D01*
X05618Y02379D02*
X05741Y02502D01*
X05571Y0248D02*
X05719D01*
X05571Y0258D02*
X057275D01*
X05571Y0256D02*
X05741D01*
X05485Y024736D02*
X05571D01*
X054714Y0246D02*
X05699D01*
X0556Y02384D02*
Y024736D01*
X0546Y026255D02*
Y02786D01*
X0548Y026255D02*
Y02786D01*
X0544Y026255D02*
Y02786D01*
X0552Y026255D02*
Y02786D01*
X055Y026255D02*
Y02786D01*
X0542Y02874D02*
Y029829D01*
Y026255D02*
Y02786D01*
X054Y02874D02*
Y029829D01*
Y025206D02*
Y02786D01*
X0538Y025006D02*
Y02786D01*
X0554Y026255D02*
Y027824D01*
X0556Y026255D02*
Y027824D01*
X055324D02*
Y02786D01*
X0554Y02404D02*
Y024736D01*
X0552Y02411D02*
Y024736D01*
X05398Y025186D02*
X05419Y025396D01*
X05464Y024526D02*
X05485Y024736D01*
X05419Y025396D02*
Y026255D01*
X055Y02411D02*
Y024736D01*
X0548Y02411D02*
Y024686D01*
X051838Y029829D02*
X055526D01*
X05181Y0298D02*
X055554D01*
X051824Y030708D02*
X055526D01*
X05141Y0294D02*
X067114D01*
X05161Y0296D02*
X066926D01*
X048876Y03131D02*
X067424D01*
X048986Y0312D02*
X067314D01*
X049186Y031D02*
X067114D01*
X05121Y0292D02*
X067314D01*
X049324Y0308D02*
X066926D01*
X05101Y029D02*
X067514D01*
X05081Y0288D02*
X06951D01*
X04981Y0278D02*
X067343D01*
X04964Y0266D02*
X057533D01*
X04964Y0264D02*
X057333D01*
X04941Y0274D02*
X067538D01*
X04934Y0272D02*
X067738D01*
X04961Y0276D02*
X067447D01*
X04964Y0268D02*
X068458D01*
X049523Y027D02*
X068259D01*
X053Y030708D02*
Y03131D01*
X0532Y030708D02*
Y03131D01*
X0528Y030708D02*
Y03131D01*
X0536Y030708D02*
Y03131D01*
X0534Y030708D02*
Y03131D01*
X0524Y030708D02*
Y03131D01*
X0526Y030708D02*
Y03131D01*
X0522Y030708D02*
Y03131D01*
X0524Y02874D02*
Y029829D01*
X0522Y02874D02*
Y029829D01*
X0532Y02874D02*
Y029829D01*
X0534Y02874D02*
Y029829D01*
X053Y02874D02*
Y029829D01*
X0536Y02874D02*
Y029829D01*
X052917Y026365D02*
X053482D01*
X0526Y02874D02*
Y029829D01*
X052026Y02874D02*
X055324D01*
X051074Y028776D02*
X052026D01*
Y02786D02*
X055324D01*
X0528Y02874D02*
Y029829D01*
X053647Y0262D02*
X05419D01*
X053765Y026D02*
X05419D01*
X0536Y026247D02*
Y02786D01*
X053765Y0258D02*
X05419D01*
X053765Y025517D02*
Y026082D01*
X0532Y026365D02*
Y02786D01*
X0534Y026365D02*
Y02786D01*
X053Y026365D02*
Y02786D01*
X053482Y026365D02*
X053765Y026082D01*
X052635D02*
X052917Y026365D01*
X053765Y0256D02*
X05419D01*
X053765Y024971D02*
X05398Y025186D01*
X053765Y024971D02*
X05398Y025186D01*
X053765Y024971D02*
Y025032D01*
X05376Y024462D02*
Y024526D01*
X053647Y0254D02*
X05419D01*
X05364Y0252D02*
X053994D01*
X05364Y025392D02*
X053765Y025517D01*
X05364Y025157D02*
X053765Y025032D01*
X05364Y025157D02*
Y025392D01*
X0528Y026247D02*
Y02786D01*
X052635Y025517D02*
X05276Y025392D01*
X052635Y025517D02*
Y026082D01*
X0526Y025142D02*
Y02786D01*
X0524Y025142D02*
Y02786D01*
X051648Y0262D02*
X052752D01*
X051765Y0258D02*
X052635D01*
X051765Y026D02*
X052635D01*
X051765Y0256D02*
X052635D01*
X0522Y025028D02*
Y02786D01*
X05276Y025157D02*
Y025392D01*
X052314Y025142D02*
X052745D01*
X052314D02*
X052745D01*
X052094Y024922D02*
X052314Y025142D01*
X052094Y024922D02*
X052314Y025142D01*
X051648Y0254D02*
X052752D01*
X051597Y0252D02*
X05276D01*
X051765Y025D02*
X052172D01*
X05186Y024688D02*
X05208Y024908D01*
X05186Y024688D02*
X05208Y024908D01*
X05564Y0238D02*
X05619D01*
X05565Y02291D02*
X05618D01*
X05565Y02379D02*
X05618D01*
Y02291D02*
X05662D01*
X05618D02*
X05662D01*
X05464Y0244D02*
X05679D01*
X05464Y0242D02*
X05659D01*
X05544Y024D02*
X05639D01*
X05533Y02259D02*
X05565Y02291D01*
X05533Y02411D02*
X05565Y02379D01*
X05554Y0228D02*
X067447D01*
X055494Y0218D02*
X06881D01*
X0554Y021894D02*
Y02266D01*
X055694Y0216D02*
X06881D01*
X0556Y021694D02*
Y02286D01*
X05534Y0226D02*
X067447D01*
X053867Y0224D02*
X06747D01*
X05457Y02259D02*
X05533D01*
X053867Y0222D02*
X06767D01*
X05457Y021964D02*
X05533D01*
X05464Y02411D02*
Y02437D01*
Y02411D02*
Y02437D01*
Y024526D01*
Y02411D02*
X05533D01*
X05419Y02297D02*
Y02348D01*
X054068Y023358D02*
X05419Y02348D01*
X054068Y023358D02*
X05419Y02348D01*
X05411Y0234D02*
X05419D01*
X053867Y022166D02*
Y023134D01*
X0538D02*
Y023358D01*
X0548Y021964D02*
Y02259D01*
X055Y021964D02*
Y02259D01*
X0546Y021964D02*
Y02259D01*
X0552Y021964D02*
Y02259D01*
X0544Y021794D02*
Y02276D01*
X053867Y0228D02*
X05436D01*
X053867Y0226D02*
X05456D01*
X053867Y023D02*
X05419D01*
Y02297D02*
X05457Y02259D01*
X0542Y021594D02*
Y02296D01*
X05571Y0212D02*
X06455D01*
X05571Y021D02*
X06435D01*
X0558Y02059D02*
Y02291D01*
X0562Y02059D02*
Y02291D01*
X056Y02059D02*
Y02291D01*
X05571Y020824D02*
Y021584D01*
Y0214D02*
X067447D01*
X05533Y021964D02*
X05571Y021584D01*
X055685Y0208D02*
X06415D01*
X05534Y020455D02*
X05571Y020824D01*
X05602Y02059D02*
X057428D01*
X05602Y01971D02*
X057428D01*
X0556Y02059D02*
Y020715D01*
X05591Y0196D02*
X057538D01*
X05571Y0194D02*
X056652D01*
X055485Y0206D02*
X057438D01*
X05558Y02059D02*
X05602D01*
X05558D02*
X05602D01*
X05536Y02037D02*
X05558Y02059D01*
X05536Y02037D02*
X05558Y02059D01*
X0554Y02041D02*
Y020515D01*
X05534Y02035D02*
Y020455D01*
X05419Y020824D02*
X05446Y020555D01*
Y01947D02*
Y020555D01*
X0542Y02016D02*
Y020815D01*
X05419Y021584D02*
X05457Y021964D01*
X05419Y020824D02*
Y021584D01*
X0538Y02056D02*
Y022166D01*
X05396Y0204D02*
X05446D01*
X054Y02036D02*
Y023358D01*
X05534Y0204D02*
X05539D01*
X05434Y0198D02*
X05446D01*
X05434Y02D02*
X05446D01*
X05434Y0194D02*
X05446D01*
X05434Y0196D02*
X05446D01*
X05412Y02024D02*
X05434Y02002D01*
X05416Y0202D02*
X05446D01*
X05412Y02024D02*
X05434Y02002D01*
Y01958D02*
Y02002D01*
Y01958D02*
Y02002D01*
X05376Y02437D02*
Y024462D01*
X053698Y0244D02*
X05376D01*
X05356Y024238D02*
X053628D01*
X05376Y02437D01*
X0536Y024238D02*
Y024302D01*
X053548Y02425D02*
X05376Y024462D01*
X052754Y024262D02*
X05284D01*
X05274Y0242D02*
X052803D01*
X05274Y024137D02*
X052853Y02425D01*
X0528Y024197D02*
Y024262D01*
X053655Y023358D02*
X054068D01*
X053649Y0232D02*
X05419D01*
X053655Y023358D02*
X054068D01*
X053649Y023134D02*
X053867D01*
X053649D02*
Y023351D01*
X05164Y0232D02*
X052769D01*
X052364Y02309D02*
X052769D01*
X052635Y023468D02*
X052769Y023334D01*
Y02309D02*
Y023334D01*
X052364Y02309D02*
X052769D01*
X05274Y024137D02*
Y024248D01*
Y024137D02*
Y024248D01*
X05252Y02366D02*
X052635Y023775D01*
Y023468D02*
Y023775D01*
X0526Y02309D02*
Y02374D01*
X05252Y02366D02*
X052635Y023775D01*
X05246Y0236D02*
X052635D01*
X05234Y02348D02*
X05252Y02366D01*
X0524Y02309D02*
Y02354D01*
X052118Y023262D02*
X052338Y023482D01*
X05212Y02326D02*
X05234Y02348D01*
X05226Y0234D02*
X052702D01*
X0522Y022926D02*
Y02334D01*
X052144Y02287D02*
X052364Y02309D01*
X052144Y02287D02*
X052364Y02309D01*
X05212Y02326D02*
X05234Y02348D01*
X05168Y02326D02*
X05212D01*
X05168D02*
X05212D01*
X05164Y023D02*
X052274D01*
X05164Y0228D02*
X052074D01*
X053647Y022D02*
X06881D01*
X053765Y0218D02*
X054406D01*
X053765Y0216D02*
X054206D01*
X053765Y0214D02*
X05419D01*
X053765Y021318D02*
Y021883D01*
X0536Y022048D02*
Y022166D01*
X0529D02*
X053867D01*
X052917Y022165D02*
X053482D01*
X05364Y021193D02*
X053765Y021318D01*
X053482Y022165D02*
X053765Y021883D01*
X05364Y021D02*
X05419D01*
X05364Y0208D02*
X054215D01*
X053647Y0212D02*
X05419D01*
X05376Y0206D02*
X054415D01*
X05364Y02072D02*
X05412Y02024D01*
X05364Y02072D02*
Y021193D01*
X05298Y02006D02*
X05346Y01958D01*
X05321Y0196D02*
X05344D01*
X05334Y0194D02*
X05346D01*
X05279Y02002D02*
X05334Y01947D01*
X0529Y022166D02*
Y02221D01*
X052794Y0222D02*
X0529D01*
X052804Y02221D02*
X0529D01*
X05279Y02025D02*
X05298Y02006D01*
X0528Y022048D02*
Y022206D01*
X05191Y022636D02*
X05213Y022856D01*
X05279Y022037D02*
Y022196D01*
X05191Y022636D02*
X05213Y022856D01*
X05279Y022037D02*
X052917Y022165D01*
X05279Y02002D02*
Y02025D01*
X05281Y02D02*
X05304D01*
X05301Y0198D02*
X05324D01*
X053Y01981D02*
Y02004D01*
X053118Y019687D02*
X053337Y019468D01*
X0532Y01961D02*
Y01984D01*
X05279Y02025D02*
X05298Y02006D01*
X05279Y0202D02*
X05284D01*
X0528Y02001D02*
Y02024D01*
X05209Y0194D02*
X05213Y01936D01*
X05209Y0194D02*
X05213Y01936D01*
X051788Y030745D02*
X051824Y030708D01*
X05177D02*
X051824D01*
X0518Y030733D02*
Y03131D01*
X052Y030708D02*
Y03131D01*
X051788Y029792D02*
X051824Y029829D01*
X0516Y030745D02*
Y03131D01*
X051312Y030745D02*
X051788D01*
X0514D02*
Y03131D01*
X051756Y029746D02*
X051838Y029829D01*
X051074Y030507D02*
X051312Y030745D01*
X051756Y029746D02*
X051838Y029829D01*
X052Y028776D02*
Y029829D01*
X0518Y028776D02*
Y02979D01*
X052026Y027824D02*
Y02786D01*
Y02874D02*
Y028776D01*
X0516D02*
Y02959D01*
X051074Y027824D02*
X052026D01*
X0514Y028776D02*
Y02939D01*
X050918Y026365D02*
X051483D01*
X0514D02*
Y027824D01*
X0512Y030633D02*
Y03131D01*
X051074Y030384D02*
Y030507D01*
X051Y03031D02*
Y03131D01*
X0508Y03011D02*
Y03131D01*
X0506Y02991D02*
Y03131D01*
X0502Y02951D02*
Y03131D01*
X0504Y02971D02*
Y03131D01*
X05Y02931D02*
Y03131D01*
X0498Y02911D02*
Y03131D01*
X0496Y02891D02*
Y03131D01*
X0512Y028776D02*
Y02919D01*
X051074Y027824D02*
Y028776D01*
X05061Y0286D02*
X051074D01*
X0512Y026365D02*
Y027824D01*
X051Y026365D02*
Y02899D01*
X05021Y0282D02*
X051074D01*
X05001Y028D02*
X051074D01*
X05041Y0284D02*
X051074D01*
X04964Y026318D02*
Y026883D01*
X0496Y026923D02*
Y02759D01*
X052Y024828D02*
Y027824D01*
X051765Y025517D02*
Y026082D01*
X0516Y025198D02*
Y025352D01*
X0518Y02426D02*
Y027824D01*
X051765Y024467D02*
Y025032D01*
X0516Y026247D02*
Y027824D01*
X051483Y026365D02*
X051765Y026082D01*
X050635D02*
X050918Y026365D01*
X051522Y025275D02*
X051765Y025032D01*
X051522Y025275D02*
X051765Y025517D01*
Y0248D02*
X051972D01*
X051698Y0244D02*
X05186D01*
X051765Y0246D02*
X05186D01*
Y02432D02*
Y024688D01*
Y02432D02*
Y024688D01*
X051547Y02425D02*
X051765Y024467D01*
X0516Y024197D02*
Y024302D01*
X050792Y02431D02*
X050852Y02425D01*
X051682Y024142D02*
X05186Y02432D01*
X051547Y02425D02*
X051655Y024142D01*
X0508Y026247D02*
Y02879D01*
X0502Y02604D02*
Y02819D01*
X05Y02604D02*
Y02799D01*
X0506Y02604D02*
Y02859D01*
X0504Y02604D02*
Y02839D01*
X049488Y026165D02*
X04964Y026318D01*
X049523Y0262D02*
X050753D01*
X0496Y026165D02*
Y026277D01*
X0498Y02604D02*
Y02779D01*
X04964Y02604D02*
Y026165D01*
X0508Y024197D02*
Y024302D01*
X050635Y024032D02*
X050852Y02425D01*
X050635Y02604D02*
Y026082D01*
X0506Y023134D02*
Y02431D01*
X0504Y023134D02*
Y02431D01*
X04964Y02604D02*
X050635D01*
X04972Y02431D02*
X050792D01*
X0502Y023134D02*
Y02431D01*
X05Y022959D02*
Y02431D01*
X0498Y02086D02*
Y02431D01*
X049324Y0302D02*
X05089D01*
X049324Y03D02*
X05069D01*
X049324Y0298D02*
X05049D01*
X04934Y02733D02*
X051756Y029746D01*
X0494Y02871D02*
Y03131D01*
X049324Y0306D02*
X051167D01*
X049324Y0304D02*
X051074D01*
X048876Y03131D02*
X049324Y030862D01*
X04868Y02799D02*
X051074Y030384D01*
X049324Y029638D02*
Y030862D01*
X049286Y0296D02*
X05029D01*
X049086Y0294D02*
X05009D01*
X0492Y02851D02*
Y029514D01*
X0494Y027122D02*
Y02739D01*
X04934Y027165D02*
Y02733D01*
X048886Y0292D02*
X04989D01*
X04709Y029D02*
X04969D01*
X048712Y029026D02*
X049324Y029638D01*
X04709Y0288D02*
X04949D01*
X04709Y0286D02*
X04929D01*
X0492Y030986D02*
Y03131D01*
X049Y02831D02*
Y029314D01*
Y031186D02*
Y03131D01*
X0488Y02811D02*
Y029114D01*
X0486Y02791D02*
Y029026D01*
X04709Y029424D02*
X047488Y029026D01*
X048712D01*
X04709Y0292D02*
X047314D01*
X04709Y0284D02*
X04909D01*
X04709Y0282D02*
X04889D01*
X04846Y02777D02*
X04868Y02799D01*
X04846Y02777D02*
X04868Y02799D01*
X04846Y02733D02*
Y02777D01*
Y027165D02*
Y02733D01*
Y02777D01*
X04709Y028D02*
X04869D01*
X04709Y0278D02*
X04849D01*
X04709Y0276D02*
X04846D01*
X04709Y0272D02*
X04846D01*
X04709Y0274D02*
X04846D01*
X049358Y027165D02*
X04964Y026883D01*
X049488Y026165D02*
X04964D01*
X0488Y02471D02*
Y025035D01*
X0486Y02451D02*
Y025035D01*
X0484Y02431D02*
Y025035D01*
Y027122D02*
Y029026D01*
X04816Y026883D02*
X048443Y027165D01*
X04709Y0262D02*
X048278D01*
X04816Y026165D02*
X048313D01*
X04816Y026318D02*
X048313Y026165D01*
X04906Y02497D02*
X049125Y025035D01*
X04906Y02497D02*
X049125Y025035D01*
X049Y02491D02*
Y025035D01*
X04898Y02357D02*
X04972Y02431D01*
X04832Y02423D02*
X04906Y02497D01*
X04816Y025035D02*
X049125D01*
X04709Y025D02*
X04909D01*
X04709Y0248D02*
X04889D01*
X04709Y0246D02*
X04869D01*
X04709Y0244D02*
X04849D01*
X0482Y026923D02*
Y029026D01*
X04816Y026318D02*
Y026883D01*
X048Y02191D02*
Y029026D01*
X0478Y02171D02*
Y029026D01*
X0476Y02151D02*
Y029026D01*
X04709Y027D02*
X048278D01*
X04709Y0268D02*
X04816D01*
X0474Y02131D02*
Y029114D01*
X0472Y02111D02*
Y029314D01*
X04709Y021D02*
Y029424D01*
X0482Y026165D02*
Y026277D01*
X04709Y0252D02*
X04816D01*
X04709Y0254D02*
X04816D01*
X0482Y02417D02*
Y025035D01*
X04816D02*
Y026165D01*
X04709Y0264D02*
X04816D01*
X04709Y026D02*
X04816D01*
X04709Y0266D02*
X04816D01*
X04709Y0256D02*
X04816D01*
X04709Y0258D02*
X04816D01*
X052Y022726D02*
Y02326D01*
X05164Y0224D02*
X05191D01*
X05164Y0226D02*
X05191D01*
Y022196D02*
Y022636D01*
Y022196D02*
Y022636D01*
X051597Y0242D02*
X05174D01*
X05164Y023262D02*
X051678D01*
X04961Y0242D02*
X050802D01*
X05164Y022008D02*
Y023262D01*
X050658Y022166D02*
X05076Y022268D01*
X051765Y0216D02*
X05191D01*
X051765Y0214D02*
X05191D01*
X051765Y0218D02*
X05191D01*
X051648Y0212D02*
X05191D01*
X051765Y021318D02*
Y021883D01*
X05164Y0222D02*
X05191D01*
X051648Y022D02*
X05191D01*
X05076Y022008D02*
Y022268D01*
X05164Y022008D02*
X051765Y021883D01*
X050635D02*
X05076Y022008D01*
X050635Y023468D02*
X05076Y023342D01*
X050174Y023134D02*
X050658D01*
X050635Y023468D02*
Y024032D01*
X05076Y023032D02*
Y023342D01*
X050658Y023134D02*
X05076Y023032D01*
X04941Y024D02*
X050635D01*
X049933Y022892D02*
X050174Y023134D01*
X049933Y022408D02*
Y022892D01*
X0496Y02131D02*
Y02419D01*
X0494Y02151D02*
Y02399D01*
X050692Y0222D02*
X05076D01*
X050635Y021695D02*
Y021883D01*
X0506Y02166D02*
Y022166D01*
X0504Y02146D02*
Y022166D01*
X0502Y02126D02*
Y022166D01*
X050174D02*
X050658D01*
X04951Y0214D02*
X05034D01*
X049933Y022408D02*
X050174Y022166D01*
X04971Y0212D02*
X05014D01*
X049512Y021398D02*
X049732Y021178D01*
X051483Y021035D02*
X051765Y021318D01*
X0516Y02091D02*
Y021153D01*
X0514Y020914D02*
Y021035D01*
X05191Y0206D02*
Y022196D01*
X0518Y02071D02*
Y02326D01*
X051295Y021035D02*
X051483D01*
X05126Y021D02*
X05191D01*
X051192Y020932D02*
X051295Y021035D01*
X05121Y020914D02*
X051596D01*
X051174D02*
X05121D01*
X05171Y0208D02*
X05191D01*
X051816Y020694D02*
X05187Y02064D01*
X051596Y020914D02*
X051816Y020694D01*
X05187Y02064D02*
X05191Y0206D01*
X05187Y02064D02*
X05191Y0206D01*
X05121Y020914D02*
X051596D01*
X051816Y020694D01*
X051165Y020025D02*
X05121Y01998D01*
Y019929D02*
Y01998D01*
X051144Y019996D02*
X05121Y019929D01*
X051174Y020914D02*
X05121D01*
X05034Y02008D02*
X05046Y0202D01*
X05Y02106D02*
Y022341D01*
X05046Y0202D02*
X050656Y020004D01*
X0504Y019642D02*
Y02014D01*
X049732Y020792D02*
X050635Y021695D01*
X049732Y021D02*
X04994D01*
X049512Y021398D02*
X049732Y021178D01*
Y020792D02*
Y021178D01*
Y020792D02*
Y021178D01*
X050656Y020004D02*
X051144D01*
X050656Y019996D02*
X051144D01*
X0506Y019939D02*
Y020061D01*
X0512Y019939D02*
Y01999D01*
X050412Y019654D02*
Y019752D01*
X05034Y02D02*
X05119D01*
X050412Y019752D02*
X050656Y019996D01*
X05034Y0198D02*
X050461D01*
X05034Y019582D02*
X050412Y019654D01*
X05034Y019582D02*
Y02008D01*
X04921Y0238D02*
X050635D01*
X04901Y0236D02*
X050635D01*
X04898Y02351D02*
Y02357D01*
X04894Y0232D02*
X05076D01*
X04894Y0234D02*
X050703D01*
X04894Y02353D02*
X04898Y02357D01*
X04894Y02347D02*
Y02353D01*
X04828Y02419D02*
X04832Y02423D01*
X04894Y02347D02*
X04898Y02351D01*
X04894Y02303D02*
Y02347D01*
X04897Y023D02*
X050041D01*
X04898Y0228D02*
X049933D01*
X04894Y02303D02*
X04898Y02299D01*
Y0226D02*
X049933D01*
X04898Y02251D02*
Y02299D01*
X04874Y02227D02*
X04898Y02251D01*
X04887Y0224D02*
X049941D01*
X04826Y02227D02*
X04874D01*
X0486Y02223D02*
Y02227D01*
X0484Y02223D02*
Y02227D01*
X04826Y02423D02*
X04832D01*
X04823Y0242D02*
X04829D01*
X04802Y02351D02*
Y02399D01*
X04806Y02347D02*
Y02353D01*
X04802Y02351D02*
X04806Y02347D01*
X04802Y02399D02*
X04826Y02423D01*
X04709Y0242D02*
X04823D01*
X04709Y024D02*
X04803D01*
X04709Y0236D02*
X04802D01*
X04709Y0238D02*
X04802D01*
X04806Y02303D02*
Y02347D01*
X04802Y02299D02*
X04806Y02303D01*
X04802Y02251D02*
Y02299D01*
Y02251D02*
X04826Y02227D01*
X04709Y0224D02*
X04813D01*
X04709Y0234D02*
X04806D01*
X04709Y0232D02*
X04806D01*
X04709Y023D02*
X04803D01*
X04709Y0226D02*
X04802D01*
X04709Y0228D02*
X04802D01*
X0492Y02171D02*
Y02379D01*
X04911Y0218D02*
X050635D01*
X049Y02191D02*
Y02359D01*
X04931Y0216D02*
X05054D01*
X04898Y02193D02*
X049512Y021398D01*
X04802Y02223D02*
X04898D01*
Y0222D02*
X050141D01*
X0488Y02223D02*
Y02233D01*
X04898Y022D02*
X050753D01*
X04898Y02193D02*
Y02223D01*
X048852Y019891D02*
Y020738D01*
X048639Y02D02*
X048852D01*
X0486Y020039D02*
Y02099D01*
X048804Y019844D02*
X048852Y019891D01*
X048552Y020088D02*
X048796Y019844D01*
X0485Y02109D02*
X048852Y020738D01*
X04801Y0206D02*
X048852D01*
X04821Y0208D02*
X04879D01*
X04784Y0202D02*
X048852D01*
X04784Y0204D02*
X048852D01*
X0482Y02223D02*
Y02233D01*
X04802Y02193D02*
Y02223D01*
X04709Y0212D02*
X04729D01*
X04718Y02109D02*
X04802Y02193D01*
X04709Y021D02*
X04718Y02109D01*
X04709Y0222D02*
X04802D01*
X04709Y022D02*
X04802D01*
X04709Y0218D02*
X04789D01*
X04709Y0216D02*
X04769D01*
X04709Y0214D02*
X04749D01*
X04841Y021D02*
X04859D01*
X048064Y020088D02*
X048552D01*
X0482D02*
Y02079D01*
X0484Y020088D02*
Y02099D01*
X048Y020024D02*
Y02059D01*
X04784Y02043D02*
X0485Y02109D01*
X04784Y02D02*
X047976D01*
X04709Y021D02*
X04718Y02109D01*
X04784Y019864D02*
X048064Y020088D01*
X04784Y019864D02*
Y02043D01*
X056263Y01761D02*
X056297D01*
X056325Y017581D01*
X0562Y01909D02*
Y01971D01*
X056257Y01761D02*
X056303Y017564D01*
X056263Y01761D02*
X056303Y01757D01*
X05551Y0192D02*
X056452D01*
X05552Y01909D02*
X056435D01*
X0554D02*
X05602Y01971D01*
X056Y01909D02*
Y01969D01*
X0558Y01909D02*
Y01949D01*
X056297Y01761D02*
X056592D01*
X056307Y0176D02*
X056603D01*
X056303Y017564D02*
X056325Y017541D01*
X056859Y017008D01*
X056325Y017541D02*
Y017581D01*
X056273Y0176D02*
X056307D01*
X055659Y016888D02*
X055734Y016812D01*
X055632D02*
X055734D01*
X055643Y01679D02*
X05572D01*
X055643D02*
X05572D01*
X0556Y01909D02*
Y01929D01*
X0554Y01909D02*
X05552D01*
X055401Y017119D02*
Y017354D01*
X055423Y017124D02*
X055643Y016904D01*
X0554Y01679D02*
Y017353D01*
Y01909D02*
X05552D01*
X054677Y018813D02*
X054803D01*
X05468Y01881D02*
X0548D01*
X055247Y0172D02*
X055401D01*
X05468Y01881D02*
X0548D01*
X055423Y017124D02*
X055643Y016904D01*
X055609Y01679D02*
X055632Y016812D01*
X0556Y01679D02*
Y016919D01*
X055609Y01679D02*
X055643D01*
X055609D02*
X055643D01*
X055401Y017119D02*
X055632Y016888D01*
X054847Y0168D02*
X055619D01*
X055047Y017D02*
X055519D01*
X05528Y01679D02*
X055609D01*
X05528D02*
X055609D01*
X056325Y016221D02*
X056419Y016128D01*
X056207Y016D02*
X058382D01*
X056325Y016221D02*
X056419Y016128D01*
X0562Y01579D02*
Y015993D01*
Y016027D01*
X056083Y01591D02*
X056303Y01613D01*
X056083Y01591D02*
X056303Y01613D01*
X056173Y016D02*
X056207D01*
X056094Y015888D02*
X056325Y016119D01*
X055698Y015888D02*
X05572Y01591D01*
X056107Y0158D02*
X058582D01*
X056117Y01579D02*
X056246D01*
X056094Y015812D02*
X056117Y01579D01*
X056246D02*
X056686D01*
X056246D02*
X056686D01*
X055698Y015888D02*
X056094D01*
X055632Y015812D02*
X056094D01*
X0558D02*
Y015888D01*
X056Y015812D02*
Y015888D01*
X05554Y01573D02*
X055698Y015888D01*
X05506Y01657D02*
X05528Y01679D01*
X05506Y01657D02*
X05528Y01679D01*
X0552Y01671D02*
Y017153D01*
X05488Y01639D02*
X05506Y01657D01*
X055Y01651D02*
Y016953D01*
X05466Y01617D02*
X05488Y01639D01*
X05466Y01617D02*
X05488Y01639D01*
X0548Y01631D02*
Y016753D01*
X05466Y01573D02*
Y01617D01*
Y01573D02*
Y01617D01*
X05554Y015013D02*
X055643Y01491D01*
X0556Y014919D02*
Y014953D01*
Y015747D02*
Y015781D01*
X05554Y014979D02*
X055632Y014888D01*
X05554Y014812D02*
Y014979D01*
Y015721D02*
X055632Y015812D01*
X05554Y015687D02*
X055643Y01579D01*
X05554Y015687D02*
Y015721D01*
Y014979D02*
Y015013D01*
X05466Y013797D02*
Y01573D01*
X05446Y01903D02*
Y01947D01*
Y01903D02*
Y01947D01*
X05434Y0192D02*
X05446D01*
X054463Y018813D02*
Y019027D01*
X0544Y01879D02*
Y020615D01*
X05434Y01903D02*
Y01958D01*
X05431Y019D02*
X054463D01*
X054118Y018813D02*
X054337Y019032D01*
X05412Y01881D02*
X05434Y01903D01*
X0542Y01879D02*
Y01889D01*
X054463Y018813D02*
X054677D01*
X0546Y017873D02*
Y01791D01*
X0544Y017673D02*
Y01791D01*
X0542Y017473D02*
Y01791D01*
X053199Y0174D02*
X054127D01*
X05209Y0188D02*
X05479D01*
X05209Y01879D02*
X05478D01*
X051665Y01791D02*
X054637D01*
X052981Y0178D02*
X054527D01*
X053181Y0176D02*
X054327D01*
X05346Y01903D02*
Y01958D01*
X053463Y019032D02*
X053682Y018813D01*
X05334Y0192D02*
X05346D01*
Y01903D02*
X05368Y01881D01*
X0534Y01879D02*
Y01964D01*
X05334Y01903D02*
Y01947D01*
X05331Y019D02*
X05349D01*
X053118Y018813D02*
X053337Y019032D01*
X05312Y01881D02*
X05334Y01903D01*
X0532Y01879D02*
Y01889D01*
X0536Y01879D02*
Y01889D01*
X05368Y01881D02*
X05412D01*
X053Y017747D02*
Y017781D01*
X054Y017273D02*
Y01791D01*
X053147Y0176D02*
X053181D01*
X05268Y01881D02*
X05312D01*
X053Y017781D02*
Y01791D01*
X052506Y017812D02*
X052968D01*
X053199Y017581D01*
X052957Y01779D02*
X053177Y01757D01*
X054647Y0166D02*
X05509D01*
X054447Y0164D02*
X05489D01*
X0538Y017073D02*
Y01791D01*
X0546Y013715D02*
Y016553D01*
X0544Y013715D02*
Y016353D01*
X053199Y0172D02*
X053927D01*
X053177Y017D02*
X053727D01*
X0536Y016873D02*
Y01791D01*
X053199Y015152D02*
X055401Y017354D01*
X053199Y016472D02*
X054637Y01791D01*
X054247Y0162D02*
X05469D01*
X053847Y0158D02*
X05466D01*
X054047Y016D02*
X05466D01*
X0542Y013715D02*
Y016153D01*
X054Y013548D02*
Y015953D01*
X053447Y0154D02*
X05466D01*
X053247Y0152D02*
X05466D01*
X053647Y0156D02*
X05466D01*
X053081Y015D02*
X05466D01*
X0538Y013542D02*
Y015753D01*
X0532Y016473D02*
Y01791D01*
X0534Y016673D02*
Y01791D01*
X053199Y017119D02*
Y017581D01*
X0536Y01354D02*
Y015553D01*
X053199Y016472D02*
Y016581D01*
X053177Y017096D02*
X053199Y017119D01*
X053177Y0168D02*
X053527D01*
X053177Y016604D02*
Y017096D01*
X053181Y0166D02*
X053327D01*
X053177Y016604D02*
X053199Y016581D01*
X053177Y01513D02*
X053199Y015152D01*
Y015119D02*
Y015152D01*
X053047Y015D02*
X053081D01*
X0534Y014347D02*
Y015353D01*
X0532Y014547D02*
Y015153D01*
X052957Y01491D02*
X053177Y01513D01*
X052957Y01491D02*
X053177Y01513D01*
X053Y014919D02*
Y014953D01*
X052968Y014888D02*
X053199Y015119D01*
X053Y014781D02*
Y014919D01*
X056117Y01491D02*
X056246D01*
X05626Y014812D02*
Y014896D01*
X0562Y014812D02*
Y01491D01*
X05626Y012884D02*
Y013888D01*
X0562Y012824D02*
Y013888D01*
X056094Y014888D02*
X056117Y01491D01*
X05554Y014812D02*
X05626D01*
X055632Y014888D02*
X056094D01*
X05554Y013888D02*
X05626D01*
X056Y014812D02*
Y014888D01*
X055915Y0132D02*
X05626D01*
X055915Y013D02*
X05626D01*
X055915Y0134D02*
X05626D01*
X056112Y012736D02*
X05626Y012884D01*
X056112Y012248D02*
Y012736D01*
X05554Y0138D02*
X05626D01*
X055747Y0136D02*
X05626D01*
X055848Y0128D02*
X056176D01*
X05571Y0124D02*
X056112D01*
X055761Y0126D02*
X056112D01*
X0558Y014812D02*
Y014888D01*
X0556Y013737D02*
Y013888D01*
Y014812D02*
Y014919D01*
X0558Y013548D02*
Y013888D01*
X055622Y013715D02*
X055665Y013672D01*
X05554Y013797D02*
Y013888D01*
X05466Y013715D02*
Y013797D01*
Y013715D02*
Y013797D01*
X05554D02*
X055622Y013715D01*
X05554Y013797D02*
X055622Y013715D01*
X055915Y012867D02*
Y013433D01*
X055761Y012713D02*
X055915Y012867D01*
X055633Y013715D02*
X055915Y013433D01*
X055761Y012451D02*
Y012713D01*
Y012451D02*
Y012713D01*
X055622Y013715D02*
X055665Y013672D01*
X054278Y012288D02*
X054575Y012585D01*
X0544Y01241D02*
Y012585D01*
X055541Y012231D02*
X055761Y012451D01*
X055541Y012231D02*
X055761Y012451D01*
X056112Y012248D02*
X056356Y012004D01*
X056112Y011752D02*
X056356Y011996D01*
X0562Y011839D02*
Y012161D01*
X056112Y011264D02*
Y011752D01*
X056Y011228D02*
Y013888D01*
X05531Y012D02*
X056458D01*
X05511Y0118D02*
X056161D01*
X05551Y0122D02*
X056161D01*
X0558Y011547D02*
Y012752D01*
X055068Y011715D02*
X055633D01*
X056112Y011264D02*
X056356Y01102D01*
X0562Y011028D02*
Y011176D01*
X056028Y0112D02*
X056176D01*
X056238Y01099D02*
X057362D01*
X056228Y011D02*
X057352D01*
X055747Y0116D02*
X056112D01*
X055915Y0114D02*
X056112D01*
X055633Y011715D02*
X055915Y011432D01*
Y011313D02*
X056238Y01099D01*
X055915Y011313D02*
Y011432D01*
X0556Y011715D02*
Y01229D01*
X0554Y011715D02*
Y01209D01*
X0552Y011715D02*
Y01189D01*
X055Y011647D02*
Y01169D01*
X054938Y011585D02*
Y011628D01*
X055541Y012231D01*
X054938Y011585D02*
X055068Y011715D01*
X054732Y010585D02*
X0549Y010753D01*
X055068Y010585D01*
X0548Y01029D02*
Y010653D01*
X055323Y010585D02*
X055578Y01033D01*
X0554Y01029D02*
Y010508D01*
X0552Y01029D02*
Y010585D01*
X055578Y01033D02*
X055618Y01029D01*
X055578Y01033D02*
X055618Y01029D01*
X054748Y0106D02*
X055052D01*
X055068Y010585D02*
X055323D01*
X0544Y01029D02*
Y010585D01*
X055Y01029D02*
Y010653D01*
X0546Y01029D02*
Y010585D01*
X05359Y0138D02*
X05466D01*
X054167Y013715D02*
X05466D01*
X05359Y0136D02*
X054053D01*
X053995Y013542D02*
X054167Y013715D01*
X053732Y013542D02*
X053995D01*
X053181Y0146D02*
X05466D01*
X053347Y0144D02*
X05466D01*
X052981Y0148D02*
X05466D01*
X05359Y014D02*
X05466D01*
X053547Y0142D02*
X05466D01*
X053804Y01266D02*
X054092D01*
X054167Y012585D01*
X053804Y01266D02*
X054092D01*
X054167Y012585D02*
X054575D01*
X0542Y01221D02*
Y012585D01*
X053732Y013542D02*
X053995D01*
X053744Y0126D02*
X054152D01*
X05373Y01354D02*
X053804D01*
X053589Y0124D02*
X05439D01*
X053638Y012494D02*
X053804Y01266D01*
X052968Y014812D02*
X053199Y014581D01*
X053147Y0146D02*
X053181D01*
X053Y014747D02*
Y014781D01*
X053199Y014548D02*
X05337Y014377D01*
X053199Y014548D02*
Y014581D01*
X052935Y014888D02*
X052957Y01491D01*
X052935Y014888D02*
X052968D01*
X052859Y014812D02*
X052935Y014888D01*
X052957Y01479D02*
X053199Y014548D01*
X052859Y014812D02*
X052968D01*
X05359Y01354D02*
X05373D01*
X053804D01*
X05359D02*
X05373D01*
X053638Y012448D02*
Y012494D01*
X053616Y012472D02*
X053638Y012494D01*
X05337Y014377D02*
X05359Y014157D01*
Y013717D02*
Y014157D01*
X05337Y014377D02*
X05359Y014157D01*
Y01354D02*
Y013717D01*
Y014157D01*
X054058Y012068D02*
X054278Y012288D01*
X054058Y012068D02*
X054278Y012288D01*
X054Y011638D02*
Y01266D01*
X054058Y011638D02*
Y012068D01*
Y011638D02*
Y012068D01*
X05259Y0122D02*
X05419D01*
X053744Y0118D02*
X054058D01*
X053589Y012D02*
X054058D01*
X053906Y011638D02*
X054058D01*
X053638Y011906D02*
X053906Y011638D01*
X053995Y010758D02*
X054167Y010585D01*
X054732D01*
X053906Y010758D02*
X053995D01*
X0542Y01029D02*
Y010585D01*
X054Y01029D02*
Y010753D01*
X053466Y010758D02*
X053906D01*
X049236Y0106D02*
X054152D01*
X053466Y010758D02*
X053906D01*
X048926Y01029D02*
X055618D01*
X049036Y0104D02*
X055508D01*
X053394Y012196D02*
X053638Y011952D01*
X053616Y011928D02*
X053638Y011906D01*
X0536Y011989D02*
Y012411D01*
X0538Y011744D02*
Y012656D01*
X053638Y011906D02*
Y011952D01*
X053394Y012204D02*
X053638Y012448D01*
X052906Y012196D02*
X053394D01*
X052906Y012204D02*
X053394D01*
X052906Y01122D02*
X053003D01*
X053Y01029D02*
Y01122D01*
X053246Y010978D02*
X053466Y010758D01*
X053246Y010978D02*
X053466Y010758D01*
X0534Y01029D02*
Y010824D01*
X0538Y01029D02*
Y010758D01*
X0536Y01029D02*
Y010758D01*
X053003Y01122D02*
X053246Y010978D01*
X05161Y011D02*
X053224D01*
X05181Y0112D02*
X053024D01*
X049274Y0108D02*
X053424D01*
X0532Y01029D02*
Y011024D01*
X052463Y019032D02*
X052682Y018813D01*
X0526Y017812D02*
Y01791D01*
Y01879D02*
Y01889D01*
X0528Y017812D02*
Y01791D01*
X0524Y017707D02*
Y01791D01*
X05213Y01936D02*
X05268Y01881D01*
X05209Y019D02*
X05249D01*
X05209Y0192D02*
X05229D01*
X052275Y017581D02*
X052506Y017812D01*
X0524Y01879D02*
Y01909D01*
X052297Y01757D02*
X052517Y01779D01*
X0524Y017673D02*
Y017707D01*
X052293Y0176D02*
X052327D01*
X052275Y017119D02*
X052297Y017096D01*
X052275Y017119D02*
Y017581D01*
X051555Y0178D02*
X052493D01*
X051755Y0176D02*
X052293D01*
X05177Y0174D02*
X052275D01*
X051555Y0168D02*
X052297D01*
X051755Y017D02*
X052297D01*
X05209Y01904D02*
Y0194D01*
Y01879D02*
Y01904D01*
X05121D02*
Y019086D01*
X0522Y01879D02*
Y01929D01*
X05209Y01879D02*
Y01904D01*
X051144Y01902D02*
X05121Y019086D01*
X0512Y01903D02*
Y019076D01*
X051098Y01902D02*
X05112Y019042D01*
X05104Y01887D02*
X05121Y01904D01*
X050948Y01887D02*
X051098Y01902D01*
X051555Y0178D02*
X05177Y017585D01*
Y0172D02*
X052275D01*
X0516Y017755D02*
Y017845D01*
X051555Y0168D02*
X05177Y017015D01*
Y017585D01*
X051098Y01902D02*
X051144D01*
X051078Y019D02*
X05117D01*
X050948Y01887D02*
X05104D01*
X051555Y0178D02*
X051665Y01791D01*
X051Y01887D02*
Y018922D01*
X052393Y016D02*
X052427D01*
X052506Y015888D02*
X052615D01*
X0524Y015993D02*
Y016027D01*
X052539Y015812D02*
X052615Y015888D01*
X0524Y015707D02*
Y015993D01*
X052275Y016581D02*
X052297Y016604D01*
X051755Y016D02*
X052393D01*
X052297Y016604D02*
Y017096D01*
Y01613D02*
X052517Y01591D01*
X052275Y016119D02*
X052506Y015888D01*
Y015812D02*
X052539D01*
X052517Y01579D02*
X052539Y015812D01*
X052493Y0158D02*
X052527D01*
X052297Y01557D02*
X052517Y01579D01*
X0524Y015673D02*
Y015707D01*
X051555Y0158D02*
X052493D01*
X052293Y0156D02*
X052327D01*
X051755D02*
X052293D01*
X052297Y01557D02*
X052517Y01579D01*
X052275Y015581D02*
X052506Y015812D01*
X0522Y015473D02*
Y01791D01*
X052275Y016119D02*
Y016581D01*
X05177Y016015D02*
Y016585D01*
X052Y015273D02*
Y01791D01*
X0518Y01529D02*
Y01791D01*
X051555Y0168D02*
X05177Y016585D01*
X051755Y0166D02*
X052293D01*
X0516Y016755D02*
Y016845D01*
X05006Y015012D02*
Y0164D01*
X04974Y01608D02*
X05006Y0164D01*
X05177D02*
X052275D01*
X05177Y0162D02*
X052275D01*
X0516Y015755D02*
Y015845D01*
X05177Y01532D02*
Y015585D01*
X051555Y0158D02*
X05177Y015585D01*
X051555Y0158D02*
X05177Y016015D01*
X04966Y016D02*
X05006D01*
X04986Y0162D02*
X05006D01*
X05Y014952D02*
Y01634D01*
X0498Y014752D02*
Y01614D01*
X049048Y019112D02*
X04946D01*
Y01712D02*
Y019112D01*
X048804Y019356D02*
X049048Y019112D01*
X0494Y01706D02*
Y019112D01*
X0492Y01686D02*
Y019112D01*
X048804Y019356D02*
Y019844D01*
X04873Y01929D02*
X048796Y019356D01*
Y019844D01*
X04864Y019D02*
X04946D01*
X04873Y0192D02*
X048961D01*
X04877Y018D02*
X04946D01*
X04877Y0178D02*
X04946D01*
X04877Y0182D02*
X04946D01*
X04877Y0172D02*
X04946D01*
X04877Y0174D02*
X04946D01*
X04877Y0186D02*
X04946D01*
X04877Y0184D02*
X04946D01*
X04877Y0188D02*
X04946D01*
X048755Y0176D02*
X04946D01*
X048755Y017D02*
X04934D01*
X04873Y0191D02*
Y01929D01*
X04864Y01887D02*
X04877D01*
X04873Y0191D02*
Y01929D01*
X04877Y017015D02*
Y017585D01*
Y01773D02*
Y01887D01*
X04864Y01901D02*
X04873Y0191D01*
X04864Y01901D02*
X04873Y0191D01*
X04864Y01887D02*
Y01901D01*
X048625Y01773D02*
X04877Y017585D01*
X048625Y01773D02*
X04877D01*
X047194Y01713D02*
X047414Y01691D01*
X047735D01*
X047194Y01713D02*
X047414Y01691D01*
X047735D02*
X047845Y0168D01*
X047414Y01691D02*
X047735D01*
X04709Y017234D02*
X04718Y017144D01*
X04709Y017234D02*
X04718Y017144D01*
X04709Y0172D02*
X047124D01*
X04709Y0168D02*
X047845D01*
X04709Y017D02*
X047324D01*
X04908Y01674D02*
X04946Y01712D01*
X04952Y01586D02*
X04974Y01608D01*
X049Y01674D02*
Y019161D01*
X04952Y01586D02*
X04974Y01608D01*
X0496Y014552D02*
Y01594D01*
X048555Y0168D02*
X04914D01*
X048615Y01674D02*
X04908D01*
X048555Y0168D02*
X04877Y017015D01*
X0488Y01674D02*
Y02079D01*
X048555Y0158D02*
X048615Y01586D01*
X04908D02*
X04952D01*
X04908D02*
X04952D01*
X0494Y014424D02*
Y01586D01*
X0492Y014224D02*
Y01586D01*
X049Y01311D02*
Y01586D01*
X048555Y0158D02*
X05006D01*
X048755Y0156D02*
X05006D01*
X048615Y01586D02*
X04908D01*
X0488Y01331D02*
Y01586D01*
X048555Y0158D02*
X04877Y015585D01*
X0486Y016755D02*
Y016845D01*
X048555Y0168D02*
X048615Y01674D01*
X0478Y016755D02*
Y016845D01*
X04763Y016585D02*
X047845Y0168D01*
X04763Y016015D02*
Y016585D01*
X0476Y012474D02*
Y01691D01*
X04709Y0166D02*
X047645D01*
X0474Y012436D02*
Y016924D01*
X0472Y012236D02*
Y017124D01*
X04709Y012126D02*
Y017234D01*
X04763Y016015D02*
X047845Y0158D01*
X0486Y015755D02*
Y015845D01*
X0478Y015755D02*
Y015845D01*
X04763Y015585D02*
X047845Y0158D01*
X04763Y015015D02*
Y015585D01*
X04709Y0162D02*
X04763D01*
X04709Y016D02*
X047645D01*
X04709Y0164D02*
X04763D01*
X04709Y0158D02*
X047845D01*
X04709Y0156D02*
X047645D01*
X052275Y015548D02*
X052297Y01557D01*
X05193Y015203D02*
X052275Y015548D01*
Y015581D01*
X05259Y013837D02*
X05271Y013717D01*
X051908Y015181D02*
X05193Y015203D01*
X05177Y0154D02*
X052127D01*
X05189Y0152D02*
X051927D01*
X05177Y01532D02*
X051908Y015181D01*
X05193Y015203D01*
X05177Y01532D02*
X051908Y015181D01*
X05271Y012984D02*
Y013717D01*
X052662Y012936D02*
X05271Y012984D01*
X05259Y013D02*
X05271D01*
Y012912D02*
Y012984D01*
X05259Y0128D02*
X052662D01*
X05259Y0136D02*
X05271D01*
X05259Y0134D02*
X05271D01*
X05259Y0138D02*
X052627D01*
X05259Y0132D02*
X05271D01*
X05106Y01302D02*
Y013513D01*
X05094Y014615D02*
X051033D01*
X05106Y014588D01*
X051Y014615D02*
Y01473D01*
X051033Y013485D02*
X05106Y013513D01*
Y014588D02*
Y01471D01*
X05094Y014615D02*
Y01473D01*
X05104D01*
X05094Y014615D02*
Y01473D01*
X0504Y012868D02*
Y013502D01*
X0502Y013068D02*
Y013502D01*
X051Y01296D02*
Y013485D01*
X050468D02*
X051033D01*
X050468Y0128D02*
X05084D01*
X0508Y01276D02*
Y013485D01*
X0506Y012668D02*
Y013485D01*
X050354Y013502D02*
X05045D01*
X050138Y0132D02*
X05106D01*
X050354Y013502D02*
X05045D01*
X050268Y013D02*
X05104D01*
X050138Y01313D02*
Y013202D01*
X052662Y012448D02*
X052906Y012204D01*
X0528Y012089D02*
Y012311D01*
X052662Y012448D02*
Y012936D01*
Y011952D02*
X052906Y012196D01*
X0526Y01029D02*
Y013827D01*
X05259Y0126D02*
X052662D01*
X05259Y0124D02*
X052711D01*
X05259Y01242D02*
Y013837D01*
Y01198D02*
Y01242D01*
Y01198D02*
Y01242D01*
Y012D02*
X052711D01*
X052662Y011464D02*
Y011952D01*
X05241Y0118D02*
X052662D01*
Y011464D02*
X052906Y01122D01*
X0528Y01029D02*
Y011326D01*
X05237Y01176D02*
X05259Y01198D01*
X05221Y0116D02*
X052662D01*
X05237Y01176D02*
X05259Y01198D01*
X05201Y0114D02*
X052726D01*
X0524Y01029D02*
Y01179D01*
X05179Y01118D02*
X05237Y01176D01*
X0518Y01029D02*
Y01119D01*
X0516Y01029D02*
Y01099D01*
X0522Y01029D02*
Y01159D01*
X052Y01029D02*
Y01139D01*
X050655Y012615D02*
X05106Y01302D01*
X05157Y01096D02*
X05179Y01118D01*
X050138Y01313D02*
X050653Y012615D01*
X05157Y01096D02*
X05179Y01118D01*
X05Y01029D02*
Y01096D01*
X05113D02*
X05157D01*
X05113D02*
X05157D01*
X051Y01029D02*
Y01096D01*
X0514Y01029D02*
Y01096D01*
X0512Y01029D02*
Y01096D01*
X0504Y01029D02*
Y01096D01*
X05027D02*
X05113D01*
X0502Y01029D02*
Y01096D01*
X0508Y01029D02*
Y01096D01*
X0506Y01029D02*
Y01096D01*
X04877Y0152D02*
X05006D01*
X049478Y01443D02*
X05006Y015012D01*
X049406Y01443D02*
X049478D01*
X04943Y014382D02*
X049478Y01443D01*
X049162Y014186D02*
X049406Y01443D01*
X04877Y0154D02*
X05006D01*
X048755Y015D02*
X050048D01*
X04864Y0148D02*
X049848D01*
X04864Y0146D02*
X049648D01*
X04864Y0144D02*
X049376D01*
X049894Y013454D02*
X049941Y013502D01*
X050354D01*
X04987D02*
X049941D01*
X049939Y0134D02*
X05106D01*
X049406Y013446D02*
X049894D01*
X049376Y0144D02*
X049448D01*
X049162Y013698D02*
X049406Y013454D01*
X04864Y0136D02*
X049261D01*
X049406Y013454D02*
X049894D01*
X04871Y0134D02*
X049361D01*
X04877Y015015D02*
Y015585D01*
X04864Y014885D02*
X04877Y015015D01*
X04763D02*
X04776Y014885D01*
X04864Y01347D02*
Y014885D01*
X04776Y01347D02*
Y014885D01*
X04709Y0152D02*
X04763D01*
X04709Y015D02*
X047645D01*
X04709Y0154D02*
X04763D01*
X04709Y0146D02*
X04776D01*
X04709Y0148D02*
X04776D01*
X04864Y0142D02*
X049176D01*
X04864Y0138D02*
X049162D01*
X04864Y014D02*
X049162D01*
Y013698D02*
Y014186D01*
X04709Y0134D02*
X04776D01*
X04709Y0142D02*
X04776D01*
X04709Y014D02*
X04776D01*
X04709Y0144D02*
X04776D01*
X04709Y0136D02*
X04776D01*
X04709Y0138D02*
X04776D01*
X05Y013339D02*
Y013502D01*
X049894Y013446D02*
X050138Y013202D01*
X049274Y0114D02*
X04939D01*
X049274Y011516D02*
X04961Y01118D01*
X0494Y01029D02*
Y01139D01*
X0492Y013239D02*
Y013661D01*
X049162Y013202D02*
X049406Y013446D01*
X04891Y0132D02*
X049162D01*
X049274Y010638D02*
Y011516D01*
X04911Y013D02*
X049162D01*
X04961Y01118D02*
X04983Y01096D01*
X05027D01*
X04961Y01118D02*
X04983Y01096D01*
X05027D01*
X0498Y01029D02*
Y01099D01*
X049274Y0112D02*
X04959D01*
X049274Y011D02*
X04979D01*
X048926Y01029D02*
X049274Y010638D01*
X0496Y01029D02*
Y01119D01*
X0492Y01029D02*
Y010564D01*
X04864Y01347D02*
X049162Y012948D01*
Y013202D01*
X04776Y01303D02*
X04798Y01281D01*
X048316Y012474D01*
X0478D02*
Y01299D01*
X04776Y01303D02*
Y01347D01*
Y01303D02*
Y01347D01*
X04709Y0132D02*
X04776D01*
Y01303D02*
X04798Y01281D01*
X04709Y013D02*
X04779D01*
X0482Y012474D02*
Y01259D01*
X047438Y012474D02*
X048316D01*
X048D02*
Y01279D01*
X049Y01029D02*
Y010364D01*
X04709Y0122D02*
X047164D01*
X04709Y0126D02*
X04819D01*
X04709Y0128D02*
X04799D01*
X04709Y012126D02*
X047438Y012474D01*
X04709Y0124D02*
X047364D01*
D51*
X052737Y01635D02*
Y01735D01*
X063637Y0125D02*
X0676D01*
X069029Y013929D02*
Y014879D01*
X0676Y0125D02*
X069029Y013929D01*
X06315Y012013D02*
X063637Y0125D01*
X066783Y013367D02*
X06685Y0133D01*
X066533Y013367D02*
X066783D01*
X066Y0139D02*
Y014896D01*
Y0139D02*
X066533Y013367D01*
X066Y014896D02*
X067257Y016153D01*
Y01635D01*
X06545Y013965D02*
Y0152D01*
X060813Y01595D02*
X0647D01*
X06545Y0152D01*
X0608Y015937D02*
X060813Y01595D01*
X062313Y01515D02*
X063Y014463D01*
X0608Y01515D02*
X062313D01*
X06315Y01055D02*
X0645Y0119D01*
X056018Y01055D02*
X06315D01*
X0645Y0119D02*
X06585D01*
X066187Y011547D02*
X06682Y010915D01*
X06585Y0119D02*
X066187Y011563D01*
X06682Y01082D02*
Y010915D01*
X066187Y011547D02*
Y011563D01*
X055418Y01115D02*
X056018Y01055D01*
X05535Y01115D02*
X055418D01*
X06494Y013455D02*
X06545Y013965D01*
X06494Y01336D02*
Y013455D01*
X0649Y01085D02*
X06492Y01087D01*
X06373Y01336D02*
X06494D01*
X06317Y0128D02*
X06373Y01336D01*
X06315Y0128D02*
X06317D01*
X0608Y013668D02*
Y01515D01*
X0606Y013468D02*
X0608Y013668D01*
X0606Y0134D02*
Y013468D01*
X055863Y01535D02*
X056466D01*
X0567Y015116D01*
X0566Y012492D02*
Y012518D01*
X0567Y012618D02*
Y015116D01*
X0566Y012518D02*
X0567Y012618D01*
X056768Y01235D02*
X0584D01*
X0566Y011508D02*
X057624D01*
X057732Y0114D01*
X0578D01*
X059892Y01515D02*
X0608D01*
X058492Y01655D02*
X059892Y01515D01*
X0482Y01325D02*
X05005Y0114D01*
X05135D01*
X0482Y01325D02*
Y0153D01*
X05215Y0122D02*
Y014763D01*
X05135Y0114D02*
X05215Y0122D01*
X04965Y013942D02*
X0505Y014792D01*
Y017584D01*
X0493Y0163D02*
X0499Y0169D01*
X0482Y0163D02*
X0493D01*
X0499Y0169D02*
Y0203D01*
X050574Y013942D02*
X050682Y01405D01*
X04965Y013942D02*
X050574D01*
X050682Y01405D02*
X05075D01*
X05051Y012098D02*
X050702D01*
X04965Y012958D02*
X05051Y012098D01*
X050702D02*
X05075Y01205D01*
X0512Y01523D02*
Y0153D01*
Y01523D02*
X0515Y01493D01*
Y0128D02*
Y01493D01*
X05075Y01205D02*
X0515Y0128D01*
X05215Y014763D02*
X052737Y01535D01*
X055437Y01805D01*
X05315Y012692D02*
Y013937D01*
X052737Y01435D02*
X05315Y013937D01*
X058492Y016576D02*
X059Y017084D01*
Y01805D01*
X058492Y01655D02*
Y016576D01*
X05995Y0189D02*
X060175Y018675D01*
Y018175D02*
X0603Y01805D01*
X060175Y018175D02*
Y018675D01*
X059Y0189D02*
X05995D01*
X057648Y018852D02*
X05845Y01805D01*
X059D01*
X057048Y018852D02*
X057648D01*
X057Y0189D02*
X057048Y018852D01*
X05125Y01835D02*
X051434D01*
X055Y01835D02*
X0553Y01865D01*
X0512Y0183D02*
X05125Y01835D01*
X051434Y01835D02*
X055D01*
X051434Y01835D02*
X051434Y01835D01*
X0553Y01865D02*
X056682D01*
X056932Y0189D01*
X057D01*
X055437Y01805D02*
X057D01*
X0551Y01595D02*
X0555Y01635D01*
X05535Y01315D02*
Y013218D01*
X055225Y013343D02*
X05535Y013218D01*
X0551Y013577D02*
Y01595D01*
X055225Y013343D02*
Y013452D01*
X0551Y013577D02*
X055225Y013452D01*
X0555Y01635D02*
X055863D01*
X055863Y01635D01*
Y017344D02*
Y01735D01*
X056639Y016568D02*
X05749D01*
X055863Y017344D02*
X056639Y016568D01*
X062218Y0128D02*
X06315D01*
X064532Y014532D02*
X0646Y0146D01*
X063068Y014532D02*
X064532D01*
X063Y014463D02*
X063068Y014532D01*
X06155Y0134D02*
X061618D01*
X062218Y0128D01*
X068632Y018319D02*
X069029Y017921D01*
X067257Y018319D02*
X068632D01*
X069029Y01635D02*
Y017921D01*
X067257Y014382D02*
X068531D01*
X069029Y014879D01*
Y01635D01*
X062537Y0114D02*
X06315Y012013D01*
X06155Y0114D02*
X062537D01*
X0606D02*
X06155D01*
X060552Y011448D02*
X0606Y0114D01*
X060366Y01225D02*
X060552Y012064D01*
X06Y01225D02*
X060366D01*
X060552Y011448D02*
Y012064D01*
X05965Y0126D02*
X06Y01225D01*
X05965Y0126D02*
Y0134D01*
X0587Y0114D02*
X05965D01*
X058652Y011448D02*
X0587Y0114D01*
X058652Y011448D02*
Y012098D01*
X0584Y01235D02*
X058652Y012098D01*
X0578Y0134D02*
X0587D01*
X063048Y018684D02*
Y018998D01*
X063Y018637D02*
X063048Y018684D01*
Y018998D02*
X06415Y0201D01*
Y02015D01*
X061Y020096D02*
X0613Y019796D01*
Y01805D02*
Y019796D01*
X061Y020096D02*
Y02015D01*
X0608Y015958D02*
X0613Y016458D01*
X0608Y015937D02*
Y015958D01*
X0613Y016458D02*
Y01805D01*
X060175Y017848D02*
X0603Y017973D01*
X059Y0189D02*
X059048Y018948D01*
X0603Y017973D02*
Y01805D01*
X05749Y016568D02*
X057508Y01655D01*
X0549Y01925D02*
X0558Y02015D01*
X05785D01*
X055321Y013121D02*
X05535Y01315D01*
X054498Y011848D02*
X055321Y012671D01*
Y013121D01*
X054498Y011198D02*
Y011848D01*
X05445Y01115D02*
X054498Y011198D01*
X054402Y013102D02*
X05445Y01315D01*
X053952Y013102D02*
X054402D01*
X05395Y0131D02*
X053952Y013102D01*
X05315Y012692D02*
X053176D01*
X053584Y0131D01*
X05395D01*
X053686Y011198D02*
X054402D01*
X05315Y011708D02*
X053176D01*
X053686Y011198D01*
X054402D02*
X05445Y01115D01*
X06535Y0193D02*
X0688D01*
X0681Y027819D02*
X0693Y026618D01*
X047634Y01735D02*
X04815D01*
X0482Y0173D01*
X0688Y0193D02*
X06925Y01975D01*
X0474Y017584D02*
Y02065D01*
X0681Y02275D02*
X06925Y0239D01*
X0474Y02065D02*
X0485Y02175D01*
X0474Y017584D02*
X047634Y01735D01*
X051536Y030186D02*
Y030255D01*
X0489Y02755D02*
X051536Y030186D01*
X06925Y01975D02*
Y0239D01*
X0693Y02395D02*
Y026618D01*
X0489Y0266D02*
Y02755D01*
X06925Y0239D02*
X0693Y02395D01*
X051536Y030255D02*
X05155Y030268D01*
X0499Y0203D02*
X0512Y0216D01*
X0505Y017584D02*
Y019082D01*
X0509Y019482D01*
X050734Y01735D02*
X05115D01*
X0505Y017584D02*
X050734Y01735D01*
X05115D02*
X0512Y0173D01*
X0509Y019482D02*
Y019508D01*
X04829Y01932D02*
Y019582D01*
X0482Y01923D02*
X04829Y01932D01*
X0482Y0183D02*
Y01923D01*
X04829Y019582D02*
X048308Y0196D01*
X0485Y02175D02*
X049292Y020958D01*
Y0196D02*
Y020958D01*
X0512Y0183D02*
Y01837D01*
X05165Y01882D01*
Y0202D01*
X050918Y020474D02*
X051376D01*
X05165Y0202D01*
X0509Y020492D02*
X050918Y020474D01*
X0485Y02375D02*
X0495Y02475D01*
X0512D01*
X0485Y02275D02*
Y02375D01*
X0512Y0216D02*
Y02375D01*
X0539Y01925D02*
Y0198D01*
X0532Y0205D02*
X0539Y0198D01*
X0532Y0205D02*
Y0216D01*
X05235Y022416D02*
X052584Y02265D01*
X053384D01*
X05235Y0198D02*
X0529Y01925D01*
X05235Y0198D02*
Y022416D01*
X053209Y022825D02*
Y023741D01*
Y022825D02*
X053384Y02265D01*
X0532Y02375D02*
X053209Y023741D01*
X0542Y02415D02*
Y024746D01*
X05495Y025496D01*
X053248Y023798D02*
X053848D01*
X0542Y02415D01*
X0532Y02375D02*
X053248Y023798D01*
X051248Y023702D02*
X051898D01*
X0512Y02375D02*
X051248Y023702D01*
X051898D02*
X0519Y0237D01*
X0523Y0241D01*
Y024468D01*
X052534Y024702D02*
X053152D01*
X0523Y024468D02*
X052534Y024702D01*
X053152D02*
X0532Y02475D01*
Y0258D01*
X0489Y0256D02*
X050932D01*
X051132Y0258D01*
X0512D01*
X06465Y0186D02*
X06535Y0193D01*
X0646Y0186D02*
X06465D01*
X06416Y02015D02*
X064791Y020782D01*
X0681D01*
X06415Y02015D02*
X06416D01*
X061D02*
X06415D01*
X05785D02*
X061D01*
X0549Y021154D02*
X05495Y021204D01*
X0549Y01925D02*
Y021154D01*
X05785Y0248D02*
Y026056D01*
X0564Y02335D02*
X05785Y0248D01*
X05495Y02335D02*
X0564D01*
X067933Y026017D02*
X0681Y02585D01*
X06415Y026056D02*
X064188Y026017D01*
X067933D01*
X061Y026056D02*
X06415D01*
X05785D02*
X061D01*
X067985Y027819D02*
X0681D01*
X0642Y028316D02*
X067487D01*
X067985Y027819D01*
X06Y028316D02*
X0642D01*
X059992Y028308D02*
X06Y028316D01*
X0558Y0283D02*
X055808Y028308D01*
X059992D01*
X05155Y0283D02*
X0558D01*
X06Y030284D02*
X0642D01*
X055808Y030276D02*
X059992D01*
X06Y030284D01*
X0558Y030268D02*
X055808Y030276D01*
X05155Y030268D02*
X0558D01*
D52*
X0681Y027819D02*
D03*
Y02275D02*
D03*
D53*
Y02585D02*
D03*
Y020782D02*
D03*
D54*
X06315Y0128D02*
D03*
X0608Y015937D02*
D03*
D55*
X06315Y012013D02*
D03*
X0608Y01515D02*
D03*
D56*
X0512Y0183D02*
D03*
Y0173D02*
D03*
Y0163D02*
D03*
Y0153D02*
D03*
X0482D02*
D03*
Y0163D02*
D03*
Y0173D02*
D03*
D57*
Y0183D02*
D03*
D58*
X0512Y0258D02*
D03*
X0532D02*
D03*
X0512Y02475D02*
D03*
X0532D02*
D03*
Y02375D02*
D03*
X0512D02*
D03*
X05075Y01205D02*
D03*
Y01405D02*
D03*
X05445Y01315D02*
D03*
Y01115D02*
D03*
X05535Y01315D02*
D03*
Y01115D02*
D03*
X057Y01805D02*
D03*
X059D02*
D03*
X0578Y0114D02*
D03*
Y0134D02*
D03*
X0587Y0114D02*
D03*
Y0134D02*
D03*
X05965D02*
D03*
Y0114D02*
D03*
X0606Y0134D02*
D03*
Y0114D02*
D03*
X06155D02*
D03*
Y0134D02*
D03*
X059Y0189D02*
D03*
X057D02*
D03*
X0512Y0216D02*
D03*
X0532D02*
D03*
D59*
X0481Y03025D02*
D03*
X06815Y0302D02*
D03*
X06855Y01125D02*
D03*
X04805D02*
D03*
D60*
X0489Y0266D02*
D03*
D61*
Y0256D02*
D03*
D62*
X0509Y020492D02*
D03*
Y019508D02*
D03*
X048308Y0196D02*
D03*
X049292D02*
D03*
X04965Y013942D02*
D03*
Y012958D02*
D03*
X05315Y012692D02*
D03*
Y011708D02*
D03*
X057508Y01655D02*
D03*
X058492D02*
D03*
X0566Y012492D02*
D03*
Y011508D02*
D03*
D63*
X0485Y02375D02*
D03*
Y02275D02*
D03*
D64*
Y02175D02*
D03*
D65*
X052737Y01435D02*
D03*
Y01535D02*
D03*
Y01635D02*
D03*
Y01735D02*
D03*
X055863D02*
D03*
Y01635D02*
D03*
Y01535D02*
D03*
D66*
Y01435D02*
D03*
D67*
X06494Y01336D02*
D03*
X06682Y01082D02*
D03*
X0649Y01085D02*
D03*
X06685Y0133D02*
D03*
D68*
X0613Y01805D02*
D03*
D69*
X0603D02*
D03*
D70*
X063Y014463D02*
D03*
D71*
Y018637D02*
D03*
D72*
X067257Y01635D02*
D03*
D73*
Y014382D02*
D03*
Y018319D02*
D03*
D74*
X069029Y01635D02*
D03*
D75*
X053384Y02265D02*
D03*
D76*
X050416D02*
D03*
D77*
X06415Y026056D02*
D03*
Y02015D02*
D03*
X061Y026056D02*
D03*
Y02015D02*
D03*
X05785Y026056D02*
D03*
Y02015D02*
D03*
D78*
X05495Y021204D02*
D03*
Y02335D02*
D03*
D79*
Y025496D02*
D03*
D80*
X0539Y01925D02*
D03*
X0529D02*
D03*
D81*
X0549D02*
D03*
D82*
X05155Y0283D02*
D03*
X0558D02*
D03*
X06Y028316D02*
D03*
X0642D02*
D03*
D83*
X05155Y030268D02*
D03*
X0558D02*
D03*
X06Y030284D02*
D03*
X0642D02*
D03*
D84*
X0646Y0146D02*
D03*
Y0186D02*
D03*
M02*
