G04*
G04 #@! TF.GenerationSoftware,Altium Limited,Altium Designer,21.0.8 (223)*
G04*
G04 Layer_Color=32768*
%FSTAX24Y24*%
%MOIN*%
G70*
G04*
G04 #@! TF.SameCoordinates,67FEE026-561A-4E2F-A948-FBB6D6F09F3B*
G04*
G04*
G04 #@! TF.FilePolarity,Positive*
G04*
G01*
G75*
%ADD16C,0.0039*%
%ADD86C,0.0020*%
D16*
X05257Y019772D02*
X05523D01*
X05257Y018315D02*
X05523D01*
X05257D02*
Y019772D01*
X05523Y018315D02*
Y019772D01*
D86*
X064233Y012406D02*
G03*
X064233Y012406I-001083J0D01*
G01*
X061883Y015544D02*
G03*
X061883Y015544I-001083J0D01*
G01*
X053617Y029284D02*
G03*
X053617Y029284I-002067J0D01*
G01*
X057867D02*
G03*
X057867Y029284I-002067J0D01*
G01*
X062067Y0293D02*
G03*
X062067Y0293I-002067J0D01*
G01*
X066267D02*
G03*
X066267Y0293I-002067J0D01*
G01*
X066427Y024767D02*
X069576D01*
Y028901D01*
X066427D02*
X069576D01*
X066427Y024767D02*
Y028901D01*
X051491Y018917D02*
Y021083D01*
X050309Y018917D02*
X051491D01*
X050309D02*
Y021083D01*
X051491D01*
X047449Y020776D02*
X049547D01*
Y024724D01*
X047449D02*
X049547D01*
X047449Y020776D02*
Y024724D01*
X047717Y020191D02*
X049883D01*
Y019009D02*
Y020191D01*
X047717Y019009D02*
X049883D01*
X047717D02*
Y020191D01*
X050241Y012367D02*
Y014533D01*
X049059Y012367D02*
X050241D01*
X049059D02*
Y014533D01*
X050241D01*
X056184Y013864D02*
Y017836D01*
X052416Y013864D02*
Y017836D01*
X056184D01*
X052416Y013864D02*
X056184D01*
X053741Y011117D02*
Y013283D01*
X052559Y011117D02*
X053741D01*
X052559D02*
Y013283D01*
X053741D01*
X056917Y017141D02*
X059083D01*
Y015959D02*
Y017141D01*
X056917Y015959D02*
X059083D01*
X056917D02*
Y017141D01*
X057191Y010917D02*
Y013083D01*
X056009Y010917D02*
X057191D01*
X056009D02*
Y013083D01*
X057191D01*
X062449Y01404D02*
X063551D01*
Y01906D01*
X062449D02*
X063551D01*
X062449Y01404D02*
Y01906D01*
X069403Y014618D02*
X072553D01*
Y018082D01*
X069403D02*
X072553D01*
X069403D02*
Y018535D01*
X068065D02*
X069403D01*
X066411Y017748D02*
Y019165D01*
X068065Y014086D02*
X069403D01*
Y014618D01*
X068065Y013574D02*
Y014086D01*
X066411Y013574D02*
X068065D01*
X066411D02*
Y014913D01*
X066608D01*
Y017748D01*
X066411D02*
X066608D01*
X066411Y019165D02*
X068065D01*
Y018535D02*
Y019165D01*
X053726Y022213D02*
Y023087D01*
X050074D02*
X053726D01*
X050074Y022213D02*
Y023087D01*
Y022213D02*
X053726D01*
X053946Y020181D02*
Y026519D01*
Y020181D02*
X056111D01*
Y026519D01*
X053946D02*
X056111D01*
X066427Y019699D02*
Y023833D01*
X069576D01*
Y019699D02*
Y023833D01*
X066427Y019699D02*
X069576D01*
M02*
