G04*
G04 #@! TF.GenerationSoftware,Altium Limited,Altium Designer,21.0.8 (223)*
G04*
G04 Layer_Color=128*
%FSTAX24Y24*%
%MOIN*%
G70*
G04*
G04 #@! TF.SameCoordinates,67FEE026-561A-4E2F-A948-FBB6D6F09F3B*
G04*
G04*
G04 #@! TF.FilePolarity,Positive*
G04*
G01*
G75*
%ADD87C,0.0020*%
D87*
X067824Y027819D02*
X068376D01*
X0681Y027543D02*
Y028094D01*
X067824Y02585D02*
X068376D01*
X0681Y025574D02*
Y026126D01*
X063012Y0128D02*
X063288D01*
X06315Y012662D02*
Y012938D01*
X063012Y012013D02*
X063288D01*
X06315Y011875D02*
Y01215D01*
X05098Y0183D02*
X05142D01*
X0512Y01808D02*
Y01852D01*
X05098Y0173D02*
X05142D01*
X0512Y01708D02*
Y01752D01*
X05098Y0163D02*
X05142D01*
X0512Y01608D02*
Y01652D01*
X05098Y0153D02*
X05142D01*
X0512Y01508D02*
Y01552D01*
X04798Y0153D02*
X04842D01*
X0482Y01508D02*
Y01552D01*
X04798Y0163D02*
X04842D01*
X0482Y01608D02*
Y01652D01*
X04798Y0173D02*
X04842D01*
X0482Y01708D02*
Y01752D01*
X04798Y0183D02*
X04842D01*
X0482Y01808D02*
Y01852D01*
X05106Y0258D02*
X05134D01*
X0512Y02566D02*
Y02594D01*
X05306Y0258D02*
X05334D01*
X0532Y02566D02*
Y02594D01*
X05106Y02475D02*
X05134D01*
X0512Y02461D02*
Y02489D01*
X05306Y02475D02*
X05334D01*
X0532Y02461D02*
Y02489D01*
X05306Y02375D02*
X05334D01*
X0532Y02361D02*
Y02389D01*
X05106Y02375D02*
X05134D01*
X0512Y02361D02*
Y02389D01*
X047509Y03025D02*
X048691D01*
X0481Y029659D02*
Y030841D01*
X067559Y0302D02*
X068741D01*
X06815Y029609D02*
Y030791D01*
X067959Y01125D02*
X069141D01*
X06855Y010659D02*
Y011841D01*
X047459Y01125D02*
X048641D01*
X04805Y010659D02*
Y011841D01*
X04874Y0266D02*
X04906D01*
X0489Y02644D02*
Y02676D01*
X04874Y0256D02*
X04906D01*
X0489Y02544D02*
Y02576D01*
X050752Y020492D02*
X051048D01*
X0509Y020344D02*
Y02064D01*
X050752Y019508D02*
X051048D01*
X0509Y01936D02*
Y019656D01*
X04836Y02375D02*
X04864D01*
X0485Y02361D02*
Y02389D01*
X04836Y02275D02*
X04864D01*
X0485Y02261D02*
Y02289D01*
X04836Y02175D02*
X04864D01*
X0485Y02161D02*
Y02189D01*
X04816Y0196D02*
X048456D01*
X048308Y019452D02*
Y019748D01*
X049144Y0196D02*
X04944D01*
X049292Y019452D02*
Y019748D01*
X049502Y013942D02*
X049798D01*
X04965Y013794D02*
Y01409D01*
X049502Y012958D02*
X049798D01*
X04965Y01281D02*
Y013106D01*
X05061Y01205D02*
X05089D01*
X05075Y01191D02*
Y01219D01*
X05061Y01405D02*
X05089D01*
X05075Y01391D02*
Y01419D01*
X052583Y01435D02*
X052891D01*
X052737Y014196D02*
Y014504D01*
X052583Y01535D02*
X052891D01*
X052737Y015196D02*
Y015504D01*
X052583Y01635D02*
X052891D01*
X052737Y016196D02*
Y016504D01*
X052583Y01735D02*
X052891D01*
X052737Y017196D02*
Y017504D01*
X055709Y01735D02*
X056017D01*
X055863Y017196D02*
Y017504D01*
X055709Y01635D02*
X056017D01*
X055863Y016196D02*
Y016504D01*
X055709Y01535D02*
X056017D01*
X055863Y015196D02*
Y015504D01*
X055709Y01435D02*
X056017D01*
X055863Y014196D02*
Y014504D01*
X053002Y012692D02*
X053298D01*
X05315Y012544D02*
Y01284D01*
X053002Y011708D02*
X053298D01*
X05315Y01156D02*
Y011856D01*
X05431Y01315D02*
X05459D01*
X05445Y01301D02*
Y01329D01*
X05431Y01115D02*
X05459D01*
X05445Y01101D02*
Y01129D01*
X05521Y01315D02*
X05549D01*
X05535Y01301D02*
Y01329D01*
X05521Y01115D02*
X05549D01*
X05535Y01101D02*
Y01129D01*
X05736Y01655D02*
X057656D01*
X057508Y016402D02*
Y016698D01*
X058344Y01655D02*
X05864D01*
X058492Y016402D02*
Y016698D01*
X05686Y01805D02*
X05714D01*
X057Y01791D02*
Y01819D01*
X05886Y01805D02*
X05914D01*
X059Y01791D02*
Y01819D01*
X056452Y012492D02*
X056748D01*
X0566Y012344D02*
Y01264D01*
X056452Y011508D02*
X056748D01*
X0566Y01136D02*
Y011656D01*
X05766Y0114D02*
X05794D01*
X0578Y01126D02*
Y01154D01*
X05766Y0134D02*
X05794D01*
X0578Y01326D02*
Y01354D01*
X05856Y0114D02*
X05884D01*
X0587Y01126D02*
Y01154D01*
X05856Y0134D02*
X05884D01*
X0587Y01326D02*
Y01354D01*
X05951Y0134D02*
X05979D01*
X05965Y01326D02*
Y01354D01*
X05951Y0114D02*
X05979D01*
X05965Y01126D02*
Y01154D01*
X06046Y0134D02*
X06074D01*
X0606Y01326D02*
Y01354D01*
X06046Y0114D02*
X06074D01*
X0606Y01126D02*
Y01154D01*
X06141Y0114D02*
X06169D01*
X06155Y01126D02*
Y01154D01*
X06141Y0134D02*
X06169D01*
X06155Y01326D02*
Y01354D01*
X064785Y01336D02*
X065095D01*
X06494Y013205D02*
Y013515D01*
X066665Y01082D02*
X066975D01*
X06682Y010665D02*
Y010975D01*
X064745Y01085D02*
X065055D01*
X0649Y010695D02*
Y011005D01*
X066695Y0133D02*
X067005D01*
X06685Y013145D02*
Y013455D01*
X06114Y01805D02*
X06146D01*
X0613Y01789D02*
Y01821D01*
X06014Y01805D02*
X06046D01*
X0603Y01789D02*
Y01821D01*
X05886Y0189D02*
X05914D01*
X059Y01876D02*
Y01904D01*
X05686Y0189D02*
X05714D01*
X057Y01876D02*
Y01904D01*
X060662Y015937D02*
X060938D01*
X0608Y0158D02*
Y016075D01*
X060662Y01515D02*
X060938D01*
X0608Y015012D02*
Y015288D01*
X062783Y014463D02*
X063217D01*
X063Y014247D02*
Y01468D01*
X062783Y018637D02*
X063217D01*
X063Y01842D02*
Y018853D01*
X066943Y01635D02*
X067572D01*
X067257Y016035D02*
Y016665D01*
X067061Y014382D02*
X067454D01*
X067257Y014185D02*
Y014578D01*
X067061Y018319D02*
X067454D01*
X067257Y018122D02*
Y018515D01*
X068439Y01635D02*
X06962D01*
X069029Y015759D02*
Y016941D01*
X05324Y02265D02*
X053527D01*
X053384Y022506D02*
Y022794D01*
X050273Y02265D02*
X05056D01*
X050416Y022506D02*
Y022794D01*
X063953Y026056D02*
X064347D01*
X06415Y025859D02*
Y026252D01*
X063953Y02015D02*
X064347D01*
X06415Y019953D02*
Y020347D01*
X060803Y026056D02*
X061197D01*
X061Y025859D02*
Y026252D01*
X060803Y02015D02*
X061197D01*
X061Y019953D02*
Y020347D01*
X057653Y026056D02*
X058047D01*
X05785Y025859D02*
Y026252D01*
X057653Y02015D02*
X058047D01*
X05785Y019953D02*
Y020347D01*
X054604Y021204D02*
X055296D01*
X05495Y020858D02*
Y021551D01*
X054604Y02335D02*
X055296D01*
X05495Y023004D02*
Y023696D01*
X054604Y025496D02*
X055296D01*
X05495Y025149D02*
Y025842D01*
X053782Y01925D02*
X054018D01*
X0539Y019132D02*
Y019368D01*
X054782Y01925D02*
X055018D01*
X0549Y019132D02*
Y019368D01*
X052782Y01925D02*
X053018D01*
X0529Y019132D02*
Y019368D01*
X05106Y0216D02*
X05134D01*
X0512Y02146D02*
Y02174D01*
X05306Y0216D02*
X05334D01*
X0532Y02146D02*
Y02174D01*
X051383Y0283D02*
X051717D01*
X05155Y028133D02*
Y028467D01*
X051383Y030268D02*
X051717D01*
X05155Y030101D02*
Y030436D01*
X055633Y0283D02*
X055967D01*
X0558Y028133D02*
Y028467D01*
X055633Y030268D02*
X055967D01*
X0558Y030101D02*
Y030436D01*
X059833Y028316D02*
X060167D01*
X06Y028148D02*
Y028483D01*
X059833Y030284D02*
X060167D01*
X06Y030117D02*
Y030452D01*
X064033Y028316D02*
X064367D01*
X0642Y028148D02*
Y028483D01*
X064033Y030284D02*
X064367D01*
X0642Y030117D02*
Y030452D01*
X064425Y0146D02*
X064775D01*
X0646Y014425D02*
Y014775D01*
X064425Y0186D02*
X064775D01*
X0646Y018425D02*
Y018775D01*
X067824Y020782D02*
X068376D01*
X0681Y020506D02*
Y021057D01*
X067824Y02275D02*
X068376D01*
X0681Y022474D02*
Y023026D01*
M02*
