G04*
G04 #@! TF.GenerationSoftware,Altium Limited,Altium Designer,21.0.8 (223)*
G04*
G04 Layer_Color=65535*
%FSTAX24Y24*%
%MOIN*%
G70*
G04*
G04 #@! TF.SameCoordinates,67FEE026-561A-4E2F-A948-FBB6D6F09F3B*
G04*
G04*
G04 #@! TF.FilePolarity,Positive*
G04*
G01*
G75*
%ADD10C,0.0079*%
%ADD11C,0.0050*%
%ADD12C,0.0060*%
%ADD13C,0.0070*%
%ADD14C,0.0157*%
%ADD15C,0.0100*%
%ADD16C,0.0039*%
D10*
X068139Y02463D02*
G03*
X068139Y02463I-000039J0D01*
G01*
X063189Y011186D02*
G03*
X063189Y011186I-000039J0D01*
G01*
X048539Y020683D02*
G03*
X048539Y020683I-000039J0D01*
G01*
X056322Y01435D02*
G03*
X056322Y01435I-000039J0D01*
G01*
X060839Y014323D02*
G03*
X060839Y014323I-000039J0D01*
G01*
X063039Y013745D02*
G03*
X063039Y013745I-000039J0D01*
G01*
X053908Y02265D02*
G03*
X053908Y02265I-000039J0D01*
G01*
X053789Y025496D02*
G03*
X053789Y025496I-000039J0D01*
G01*
X054822Y019598D02*
G03*
X054658Y019762I-000556J-000392D01*
G01*
X053152D02*
G03*
X052988Y019598I000392J-000556D01*
G01*
X051589Y02702D02*
G03*
X051589Y02702I-000039J0D01*
G01*
X055839D02*
G03*
X055839Y02702I-000039J0D01*
G01*
X060039Y027036D02*
G03*
X060039Y027036I-000039J0D01*
G01*
X064239D02*
G03*
X064239Y027036I-000039J0D01*
G01*
X068139Y019561D02*
G03*
X068139Y019561I-000039J0D01*
G01*
X053152Y019762D02*
X054648D01*
D11*
X064134Y012406D02*
G03*
X064134Y012406I-000984J0D01*
G01*
X061784Y015544D02*
G03*
X061784Y015544I-000984J0D01*
G01*
X053519Y029284D02*
G03*
X053519Y029284I-001969J0D01*
G01*
X057769D02*
G03*
X057769Y029284I-001969J0D01*
G01*
X061968Y0293D02*
G03*
X061968Y0293I-001969J0D01*
G01*
X066168D02*
G03*
X066168Y0293I-001969J0D01*
G01*
X066525Y028803D02*
X069478D01*
Y024866D02*
Y028803D01*
X066525Y024866D02*
X069478D01*
X066525D02*
Y028803D01*
X051392Y019016D02*
Y020984D01*
X050408Y019016D02*
Y020984D01*
X051392D01*
X050408Y019016D02*
X051392D01*
X049449Y020874D02*
Y024626D01*
X047547Y020874D02*
X049449D01*
X047547Y024626D02*
X049449D01*
X047547Y020874D02*
Y024626D01*
X047816Y020092D02*
X049784D01*
X047816Y019108D02*
X049784D01*
X047816D02*
Y020092D01*
X049784Y019108D02*
Y020092D01*
X050142Y012466D02*
Y014434D01*
X049158Y012466D02*
Y014434D01*
X050142D01*
X049158Y012466D02*
X050142D01*
X05305Y017738D02*
X05555D01*
X05305Y013962D02*
X05555D01*
X053642Y011216D02*
Y013184D01*
X052658Y011216D02*
Y013184D01*
X053642D01*
X052658Y011216D02*
X053642D01*
X057016Y017042D02*
X058984D01*
X057016Y016058D02*
X058984D01*
X057016D02*
Y017042D01*
X058984Y016058D02*
Y017042D01*
X057092Y011016D02*
Y012984D01*
X056108Y011016D02*
Y012984D01*
X057092D01*
X056108Y011016D02*
X057092D01*
X063Y014914D02*
Y015694D01*
Y017406D02*
Y018186D01*
X062547Y015694D02*
X063D01*
X063453D01*
Y017406D01*
X063D02*
X063453D01*
X062547D02*
X063D01*
X062547Y015694D02*
Y017406D01*
X069305Y014716D02*
X072454D01*
Y017984D01*
X069305D02*
X072454D01*
X069305D02*
Y018437D01*
X068084D02*
X069305D01*
Y014263D02*
Y014716D01*
X068045Y014263D02*
X069305D01*
X066746Y016665D02*
Y017669D01*
Y015011D02*
Y015996D01*
X052649Y022311D02*
Y022989D01*
X051151D02*
X052649D01*
X051151Y022311D02*
Y022989D01*
Y022311D02*
X052649D01*
X054044Y020279D02*
Y026421D01*
Y020279D02*
X056013D01*
Y026421D01*
X054044D02*
X056013D01*
X066525Y019797D02*
Y023734D01*
Y019797D02*
X069478D01*
Y023734D01*
X066525D02*
X069478D01*
D12*
X04958Y0188D02*
G03*
X04982Y0188I00012J0D01*
G01*
X0664Y01205D02*
G03*
X0664Y01205I-0005J0D01*
G01*
X04865Y0188D02*
X04958D01*
X04982D01*
X05107D01*
X04833Y0148D02*
X05107D01*
X06685Y0113D02*
Y01285D01*
X06535Y0109D02*
X0663D01*
X06485Y0113D02*
Y01284D01*
X06535Y01315D02*
X0663D01*
D13*
X048293Y027135D02*
G03*
X0495Y027139I000607J-001035D01*
G01*
X061835Y018657D02*
G03*
X061839Y01745I-001035J-000607D01*
G01*
X05274Y0258D02*
X05281D01*
X05172Y02548D02*
Y02614D01*
X05272Y02548D02*
Y02614D01*
X05172D02*
X05272D01*
X05172Y02548D02*
X05272D01*
X0516Y0258D02*
X05172D01*
X05274Y02475D02*
X05281D01*
X05172Y02443D02*
Y02509D01*
X05272Y02443D02*
Y02509D01*
X05172D02*
X05272D01*
X05172Y02443D02*
X05272D01*
X0516Y02475D02*
X05172D01*
X05159Y02375D02*
X05166D01*
X05268Y02341D02*
Y02407D01*
X05168Y02341D02*
Y02407D01*
Y02341D02*
X05268D01*
X05168Y02407D02*
X05268D01*
Y02375D02*
X0528D01*
X0483Y02714D02*
X04949D01*
X04806Y02551D02*
X04834D01*
X04821Y02536D02*
Y02566D01*
X05075Y01353D02*
Y01365D01*
X05043Y01253D02*
Y01353D01*
X05109Y01253D02*
Y01353D01*
X05043Y01253D02*
X05109D01*
X05043Y01353D02*
X05109D01*
X05075Y01244D02*
Y01251D01*
X05445Y01155D02*
Y01167D01*
X05477D02*
Y01267D01*
X05411Y01167D02*
Y01267D01*
X05477D01*
X05411Y01167D02*
X05477D01*
X05445Y01269D02*
Y01276D01*
X05535Y01155D02*
Y01167D01*
X05567D02*
Y01267D01*
X05501Y01167D02*
Y01267D01*
X05567D01*
X05501Y01167D02*
X05567D01*
X05535Y01269D02*
Y01276D01*
X05848Y01805D02*
X0586D01*
X05748Y01837D02*
X05848D01*
X05748Y01771D02*
X05848D01*
X05748D02*
Y01837D01*
X05848Y01771D02*
Y01837D01*
X05739Y01805D02*
X05746D01*
X0578Y01288D02*
Y013D01*
X05748Y01188D02*
Y01288D01*
X05814Y01188D02*
Y01288D01*
X05748Y01188D02*
X05814D01*
X05748Y01288D02*
X05814D01*
X0578Y01179D02*
Y01186D01*
X0587Y01288D02*
Y013D01*
X05838Y01188D02*
Y01288D01*
X05904Y01188D02*
Y01288D01*
X05838Y01188D02*
X05904D01*
X05838Y01288D02*
X05904D01*
X0587Y01179D02*
Y01186D01*
X05965Y0118D02*
Y01192D01*
X05997D02*
Y01292D01*
X05931Y01192D02*
Y01292D01*
X05997D01*
X05931Y01192D02*
X05997D01*
X05965Y01294D02*
Y01301D01*
X0606Y0118D02*
Y01192D01*
X06092D02*
Y01292D01*
X06026Y01192D02*
Y01292D01*
X06092D01*
X06026Y01192D02*
X06092D01*
X0606Y01294D02*
Y01301D01*
X06155Y01288D02*
Y013D01*
X06123Y01188D02*
Y01288D01*
X06189Y01188D02*
Y01288D01*
X06123Y01188D02*
X06189D01*
X06123Y01288D02*
X06189D01*
X06155Y01179D02*
Y01186D01*
X0647Y01091D02*
X06471Y0109D01*
X06184Y01746D02*
Y01865D01*
X06021Y01861D02*
Y01889D01*
X06006Y01874D02*
X06036D01*
X0574Y0189D02*
X05752D01*
Y01858D02*
X05852D01*
X05752Y01924D02*
X05852D01*
Y01858D02*
Y01924D01*
X05752Y01858D02*
Y01924D01*
X05854Y0189D02*
X05861D01*
X05268Y0216D02*
X0528D01*
X05168Y02192D02*
X05268D01*
X05168Y02126D02*
X05268D01*
X05168D02*
Y02192D01*
X05268Y02126D02*
Y02192D01*
X05159Y0216D02*
X05166D01*
X06459Y01777D02*
Y01818D01*
Y01504D02*
Y01542D01*
X06405D02*
Y01777D01*
Y01542D02*
X06515D01*
Y01777D01*
X06405D02*
X06515D01*
D14*
X066214Y014303D02*
G03*
X066214Y014303I-000079J0D01*
G01*
D15*
X052994Y018896D02*
G03*
X054819Y018896I000912J00041D01*
G01*
X062772Y019557D02*
X065528D01*
X062772Y026643D02*
X065528D01*
X062772Y019557D02*
Y026643D01*
X065528Y019557D02*
Y026643D01*
X059622Y019557D02*
X062378D01*
X059622Y026643D02*
X062378D01*
X059622Y019557D02*
Y026643D01*
X062378Y019557D02*
Y026643D01*
X056472Y019557D02*
X059228D01*
X056472Y026643D02*
X059228D01*
X056472Y019557D02*
Y026643D01*
X059228Y019557D02*
Y026643D01*
X0659Y0228D02*
X0663D01*
X0661Y023D02*
Y0226D01*
X06585Y0208D02*
X06625D01*
X06585Y02625D02*
X06575Y02615D01*
Y02595D01*
X06585Y02585D01*
X06625D01*
X06635Y02595D01*
Y02615D01*
X06625Y02625D01*
X06575Y02675D02*
Y02655D01*
X06585Y02645D01*
X06625D01*
X06635Y02655D01*
Y02675D01*
X06625Y02685D01*
X06585D01*
X06575Y02675D01*
Y02705D02*
Y02725D01*
Y02715D01*
X06635D01*
Y02705D01*
Y02725D01*
X06575Y027549D02*
X06635D01*
Y027949D01*
D16*
X063698Y011685D02*
Y01175D01*
Y011718D01*
X063502D01*
X063534Y011685D01*
Y011849D02*
X063502Y011882D01*
Y011947D01*
X063534Y01198D01*
X063666D01*
X063698Y011947D01*
Y011882D01*
X063666Y011849D01*
X063534D01*
X063567Y012046D02*
X063666D01*
X063698Y012078D01*
Y012177D01*
X063567D01*
X063502Y01257D02*
X063534Y012505D01*
X0636Y012439D01*
X063666D01*
X063698Y012472D01*
Y012537D01*
X063666Y01257D01*
X063633D01*
X0636Y012537D01*
Y012439D01*
X063698Y012636D02*
X063666D01*
Y012669D01*
X063698D01*
Y012636D01*
X063534Y0128D02*
X063502Y012833D01*
Y012898D01*
X063534Y012931D01*
X063567D01*
X0636Y012898D01*
Y012865D01*
Y012898D01*
X063633Y012931D01*
X063666D01*
X063698Y012898D01*
Y012833D01*
X063666Y0128D01*
X063502Y012997D02*
X063633D01*
X063698Y013062D01*
X063633Y013128D01*
X063502D01*
X049602Y025739D02*
X049798D01*
Y02587D01*
X049602Y026067D02*
Y025936D01*
X049798D01*
Y026067D01*
X0497Y025936D02*
Y026002D01*
X049602Y026133D02*
X049798D01*
Y026231D01*
X049766Y026264D01*
X049634D01*
X049602Y026231D01*
Y026133D01*
X049798Y026461D02*
Y02633D01*
X049667Y026461D01*
X049634D01*
X049602Y026428D01*
Y026362D01*
X049634Y02633D01*
X060472Y017348D02*
Y017152D01*
X060603D01*
X0608Y017348D02*
X060669D01*
Y017152D01*
X0608D01*
X060669Y01725D02*
X060734D01*
X060866Y017348D02*
Y017152D01*
X060964D01*
X060997Y017184D01*
Y017316D01*
X060964Y017348D01*
X060866D01*
X061062Y017152D02*
X061128D01*
X061095D01*
Y017348D01*
X061062Y017316D01*
X048903Y022284D02*
Y022022D01*
X0491D01*
X049034Y022153D01*
Y022219D01*
X0491Y022284D01*
X049231D01*
X049297Y022219D01*
Y022088D01*
X049231Y022022D01*
X048903Y022416D02*
X049297D01*
X049166D01*
X048903Y022678D01*
X0491Y022481D01*
X049297Y022678D01*
X05512Y015603D02*
Y015997D01*
X054858D01*
X054726D02*
Y015603D01*
X054595Y015734D01*
X054464Y015603D01*
Y015997D01*
X054333Y015669D02*
X054267Y015603D01*
X054136D01*
X05407Y015669D01*
Y015734D01*
X054136Y0158D01*
X054202D01*
X054136D01*
X05407Y015866D01*
Y015931D01*
X054136Y015997D01*
X054267D01*
X054333Y015931D01*
X053939Y015997D02*
X053808D01*
X053874D01*
Y015603D01*
X053939Y015669D01*
X053611Y015997D02*
X05348D01*
X053546D01*
Y015603D01*
X053611Y015669D01*
X050147Y015685D02*
X049753D01*
X050147Y015947D01*
X049753D01*
Y016341D02*
Y016078D01*
X050147D01*
Y016341D01*
X04995Y016078D02*
Y01621D01*
X049753Y016734D02*
Y016472D01*
X04995D01*
X049884Y016603D01*
Y016669D01*
X04995Y016734D01*
X050081D01*
X050147Y016669D01*
Y016538D01*
X050081Y016472D01*
X049753Y017128D02*
Y016866D01*
X04995D01*
X049884Y016997D01*
Y017062D01*
X04995Y017128D01*
X050081D01*
X050147Y017062D01*
Y016931D01*
X050081Y016866D01*
X049753Y017522D02*
Y017259D01*
X04995D01*
X049884Y01739D01*
Y017456D01*
X04995Y017522D01*
X050081D01*
X050147Y017456D01*
Y017325D01*
X050081Y017259D01*
X050147Y017653D02*
X049753D01*
X050147Y017915D01*
X049753D01*
X055448Y011806D02*
Y011871D01*
Y011838D01*
X055252D01*
X055284Y011806D01*
Y01197D02*
X055252Y012002D01*
Y012068D01*
X055284Y012101D01*
X055416D01*
X055448Y012068D01*
Y012002D01*
X055416Y01197D01*
X055284D01*
Y012166D02*
X055252Y012199D01*
Y012265D01*
X055284Y012298D01*
X055416D01*
X055448Y012265D01*
Y012199D01*
X055416Y012166D01*
X055284D01*
X055448Y012363D02*
X055252D01*
Y012462D01*
X055284Y012494D01*
X05535D01*
X055383Y012462D01*
Y012363D01*
Y012429D02*
X055448Y012494D01*
X054548Y011904D02*
Y01197D01*
Y011937D01*
X054352D01*
X054384Y011904D01*
Y012068D02*
X054352Y012101D01*
Y012166D01*
X054384Y012199D01*
X054516D01*
X054548Y012166D01*
Y012101D01*
X054516Y012068D01*
X054384D01*
X054352Y012265D02*
X054548D01*
X054483D01*
X054352Y012396D01*
X05445Y012298D01*
X054548Y012396D01*
X050816Y013262D02*
X050848Y01323D01*
Y013164D01*
X050816Y013131D01*
X050783D01*
X05075Y013164D01*
Y013197D01*
Y013164D01*
X050717Y013131D01*
X050684D01*
X050652Y013164D01*
Y01323D01*
X050684Y013262D01*
X050816Y013066D02*
X050848Y013033D01*
Y012967D01*
X050816Y012934D01*
X050783D01*
X05075Y012967D01*
Y013D01*
Y012967D01*
X050717Y012934D01*
X050684D01*
X050652Y012967D01*
Y013033D01*
X050684Y013066D01*
X050848Y012869D02*
X050652D01*
X050717D01*
X050848Y012738D01*
X05075Y012836D01*
X050652Y012738D01*
X052202Y025948D02*
Y025882D01*
Y025915D01*
X052398D01*
X052366Y025948D01*
X052398Y025784D02*
X052202D01*
X052267D01*
X052398Y025652D01*
X0523Y025751D01*
X052202Y025652D01*
X051906Y024866D02*
X051938Y024898D01*
X052004D01*
X052037Y024866D01*
Y024833D01*
X052004Y0248D01*
X051971D01*
X052004D01*
X052037Y024767D01*
Y024734D01*
X052004Y024702D01*
X051938D01*
X051906Y024734D01*
X052102Y024702D02*
Y024734D01*
X052135D01*
Y024702D01*
X052102D01*
X052266Y024866D02*
X052299Y024898D01*
X052365D01*
X052398Y024866D01*
Y024833D01*
X052365Y0248D01*
X052332D01*
X052365D01*
X052398Y024767D01*
Y024734D01*
X052365Y024702D01*
X052299D01*
X052266Y024734D01*
X052463Y024898D02*
Y024702D01*
Y024767D01*
X052594Y024898D01*
X052496Y0248D01*
X052594Y024702D01*
X058602Y012646D02*
Y01258D01*
Y012613D01*
X058798D01*
X058766Y012646D01*
Y012482D02*
X058798Y012449D01*
Y012384D01*
X058766Y012351D01*
X058634D01*
X058602Y012384D01*
Y012449D01*
X058634Y012482D01*
X058766D01*
X058798Y012285D02*
X058602D01*
X058667D01*
X058798Y012154D01*
X0587Y012252D01*
X058602Y012154D01*
X059798Y012056D02*
Y012121D01*
Y012088D01*
X059602D01*
X059634Y012056D01*
Y01222D02*
X059602Y012252D01*
Y012318D01*
X059634Y012351D01*
X059766D01*
X059798Y012318D01*
Y012252D01*
X059766Y01222D01*
X059634D01*
Y012416D02*
X059602Y012449D01*
Y012515D01*
X059634Y012548D01*
X059766D01*
X059798Y012515D01*
Y012449D01*
X059766Y012416D01*
X059634D01*
X059798Y012613D02*
X059602D01*
Y012712D01*
X059634Y012744D01*
X0597D01*
X059733Y012712D01*
Y012613D01*
Y012679D02*
X059798Y012744D01*
X061452Y012662D02*
X061648D01*
X06155Y012761D01*
Y01263D01*
X061648Y012564D02*
Y012433D01*
X061616D01*
X061484Y012564D01*
X061452D01*
X061616Y012367D02*
X061648Y012334D01*
Y012269D01*
X061616Y012236D01*
X061484D01*
X061452Y012269D01*
Y012334D01*
X061484Y012367D01*
X061616D01*
X061452Y01217D02*
X061648D01*
Y012072D01*
X061616Y012039D01*
X06155D01*
X061517Y012072D01*
Y01217D01*
Y012105D02*
X061452Y012039D01*
X058148Y017902D02*
Y017968D01*
Y017935D01*
X057952D01*
X057984Y017902D01*
X057952Y018066D02*
X058148D01*
X058083D01*
X057952Y018198D01*
X05805Y018099D01*
X058148Y018198D01*
X060452Y012548D02*
Y012482D01*
Y012515D01*
X060648D01*
X060616Y012548D01*
X060648Y012384D02*
X060452D01*
X060517D01*
X060648Y012252D01*
X06055Y012351D01*
X060452Y012252D01*
X057702Y01263D02*
Y012761D01*
X057833Y01263D01*
X057866D01*
X057898Y012662D01*
Y012728D01*
X057866Y012761D01*
X057702Y012433D02*
Y012564D01*
X057833Y012433D01*
X057866D01*
X057898Y012466D01*
Y012531D01*
X057866Y012564D01*
Y012367D02*
X057898Y012334D01*
Y012269D01*
X057866Y012236D01*
X057734D01*
X057702Y012269D01*
Y012334D01*
X057734Y012367D01*
X057866D01*
X057702Y01217D02*
X057898D01*
Y012072D01*
X057866Y012039D01*
X0578D01*
X057767Y012072D01*
Y01217D01*
Y012105D02*
X057702Y012039D01*
X057787Y018852D02*
X057656D01*
X057787Y018983D01*
Y019016D01*
X057754Y019048D01*
X057688D01*
X057656Y019016D01*
X057852Y018852D02*
Y018884D01*
X057885D01*
Y018852D01*
X057852D01*
X058148D02*
X058016D01*
X058148Y018983D01*
Y019016D01*
X058115Y019048D01*
X058049D01*
X058016Y019016D01*
X058213Y019048D02*
Y018852D01*
Y018917D01*
X058344Y019048D01*
X058246Y01895D01*
X058344Y018852D01*
X064469Y015321D02*
X064403Y015386D01*
Y015518D01*
X064469Y015583D01*
X064534D01*
X0646Y015518D01*
Y015452D01*
Y015518D01*
X064666Y015583D01*
X064731D01*
X064797Y015518D01*
Y015386D01*
X064731Y015321D01*
X064469Y015714D02*
X064403Y01578D01*
Y015911D01*
X064469Y015977D01*
X064534D01*
X0646Y015911D01*
Y015846D01*
Y015911D01*
X064666Y015977D01*
X064731D01*
X064797Y015911D01*
Y01578D01*
X064731Y015714D01*
X064469Y016108D02*
X064403Y016174D01*
Y016305D01*
X064469Y01637D01*
X064731D01*
X064797Y016305D01*
Y016174D01*
X064731Y016108D01*
X064469D01*
X064797Y016502D02*
X064403D01*
Y016698D01*
X064469Y016764D01*
X0646D01*
X064666Y016698D01*
Y016502D01*
Y016633D02*
X064797Y016764D01*
Y017289D02*
Y01742D01*
Y017354D01*
X064403D01*
X064469Y017289D01*
X064403Y017617D02*
X064797D01*
X064666Y017748D01*
X064797Y017879D01*
X064403D01*
X052855Y023848D02*
X052986D01*
X052855Y023717D01*
Y023684D01*
X052888Y023652D01*
X052954D01*
X052986Y023684D01*
X05279Y023652D02*
X052658D01*
Y023684D01*
X05279Y023816D01*
Y023848D01*
X052593Y023684D02*
X05256Y023652D01*
X052494D01*
X052462Y023684D01*
Y023816D01*
X052494Y023848D01*
X05256D01*
X052593Y023816D01*
Y023684D01*
X052396Y023848D02*
Y023652D01*
X052298D01*
X052265Y023684D01*
Y02375D01*
X052298Y023783D01*
X052396D01*
X05233D02*
X052265Y023848D01*
X052002D02*
X051937D01*
X05197D01*
Y023652D01*
X052002Y023684D01*
X051838Y023848D02*
X051707Y023717D01*
X051543Y023848D02*
Y023652D01*
X051642Y02375D01*
X05151D01*
X051445Y023652D02*
Y023848D01*
X051379Y023783D01*
X051314Y023848D01*
Y023652D01*
X052888Y021698D02*
Y021502D01*
X052986Y0216D01*
X052855D01*
X05279Y021502D02*
X052658D01*
Y021534D01*
X05279Y021666D01*
Y021698D01*
X052593Y021534D02*
X05256Y021502D01*
X052494D01*
X052462Y021534D01*
Y021666D01*
X052494Y021698D01*
X05256D01*
X052593Y021666D01*
Y021534D01*
X052396Y021698D02*
Y021502D01*
X052298D01*
X052265Y021534D01*
Y0216D01*
X052298Y021633D01*
X052396D01*
X05233D02*
X052265Y021698D01*
X052002D02*
X051937D01*
X05197D01*
Y021502D01*
X052002Y021534D01*
X051838Y021698D02*
X051707Y021567D01*
X051642Y021534D02*
X051609Y021502D01*
X051543D01*
X05151Y021534D01*
Y021567D01*
X051543Y0216D01*
X05151Y021633D01*
Y021666D01*
X051543Y021698D01*
X051609D01*
X051642Y021666D01*
Y021633D01*
X051609Y0216D01*
X051642Y021567D01*
Y021534D01*
X051609Y0216D02*
X051543D01*
X051445Y021502D02*
Y021698D01*
X051379Y021633D01*
X051314Y021698D01*
Y021502D01*
X054409Y018652D02*
Y018848D01*
X054311D01*
X054278Y018816D01*
Y018783D01*
X054311Y01875D01*
X054409D01*
X054311D01*
X054278Y018717D01*
Y018684D01*
X054311Y018652D01*
X054409D01*
X054081Y018684D02*
X054114Y018652D01*
X05418D01*
X054212Y018684D01*
Y018816D01*
X05418Y018848D01*
X054114D01*
X054081Y018816D01*
X054016Y018684D02*
X053983Y018652D01*
X053917D01*
X053884Y018684D01*
Y018717D01*
X053917Y01875D01*
X05395D01*
X053917D01*
X053884Y018783D01*
Y018816D01*
X053917Y018848D01*
X053983D01*
X054016Y018816D01*
X053688Y018848D02*
X053819D01*
X053688Y018717D01*
Y018684D01*
X05372Y018652D01*
X053786D01*
X053819Y018684D01*
X053622Y018652D02*
X053491D01*
Y018684D01*
X053622Y018816D01*
Y018848D01*
X054312Y022348D02*
X054378D01*
X054345D01*
Y022152D01*
X054312D01*
X054378D01*
X054476D02*
Y022348D01*
X054574D01*
X054607Y022316D01*
Y02225D01*
X054574Y022217D01*
X054476D01*
X054542D02*
X054607Y022152D01*
X054804Y022348D02*
X054673D01*
Y02225D01*
X054738D01*
X054673D01*
Y022152D01*
X05487D02*
Y022348D01*
X054968D01*
X055001Y022316D01*
Y02225D01*
X054968Y022217D01*
X05487D01*
X055198Y022152D02*
X055066D01*
X055198Y022283D01*
Y022316D01*
X055165Y022348D01*
X055099D01*
X055066Y022316D01*
X055394Y022348D02*
X055329Y022316D01*
X055263Y02225D01*
Y022184D01*
X055296Y022152D01*
X055362D01*
X055394Y022184D01*
Y022217D01*
X055362Y02225D01*
X055263D01*
X05546Y022316D02*
X055493Y022348D01*
X055558D01*
X055591Y022316D01*
Y022184D01*
X055558Y022152D01*
X055493D01*
X05546Y022184D01*
Y022316D01*
X055657Y022152D02*
Y022348D01*
X055788Y022152D01*
Y022348D01*
X067223Y015062D02*
Y015338D01*
X067361D01*
X067407Y015292D01*
Y0152D01*
X067361Y015154D01*
X067223D01*
X067315D02*
X067407Y015062D01*
X067682Y015292D02*
X067636Y015338D01*
X067544D01*
X067499Y015292D01*
Y015108D01*
X067544Y015062D01*
X067636D01*
X067682Y015108D01*
X067774Y015062D02*
Y015246D01*
X067866Y015338D01*
X067958Y015246D01*
Y015062D01*
Y0152D01*
X067774D01*
X06805D02*
X068233D01*
X068509Y015338D02*
X068417D01*
X068463D01*
Y015108D01*
X068417Y015062D01*
X068371D01*
X068325Y015108D01*
X068601Y015062D02*
Y015246D01*
X068692Y015338D01*
X068784Y015246D01*
Y015062D01*
Y0152D01*
X068601D01*
X06906Y015292D02*
X069014Y015338D01*
X068922D01*
X068876Y015292D01*
Y015108D01*
X068922Y015062D01*
X069014D01*
X06906Y015108D01*
X069152Y015338D02*
Y015062D01*
Y015154D01*
X069335Y015338D01*
X069197Y0152D01*
X069335Y015062D01*
X052425Y022648D02*
X052359D01*
X052392D01*
Y022452D01*
X052425Y022484D01*
X052261Y022648D02*
Y022452D01*
X05213Y022648D01*
Y022452D01*
X051966Y022648D02*
Y022452D01*
X052064Y02255D01*
X051933D01*
X051867Y022648D02*
X051802D01*
X051834D01*
Y022452D01*
X051867Y022484D01*
X051605Y022648D02*
Y022452D01*
X051703Y02255D01*
X051572D01*
X051506Y022484D02*
X051474Y022452D01*
X051408D01*
X051375Y022484D01*
Y022517D01*
X051408Y02255D01*
X051375Y022583D01*
Y022616D01*
X051408Y022648D01*
X051474D01*
X051506Y022616D01*
Y022583D01*
X051474Y02255D01*
X051506Y022517D01*
Y022484D01*
X051474Y02255D02*
X051408D01*
X063098Y015959D02*
Y016024D01*
Y015992D01*
X062902D01*
X062934Y015959D01*
X063098Y016123D02*
X062902D01*
X063098Y016254D01*
X062902D01*
X063098Y016418D02*
X062902D01*
X063Y01632D01*
Y016451D01*
X062902Y016516D02*
Y016648D01*
X062934D01*
X063066Y016516D01*
X063098D01*
Y016812D02*
X062902D01*
X063Y016713D01*
Y016844D01*
X063098Y017041D02*
Y01691D01*
X062967Y017041D01*
X062934D01*
X062902Y017008D01*
Y016943D01*
X062934Y01691D01*
X052602Y012873D02*
Y012808D01*
Y01284D01*
X052798D01*
X052766Y012873D01*
Y012709D02*
X052798Y012676D01*
Y012611D01*
X052766Y012578D01*
X052634D01*
X052602Y012611D01*
Y012676D01*
X052634Y012709D01*
X052766D01*
X052602Y012512D02*
X052733D01*
Y012414D01*
X0527Y012381D01*
X052602D01*
Y012119D02*
Y012053D01*
Y012086D01*
X052798D01*
X052766Y012119D01*
X052798Y011824D02*
X052766Y011889D01*
X0527Y011955D01*
X052634D01*
X052602Y011922D01*
Y011856D01*
X052634Y011824D01*
X052667D01*
X0527Y011856D01*
Y011955D01*
X052798Y011758D02*
X052667D01*
X052602Y011692D01*
X052667Y011627D01*
X052798D01*
X049152Y014131D02*
Y014065D01*
Y014098D01*
X049348D01*
X049316Y014131D01*
Y013967D02*
X049348Y013934D01*
Y013869D01*
X049316Y013836D01*
X049184D01*
X049152Y013869D01*
Y013934D01*
X049184Y013967D01*
X049316D01*
X049152Y01377D02*
X049283D01*
Y013672D01*
X04925Y013639D01*
X049152D01*
Y013377D02*
Y013311D01*
Y013344D01*
X049348D01*
X049316Y013377D01*
X049348Y013082D02*
X049316Y013147D01*
X04925Y013213D01*
X049184D01*
X049152Y01318D01*
Y013114D01*
X049184Y013082D01*
X049217D01*
X04925Y013114D01*
Y013213D01*
X049348Y013016D02*
X049217D01*
X049152Y01295D01*
X049217Y012885D01*
X049348D01*
X048169Y020002D02*
Y020198D01*
X048071Y0201D01*
X048202D01*
X048267Y020002D02*
Y020034D01*
X0483D01*
Y020002D01*
X048267D01*
X048431Y020198D02*
X048563D01*
Y020166D01*
X048431Y020034D01*
Y020002D01*
X048628D02*
Y020133D01*
X048727D01*
X048759Y0201D01*
Y020002D01*
X049022D02*
X049087D01*
X049055D01*
Y020198D01*
X049022Y020166D01*
X049317Y020198D02*
X049251Y020166D01*
X049186Y0201D01*
Y020034D01*
X049219Y020002D01*
X049284D01*
X049317Y020034D01*
Y020067D01*
X049284Y0201D01*
X049186D01*
X049382Y020198D02*
Y020067D01*
X049448Y020002D01*
X049514Y020067D01*
Y020198D01*
X058729Y017148D02*
X058664D01*
X058697D01*
Y016952D01*
X058729Y016984D01*
X058565D02*
X058533Y016952D01*
X058467D01*
X058434Y016984D01*
Y017116D01*
X058467Y017148D01*
X058533D01*
X058565Y017116D01*
Y016984D01*
X058369D02*
X058336Y016952D01*
X05827D01*
X058237Y016984D01*
Y017116D01*
X05827Y017148D01*
X058336D01*
X058369Y017116D01*
Y016984D01*
X058172Y017148D02*
Y017017D01*
X058073D01*
X058041Y01705D01*
Y017148D01*
X057778D02*
X057713D01*
X057745D01*
Y016952D01*
X057778Y016984D01*
X057483Y016952D02*
X057549Y016984D01*
X057614Y01705D01*
Y017116D01*
X057582Y017148D01*
X057516D01*
X057483Y017116D01*
Y017083D01*
X057516Y01705D01*
X057614D01*
X057418Y016952D02*
Y017083D01*
X057352Y017148D01*
X057286Y017083D01*
Y016952D01*
X051448Y019425D02*
Y019491D01*
Y019458D01*
X051252D01*
X051284Y019425D01*
X051317Y019589D02*
X051416D01*
X051448Y019622D01*
Y01972D01*
X051317D01*
X051448Y019983D02*
Y020048D01*
Y020016D01*
X051252D01*
X051284Y019983D01*
X051252Y020278D02*
X051284Y020212D01*
X05135Y020147D01*
X051416D01*
X051448Y02018D01*
Y020245D01*
X051416Y020278D01*
X051383D01*
X05135Y020245D01*
Y020147D01*
X051252Y020344D02*
X051383D01*
X051448Y020409D01*
X051383Y020475D01*
X051252D01*
X056052Y012673D02*
Y012608D01*
Y01264D01*
X056248D01*
X056216Y012673D01*
Y012509D02*
X056248Y012476D01*
Y012411D01*
X056216Y012378D01*
X056084D01*
X056052Y012411D01*
Y012476D01*
X056084Y012509D01*
X056216D01*
X056052Y012312D02*
X056183D01*
Y012214D01*
X05615Y012181D01*
X056052D01*
Y011919D02*
Y011853D01*
Y011886D01*
X056248D01*
X056216Y011919D01*
X056248Y011624D02*
X056216Y011689D01*
X05615Y011755D01*
X056084D01*
X056052Y011722D01*
Y011656D01*
X056084Y011624D01*
X056117D01*
X05615Y011656D01*
Y011755D01*
X056248Y011558D02*
X056117D01*
X056052Y011492D01*
X056117Y011427D01*
X056248D01*
X064197Y021854D02*
Y021985D01*
Y021919D01*
X063803D01*
X063869Y021854D01*
Y022182D02*
X063803Y022247D01*
Y022378D01*
X063869Y022444D01*
X064131D01*
X064197Y022378D01*
Y022247D01*
X064131Y022182D01*
X063869D01*
X064197Y022575D02*
X063934D01*
Y022772D01*
X064Y022838D01*
X064197D01*
Y023362D02*
Y023494D01*
Y023428D01*
X063803D01*
X063869Y023362D01*
X063803Y023953D02*
X063869Y023822D01*
X064Y02369D01*
X064131D01*
X064197Y023756D01*
Y023887D01*
X064131Y023953D01*
X064066D01*
X064Y023887D01*
Y02369D01*
X063803Y024084D02*
X064066D01*
X064197Y024215D01*
X064066Y024346D01*
X063803D01*
X061047Y021854D02*
Y021985D01*
Y021919D01*
X060653D01*
X060719Y021854D01*
Y022182D02*
X060653Y022247D01*
Y022378D01*
X060719Y022444D01*
X060981D01*
X061047Y022378D01*
Y022247D01*
X060981Y022182D01*
X060719D01*
X061047Y022575D02*
X060784D01*
Y022772D01*
X06085Y022838D01*
X061047D01*
Y023362D02*
Y023494D01*
Y023428D01*
X060653D01*
X060719Y023362D01*
X060653Y023953D02*
X060719Y023822D01*
X06085Y02369D01*
X060981D01*
X061047Y023756D01*
Y023887D01*
X060981Y023953D01*
X060916D01*
X06085Y023887D01*
Y02369D01*
X060653Y024084D02*
X060916D01*
X061047Y024215D01*
X060916Y024346D01*
X060653D01*
X058047Y021854D02*
Y021985D01*
Y021919D01*
X057653D01*
X057719Y021854D01*
Y022182D02*
X057653Y022247D01*
Y022378D01*
X057719Y022444D01*
X057981D01*
X058047Y022378D01*
Y022247D01*
X057981Y022182D01*
X057719D01*
X058047Y022575D02*
X057784D01*
Y022772D01*
X05785Y022838D01*
X058047D01*
Y023362D02*
Y023494D01*
Y023428D01*
X057653D01*
X057719Y023362D01*
X057653Y023953D02*
X057719Y023822D01*
X05785Y02369D01*
X057981D01*
X058047Y023756D01*
Y023887D01*
X057981Y023953D01*
X057916D01*
X05785Y023887D01*
Y02369D01*
X057653Y024084D02*
X057916D01*
X058047Y024215D01*
X057916Y024346D01*
X057653D01*
X060448Y014816D02*
Y014881D01*
Y014849D01*
X060252D01*
X060284Y014816D01*
Y01498D02*
X060252Y015013D01*
Y015078D01*
X060284Y015111D01*
X060416D01*
X060448Y015078D01*
Y015013D01*
X060416Y01498D01*
X060284D01*
Y015177D02*
X060252Y015209D01*
Y015275D01*
X060284Y015308D01*
X060416D01*
X060448Y015275D01*
Y015209D01*
X060416Y015177D01*
X060284D01*
X060317Y015373D02*
X060416D01*
X060448Y015406D01*
Y015505D01*
X060317D01*
X060448Y015767D02*
Y015833D01*
Y0158D01*
X060252D01*
X060284Y015767D01*
X060252Y016062D02*
X060284Y015997D01*
X06035Y015931D01*
X060416D01*
X060448Y015964D01*
Y016029D01*
X060416Y016062D01*
X060383D01*
X06035Y016029D01*
Y015931D01*
X060252Y016128D02*
X060383D01*
X060448Y016193D01*
X060383Y016259D01*
X060252D01*
X06326Y02912D02*
X063391D01*
X063326D01*
Y029514D01*
X06326Y029448D01*
X063588D02*
X063654Y029514D01*
X063785D01*
X06385Y029448D01*
Y029186D01*
X063785Y02912D01*
X063654D01*
X063588Y029186D01*
Y029448D01*
X063982D02*
X064047Y029514D01*
X064178D01*
X064244Y029448D01*
Y029186D01*
X064178Y02912D01*
X064047D01*
X063982Y029186D01*
Y029448D01*
X064375Y029382D02*
Y029186D01*
X064441Y02912D01*
X064638D01*
Y029382D01*
X065031Y029514D02*
X064769D01*
Y029317D01*
X0649D01*
X064769D01*
Y02912D01*
X05906D02*
X059191D01*
X059126D01*
Y029514D01*
X05906Y029448D01*
X059388D02*
X059454Y029514D01*
X059585D01*
X05965Y029448D01*
Y029186D01*
X059585Y02912D01*
X059454D01*
X059388Y029186D01*
Y029448D01*
X059782D02*
X059847Y029514D01*
X059978D01*
X060044Y029448D01*
Y029186D01*
X059978Y02912D01*
X059847D01*
X059782Y029186D01*
Y029448D01*
X060175Y029382D02*
Y029186D01*
X060241Y02912D01*
X060438D01*
Y029382D01*
X060831Y029514D02*
X060569D01*
Y029317D01*
X0607D01*
X060569D01*
Y02912D01*
X05486Y029104D02*
X054991D01*
X054926D01*
Y029498D01*
X05486Y029432D01*
X055188D02*
X055254Y029498D01*
X055385D01*
X05545Y029432D01*
Y02917D01*
X055385Y029104D01*
X055254D01*
X055188Y02917D01*
Y029432D01*
X055582D02*
X055647Y029498D01*
X055778D01*
X055844Y029432D01*
Y02917D01*
X055778Y029104D01*
X055647D01*
X055582Y02917D01*
Y029432D01*
X055975Y029367D02*
Y02917D01*
X056041Y029104D01*
X056238D01*
Y029367D01*
X056631Y029498D02*
X056369D01*
Y029301D01*
X0565D01*
X056369D01*
Y029104D01*
X05061D02*
X050741D01*
X050676D01*
Y029498D01*
X05061Y029432D01*
X050938D02*
X051004Y029498D01*
X051135D01*
X0512Y029432D01*
Y02917D01*
X051135Y029104D01*
X051004D01*
X050938Y02917D01*
Y029432D01*
X051332D02*
X051397Y029498D01*
X051528D01*
X051594Y029432D01*
Y02917D01*
X051528Y029104D01*
X051397D01*
X051332Y02917D01*
Y029432D01*
X051725Y029367D02*
Y02917D01*
X051791Y029104D01*
X051988D01*
Y029367D01*
X052381Y029498D02*
X052119D01*
Y029301D01*
X05225D01*
X052119D01*
Y029104D01*
X066007Y01289D02*
X065693D01*
Y012732D01*
X065745Y01268D01*
X065798D01*
X06585Y012732D01*
Y01289D01*
Y012732D01*
X065902Y01268D01*
X065955D01*
X066007Y012732D01*
Y01289D01*
X065902Y012575D02*
X065745D01*
X065693Y012522D01*
Y012365D01*
X065902D01*
X065955Y012207D02*
X065902D01*
Y01226D01*
Y012155D01*
Y012207D01*
X065745D01*
X065693Y012155D01*
X065955Y011945D02*
X065902D01*
Y011998D01*
Y011893D01*
Y011945D01*
X065745D01*
X065693Y011893D01*
Y011683D02*
Y011578D01*
X065745Y011525D01*
X06585D01*
X065902Y011578D01*
Y011683D01*
X06585Y011735D01*
X065745D01*
X065693Y011683D01*
Y01142D02*
X065902D01*
Y011263D01*
X06585Y01121D01*
X065693D01*
M02*
