G04*
G04 #@! TF.GenerationSoftware,Altium Limited,Altium Designer,21.0.8 (223)*
G04*
G04 Layer_Color=255*
%FSTAX24Y24*%
%MOIN*%
G70*
G04*
G04 #@! TF.SameCoordinates,67FEE026-561A-4E2F-A948-FBB6D6F09F3B*
G04*
G04*
G04 #@! TF.FilePolarity,Positive*
G04*
G01*
G75*
%ADD52C,0.0827*%
%ADD53R,0.0827X0.0827*%
%ADD54C,0.0476*%
%ADD55R,0.0476X0.0476*%
%ADD56C,0.0660*%
%ADD57R,0.0660X0.0660*%
%ADD58C,0.0650*%
%ADD59C,0.1969*%
%ADD60O,0.1000X0.0650*%
%ADD61R,0.1000X0.0650*%
%ADD62C,0.0495*%
%ADD63C,0.0480*%
%ADD64R,0.0480X0.0480*%
%ADD65C,0.0445*%
%ADD66R,0.0445X0.0445*%
%ADD67C,0.0750*%
%ADD68O,0.0650X0.1000*%
%ADD69R,0.0650X0.1000*%
%ADD70R,0.0650X0.0650*%
%ADD71C,0.0650*%
G04:AMPARAMS|DCode=72|XSize=47.2mil|YSize=86.6mil|CornerRadius=11.8mil|HoleSize=0mil|Usage=FLASHONLY|Rotation=180.000|XOffset=0mil|YOffset=0mil|HoleType=Round|Shape=RoundedRectangle|*
%AMROUNDEDRECTD72*
21,1,0.0472,0.0630,0,0,180.0*
21,1,0.0236,0.0866,0,0,180.0*
1,1,0.0236,-0.0118,0.0315*
1,1,0.0236,0.0118,0.0315*
1,1,0.0236,0.0118,-0.0315*
1,1,0.0236,-0.0118,-0.0315*
%
%ADD72ROUNDEDRECTD72*%
%ADD73O,0.1575X0.0787*%
%ADD74O,0.0787X0.1575*%
%ADD75R,0.0487X0.0487*%
%ADD76C,0.0487*%
%ADD77C,0.0669*%
%ADD78C,0.1039*%
%ADD79R,0.1039X0.1039*%
%ADD80C,0.0394*%
%ADD81R,0.0394X0.0394*%
%ADD82R,0.0472X0.0472*%
%ADD83C,0.0472*%
%ADD84C,0.0850*%
D52*
X0681Y027819D02*
D03*
Y02275D02*
D03*
D53*
Y02585D02*
D03*
Y020782D02*
D03*
D54*
X06315Y0128D02*
D03*
X0608Y015937D02*
D03*
D55*
X06315Y012013D02*
D03*
X0608Y01515D02*
D03*
D56*
X0512Y0183D02*
D03*
Y0173D02*
D03*
Y0163D02*
D03*
Y0153D02*
D03*
X0482D02*
D03*
Y0163D02*
D03*
Y0173D02*
D03*
D57*
Y0183D02*
D03*
D58*
X0512Y0258D02*
D03*
X0532D02*
D03*
X0512Y02475D02*
D03*
X0532D02*
D03*
Y02375D02*
D03*
X0512D02*
D03*
X05075Y01205D02*
D03*
Y01405D02*
D03*
X05445Y01315D02*
D03*
Y01115D02*
D03*
X05535Y01315D02*
D03*
Y01115D02*
D03*
X057Y01805D02*
D03*
X059D02*
D03*
X0578Y0114D02*
D03*
Y0134D02*
D03*
X0587Y0114D02*
D03*
Y0134D02*
D03*
X05965D02*
D03*
Y0114D02*
D03*
X0606Y0134D02*
D03*
Y0114D02*
D03*
X06155D02*
D03*
Y0134D02*
D03*
X059Y0189D02*
D03*
X057D02*
D03*
X0512Y0216D02*
D03*
X0532D02*
D03*
D59*
X0481Y03025D02*
D03*
X06815Y0302D02*
D03*
X06855Y01125D02*
D03*
X04805D02*
D03*
D60*
X0489Y0266D02*
D03*
D61*
Y0256D02*
D03*
D62*
X0509Y020492D02*
D03*
Y019508D02*
D03*
X048308Y0196D02*
D03*
X049292D02*
D03*
X04965Y013942D02*
D03*
Y012958D02*
D03*
X05315Y012692D02*
D03*
Y011708D02*
D03*
X057508Y01655D02*
D03*
X058492D02*
D03*
X0566Y012492D02*
D03*
Y011508D02*
D03*
D63*
X0485Y02375D02*
D03*
Y02275D02*
D03*
D64*
Y02175D02*
D03*
D65*
X052737Y01435D02*
D03*
Y01535D02*
D03*
Y01635D02*
D03*
Y01735D02*
D03*
X055863D02*
D03*
Y01635D02*
D03*
Y01535D02*
D03*
D66*
Y01435D02*
D03*
D67*
X06494Y01336D02*
D03*
X06682Y01082D02*
D03*
X0649Y01085D02*
D03*
X06685Y0133D02*
D03*
D68*
X0613Y01805D02*
D03*
D69*
X0603D02*
D03*
D70*
X063Y014463D02*
D03*
D71*
Y018637D02*
D03*
D72*
X067257Y01635D02*
D03*
D73*
Y014382D02*
D03*
Y018319D02*
D03*
D74*
X069029Y01635D02*
D03*
D75*
X053384Y02265D02*
D03*
D76*
X050416D02*
D03*
D77*
X06415Y026056D02*
D03*
Y02015D02*
D03*
X061Y026056D02*
D03*
Y02015D02*
D03*
X05785Y026056D02*
D03*
Y02015D02*
D03*
D78*
X05495Y021204D02*
D03*
Y02335D02*
D03*
D79*
Y025496D02*
D03*
D80*
X0539Y01925D02*
D03*
X0529D02*
D03*
D81*
X0549D02*
D03*
D82*
X05155Y0283D02*
D03*
X0558D02*
D03*
X06Y028316D02*
D03*
X0642D02*
D03*
D83*
X05155Y030268D02*
D03*
X0558D02*
D03*
X06Y030284D02*
D03*
X0642D02*
D03*
D84*
X0646Y0146D02*
D03*
Y0186D02*
D03*
M02*
