G04*
G04 #@! TF.GenerationSoftware,Altium Limited,Altium Designer,21.0.8 (223)*
G04*
G04 Layer_Color=8388736*
%FSTAX24Y24*%
%MOIN*%
G70*
G04*
G04 #@! TF.SameCoordinates,67FEE026-561A-4E2F-A948-FBB6D6F09F3B*
G04*
G04*
G04 #@! TF.FilePolarity,Negative*
G04*
G01*
G75*
%ADD17C,0.0907*%
%ADD18R,0.0907X0.0907*%
%ADD19C,0.0556*%
%ADD20R,0.0556X0.0556*%
%ADD21C,0.0740*%
%ADD22R,0.0740X0.0740*%
%ADD23C,0.0730*%
%ADD24C,0.2049*%
%ADD25O,0.1080X0.0730*%
%ADD26R,0.1080X0.0730*%
%ADD27C,0.0575*%
%ADD28C,0.0560*%
%ADD29R,0.0560X0.0560*%
%ADD30C,0.0525*%
%ADD31R,0.0525X0.0525*%
%ADD32C,0.0830*%
%ADD33O,0.0730X0.1080*%
%ADD34R,0.0730X0.1080*%
%ADD35R,0.0730X0.0730*%
%ADD36C,0.0730*%
G04:AMPARAMS|DCode=37|XSize=55.2mil|YSize=94.6mil|CornerRadius=15.8mil|HoleSize=0mil|Usage=FLASHONLY|Rotation=180.000|XOffset=0mil|YOffset=0mil|HoleType=Round|Shape=RoundedRectangle|*
%AMROUNDEDRECTD37*
21,1,0.0552,0.0630,0,0,180.0*
21,1,0.0236,0.0946,0,0,180.0*
1,1,0.0316,-0.0118,0.0315*
1,1,0.0316,0.0118,0.0315*
1,1,0.0316,0.0118,-0.0315*
1,1,0.0316,-0.0118,-0.0315*
%
%ADD37ROUNDEDRECTD37*%
%ADD38O,0.1655X0.0867*%
%ADD39O,0.0867X0.1655*%
%ADD40R,0.0567X0.0567*%
%ADD41C,0.0567*%
%ADD42C,0.0749*%
%ADD43C,0.1119*%
%ADD44R,0.1119X0.1119*%
%ADD45C,0.0474*%
%ADD46R,0.0474X0.0474*%
%ADD47R,0.0552X0.0552*%
%ADD48C,0.0552*%
%ADD49C,0.0930*%
D17*
X0681Y027819D02*
D03*
Y02275D02*
D03*
D18*
Y02585D02*
D03*
Y020782D02*
D03*
D19*
X06315Y0128D02*
D03*
X0608Y015937D02*
D03*
D20*
X06315Y012013D02*
D03*
X0608Y01515D02*
D03*
D21*
X0512Y0183D02*
D03*
Y0173D02*
D03*
Y0163D02*
D03*
Y0153D02*
D03*
X0482D02*
D03*
Y0163D02*
D03*
Y0173D02*
D03*
D22*
Y0183D02*
D03*
D23*
X0512Y0258D02*
D03*
X0532D02*
D03*
X0512Y02475D02*
D03*
X0532D02*
D03*
Y02375D02*
D03*
X0512D02*
D03*
X05075Y01205D02*
D03*
Y01405D02*
D03*
X05445Y01315D02*
D03*
Y01115D02*
D03*
X05535Y01315D02*
D03*
Y01115D02*
D03*
X057Y01805D02*
D03*
X059D02*
D03*
X0578Y0114D02*
D03*
Y0134D02*
D03*
X0587Y0114D02*
D03*
Y0134D02*
D03*
X05965D02*
D03*
Y0114D02*
D03*
X0606Y0134D02*
D03*
Y0114D02*
D03*
X06155D02*
D03*
Y0134D02*
D03*
X059Y0189D02*
D03*
X057D02*
D03*
X0512Y0216D02*
D03*
X0532D02*
D03*
D24*
X0481Y03025D02*
D03*
X06815Y0302D02*
D03*
X06855Y01125D02*
D03*
X04805D02*
D03*
D25*
X0489Y0266D02*
D03*
D26*
Y0256D02*
D03*
D27*
X0509Y020492D02*
D03*
Y019508D02*
D03*
X048308Y0196D02*
D03*
X049292D02*
D03*
X04965Y013942D02*
D03*
Y012958D02*
D03*
X05315Y012692D02*
D03*
Y011708D02*
D03*
X057508Y01655D02*
D03*
X058492D02*
D03*
X0566Y012492D02*
D03*
Y011508D02*
D03*
D28*
X0485Y02375D02*
D03*
Y02275D02*
D03*
D29*
Y02175D02*
D03*
D30*
X052737Y01435D02*
D03*
Y01535D02*
D03*
Y01635D02*
D03*
Y01735D02*
D03*
X055863D02*
D03*
Y01635D02*
D03*
Y01535D02*
D03*
D31*
Y01435D02*
D03*
D32*
X06494Y01336D02*
D03*
X06682Y01082D02*
D03*
X0649Y01085D02*
D03*
X06685Y0133D02*
D03*
D33*
X0613Y01805D02*
D03*
D34*
X0603D02*
D03*
D35*
X063Y014463D02*
D03*
D36*
Y018637D02*
D03*
D37*
X067257Y01635D02*
D03*
D38*
Y014382D02*
D03*
Y018319D02*
D03*
D39*
X069029Y01635D02*
D03*
D40*
X053384Y02265D02*
D03*
D41*
X050416D02*
D03*
D42*
X06415Y026056D02*
D03*
Y02015D02*
D03*
X061Y026056D02*
D03*
Y02015D02*
D03*
X05785Y026056D02*
D03*
Y02015D02*
D03*
D43*
X05495Y021204D02*
D03*
Y02335D02*
D03*
D44*
Y025496D02*
D03*
D45*
X0539Y01925D02*
D03*
X0529D02*
D03*
D46*
X0549D02*
D03*
D47*
X05155Y0283D02*
D03*
X0558D02*
D03*
X06Y028316D02*
D03*
X0642D02*
D03*
D48*
X05155Y030268D02*
D03*
X0558D02*
D03*
X06Y030284D02*
D03*
X0642D02*
D03*
D49*
X0646Y0146D02*
D03*
Y0186D02*
D03*
M02*
