M48
;Layer_Color=9474304
;FILE_FORMAT=2:4
INCH,LZ
;TYPE=PLATED
T1F00S00C0.0236
T3F00S00C0.0276
T4F00S00C0.0280
T5F00S00C0.0287
T6F00S00C0.0295
T7F00S00C0.0307
T8F00S00C0.0310
T9F00S00C0.0320
T10F00S00C0.0335
T11F00S00C0.0350
T12F00S00C0.0394
T14F00S00C0.0433
T15F00S00C0.0440
T16F00S00C0.0551
T17F00S00C0.0693
T18F00S00C0.1181
%
T01
X0529Y01925
X0539
X0549
T03
X0608Y01515
X06315Y0128
Y012013
X0608Y015937
T04
X05075Y01205
Y01405
X05445Y01315
X05535
Y01115
X05445
X0578Y0114
X0587
X05965
X0606
X06155
Y0134
X0606
X05965
X0587
X0578
X057Y01805
Y0189
X059
Y01805
X0532Y0216
X0512
Y02375
Y02475
Y0258
X0532
Y02475
Y02375
X0485
Y02275
Y02175
T05
X050416Y02265
X053384
T06
X04965Y012958
Y013942
X05315Y012692
Y011708
X0566Y011508
Y012492
X057508Y01655
X058492
X0509Y019508
Y020492
X049292Y0196
X048308
T07
X052737Y01435
Y01535
X055863
Y01435
Y01635
Y01735
X052737
Y01635
T08
X0649Y01085
X06682Y01082
X06685Y0133
X06494Y01336
T09
X0489Y0256
Y0266
X0603Y01805
X0613
T10
X0642Y028316
Y030284
X06
Y028316
X0558Y0283
Y030268
X05155
Y0283
T11
X0646Y0146
Y0186
T12
X06415Y02015
Y026056
X061
X05785
Y02015
X061
T14
X063Y014463
Y018637
T15
X0482Y0153
X0512
Y0163
Y0173
Y0183
X0482
Y0173
Y0163
T16
X0681Y020782
Y02275
Y02585
Y027819
T17
X05495Y021204
Y02335
Y025496
T18
X04805Y01125
X06855
X06815Y0302
X0481Y03025
M30
